<svg xmlns="http://www.w3.org/2000/svg" width="158.434" height="40">
  <path d="M72.109 9.152h-4.424l-.844 2.042h-2.259l4.247-9.528h2.178l4.261 9.528h-2.319zm-.694-1.674L69.904 3.83l-1.511 3.648zM76.941 1.666h2.205v7.731h4.778v1.8h-6.983zM93.219 9.425v1.77h-7.377V1.667h7.2v1.769h-5.009v2.069h4.424v1.713h-4.424v2.205zM101.564 11.194l-2.3-3.308-2.259 3.308h-2.532l3.526-4.846-3.349-4.682h2.5l2.192 3.09 2.151-3.09h2.382l-3.321 4.6 3.553 4.927zM111.747 9.152h-4.424l-.844 2.042h-2.26l4.247-9.528h2.178l4.26 9.528h-2.314zm-.694-1.674l-1.511-3.648-1.511 3.648zM125.316 1.666v9.528h-1.81l-4.75-5.785v5.785h-2.178V1.666h1.824l4.737 5.785V1.666zM128.256 1.666h4.328a6.082 6.082 0 012.743.592 4.434 4.434 0 011.851 1.667 5.08 5.08 0 010 5.009 4.434 4.434 0 01-1.851 1.667 6.085 6.085 0 01-2.743.592h-4.328zm4.219 7.718a3.2 3.2 0 002.28-.8 3.161 3.161 0 000-4.315 3.2 3.2 0 00-2.28-.8h-2.015v5.907zM147.558 9.425v1.77h-7.378V1.667h7.2v1.769h-5.009v2.069h4.424v1.713h-4.424v2.205zM156.063 11.194l-1.837-2.654h-2.028v2.654h-2.2V1.666h4.125a5.3 5.3 0 012.2.422 3.265 3.265 0 011.436 1.2 3.3 3.3 0 01.5 1.838 3.1 3.1 0 01-1.96 3.008l2.137 3.063zm-.558-7.3a2.318 2.318 0 00-1.511-.429h-1.8v3.321h1.8a2.291 2.291 0 001.511-.435 1.717 1.717 0 000-2.457z"/>
  <path fill="#ffc427" d="M64.713 34.334h93.72v4h-93.72z"/>
  <g>
    <path d="M66.918 19.77v2.518h4.41v1.77h-4.41v3.471h-2.205V18h7.2v1.77zM74.095 18h2.2v7.731h4.778v1.8h-6.978zM84.77 27.049a4.743 4.743 0 01-1.865-1.763 5.066 5.066 0 010-5.05 4.749 4.749 0 011.865-1.763 5.9 5.9 0 015.342 0 4.86 4.86 0 010 8.575 5.9 5.9 0 01-5.342 0zm4.2-1.627a2.789 2.789 0 001.069-1.082 3.409 3.409 0 000-3.158A2.789 2.789 0 0088.97 20.1a3.191 3.191 0 00-3.049 0 2.785 2.785 0 00-1.069 1.082 3.409 3.409 0 000 3.158 2.784 2.784 0 001.069 1.082 3.189 3.189 0 003.049 0zM101.07 27.528l-1.838-2.654h-2.031v2.654h-2.2V18h4.125a5.3 5.3 0 012.2.422 3.153 3.153 0 011.94 3.035 3.1 3.1 0 01-1.96 3.008l2.137 3.062zm-.558-7.3a2.315 2.315 0 00-1.511-.429h-1.8v3.321h1.8a2.291 2.291 0 001.511-.435 1.718 1.718 0 000-2.457zM113.062 25.759v1.769h-7.378V18h7.2v1.77h-5.009v2.069h4.424v1.715h-4.424v2.205zM116.443 27.385a5.11 5.11 0 01-1.694-.8l.748-1.661a5.083 5.083 0 001.457.722 5.475 5.475 0 001.688.272 2.7 2.7 0 001.389-.279.843.843 0 00.449-.742.709.709 0 00-.266-.565 2.014 2.014 0 00-.681-.361q-.415-.136-1.123-.3a15.507 15.507 0 01-1.783-.517 2.9 2.9 0 01-1.191-.831 2.241 2.241 0 01-.5-1.524 2.651 2.651 0 01.449-1.5 3.02 3.02 0 011.354-1.069 5.526 5.526 0 012.212-.395 7.334 7.334 0 011.783.218 5.275 5.275 0 011.524.626l-.681 1.674a5.314 5.314 0 00-2.641-.749 2.478 2.478 0 00-1.368.3.914.914 0 00-.442.789.772.772 0 00.51.729 7.992 7.992 0 001.558.47 15.549 15.549 0 011.783.517 2.954 2.954 0 011.191.817 2.188 2.188 0 01.5 1.511 2.6 2.6 0 01-.456 1.49 3.064 3.064 0 01-1.368 1.069 5.572 5.572 0 01-2.219.395 7.793 7.793 0 01-2.182-.306zM126.788 27.059a4.725 4.725 0 01-1.851-1.756 5.116 5.116 0 010-5.077 4.723 4.723 0 011.851-1.756 5.908 5.908 0 014.887-.2 4.485 4.485 0 011.681 1.252l-1.416 1.307a3.044 3.044 0 00-2.4-1.116 3.181 3.181 0 00-1.579.388 2.756 2.756 0 00-1.082 1.082 3.406 3.406 0 000 3.158 2.756 2.756 0 001.082 1.082 3.181 3.181 0 001.579.388 3.028 3.028 0 002.4-1.13l1.416 1.307a4.413 4.413 0 01-1.688 1.266 5.607 5.607 0 01-2.246.435 5.473 5.473 0 01-2.634-.63zM136.494 26.562a4.348 4.348 0 01-1.136-3.226V18h2.205v5.254q0 2.559 2.123 2.559a1.991 1.991 0 001.579-.619 2.886 2.886 0 00.544-1.94V18h2.178v5.336a4.507 4.507 0 01-7.493 3.226z"/>
  </g>
  <g>
    <path d="M15.684 7.3L19.227 0l19.414 40h-6.917z" fill="#ffc427"/>
    <path d="M19.231 0l3.368 6.939h25.188L51.18 0zM13.546 26.317l5.706-11.756-3.563-7.262L.003 39.617h7.09l3.013-6.21h18.388l-3.477-7.09zM29.453 21.063H40.88l3.393-6.939H26.085z"/>
  </g>
</svg>
