<svg width="128" height="34" viewBox="0 0 128 34" fill="none" xmlns="http://www.w3.org/2000/svg">
<path d="M20.3186 9.98711C19.7551 9.98711 19.3168 9.5488 19.3168 8.98527C19.3168 8.42173 19.7551 7.98343 20.3186 7.98343C21.9779 7.98343 23.3241 6.6372 23.3241 4.9779C23.3241 3.3186 21.9779 1.97238 20.3186 1.97238H1.00184C0.438306 2.00368 0 1.56538 0 1.00184C0 0.438306 0.438306 0 1.00184 0H20.3186C23.0737 0 25.3278 2.25414 25.3278 5.00921C25.3278 7.76427 23.0737 9.98711 20.3186 9.98711Z" fill="#FBE102"/>
<path d="M20.3186 34H5.00921C2.25414 34 0 31.7458 0 28.9908V21.0073C0 18.2523 2.25414 15.9981 5.00921 15.9981H20.3186C21.9779 15.9981 23.3241 14.6519 23.3241 12.9926C23.3241 11.3333 21.9779 9.98708 20.3186 9.98708H1.00184C0.438306 9.98708 0 9.54878 0 8.98524C0 8.4217 0.438306 7.9834 1.00184 7.9834H20.3186C23.0737 7.9834 25.3278 10.2375 25.3278 12.9926C25.3278 15.7477 23.0737 18.0018 20.3186 18.0018H5.00921C3.34991 18.0018 2.00368 19.348 2.00368 21.0073V29.0221C2.00368 30.6814 3.34991 32.0276 5.00921 32.0276H20.3186C21.9779 32.0276 23.3241 30.6814 23.3241 29.0221C23.3241 27.3628 21.9779 26.0165 20.3186 26.0165H10.6759C10.1123 26.0165 9.67403 25.5782 9.67403 25.0147C9.67403 24.4512 10.1123 24.0129 10.6759 24.0129H20.3499C23.105 24.0129 25.3591 26.267 25.3591 29.0221C25.3591 31.7771 23.0737 34 20.3186 34Z" fill="#FBE102"/>
<path d="M36.5632 23.9486C34.0734 23.9486 32.0908 25.8851 32.0908 28.3288C32.0908 30.7264 34.0734 32.709 36.5632 32.709C37.762 32.709 38.9608 32.2018 39.7907 31.3719L40.5746 32.2018C39.5141 33.2162 38.0386 33.8617 36.471 33.8617C33.2896 33.8617 30.7998 31.418 30.7998 28.2827C30.7998 25.1935 33.3357 22.7959 36.5171 22.7959C38.0386 22.7959 39.468 23.3953 40.5285 24.4097L39.7907 25.3318C38.9608 24.4558 37.762 23.9486 36.5632 23.9486Z" fill="#000000"/>
<path d="M56.4817 28.3288C56.4817 31.418 53.9457 33.8617 50.7182 33.8617C47.4907 33.8617 44.9548 31.418 44.9548 28.3288C44.9548 25.2396 47.4907 22.7959 50.7182 22.7959C53.9457 22.7959 56.4817 25.2396 56.4817 28.3288ZM46.2458 28.3288C46.2458 30.7725 48.2745 32.709 50.7182 32.709C53.1619 32.709 55.1906 30.7264 55.1906 28.3288C55.1906 25.9312 53.1619 23.9486 50.7182 23.9486C48.2745 23.9486 46.2458 25.8851 46.2458 28.3288Z" fill="#000000"/>
<path d="M63.5361 22.842L70.1295 31.7868V22.842H71.3744V33.8156H70.0834L63.49 24.9168V33.8156H62.2451V22.842H63.5361Z" fill="#000000"/>
<path d="M82.9012 23.9486C80.4114 23.9486 78.4288 25.8851 78.4288 28.3288C78.4288 30.7264 80.4114 32.709 82.9012 32.709C84.1 32.709 85.2988 32.2018 86.1288 31.3719L86.9126 32.2018C85.8521 33.2162 84.3767 33.8617 82.809 33.8617C79.6276 33.8617 77.1378 31.418 77.1378 28.2827C77.1378 25.1935 79.6737 22.7959 82.8551 22.7959C84.3767 22.7959 85.806 23.3953 86.8665 24.4097L86.1288 25.3318C85.2988 24.4558 84.1 23.9486 82.9012 23.9486Z" fill="#000000"/>
<path d="M100.053 22.842V23.9947H93.8748V27.6833H99.4077V28.836H93.8748V32.6629H100.284V33.8156H92.6299V22.842H100.053Z" fill="#000000"/>
<path d="M114.715 26.5306C114.715 28.9282 113.148 30.3575 110.427 30.3575H107.569V33.8617H106.324V22.842H110.473C113.148 22.842 114.715 24.1791 114.715 26.5306ZM113.47 26.5767C113.47 24.9168 112.318 24.0408 110.335 24.0408H107.523V29.2048H110.335C112.364 29.1587 113.47 28.2827 113.47 26.5767Z" fill="#000000"/>
<path d="M127.164 22.842V23.9947H123.568V33.8156H122.323V23.9947H118.727V22.842H127.164Z" fill="#000000"/>
<path d="M33.474 9.2403L36.4249 17.7702L39.3758 9.2403H42.5572L37.9465 21.0438H34.765L30.2004 9.2403H33.474Z" fill="#000000"/>
<path d="M50.3955 9.2403V21.0438H47.3063V9.2403H50.3955Z" fill="#000000"/>
<path d="M63.49 21.0438L61.784 17.7702H61.7379H59.4786V21.0438H56.3894V9.2403H61.6918C64.8271 9.2403 66.5792 10.7618 66.5792 13.39C66.5792 15.1882 65.8415 16.4792 64.4582 17.1708L66.9019 21.0438H63.49ZM59.4786 15.3265H61.7379C62.9828 15.3265 63.7205 14.681 63.7205 13.4822C63.7205 12.3295 62.9828 11.684 61.7379 11.684H59.4786V15.3265Z" fill="#000000"/>
<path d="M81.3336 9.2403V11.7762H77.7833V21.0438H74.6941V11.7762H71.1899V9.2403H81.3336Z" fill="#000000"/>
<path d="M91.5695 18.554C92.9527 18.554 93.8748 17.6319 93.8748 16.1103V9.2403H96.964V16.0642C96.964 19.1534 94.8892 21.136 91.5695 21.136C88.2497 21.136 86.0827 19.1534 86.0827 16.0642V9.2403H89.1719V16.0642C89.1719 17.5857 90.1862 18.554 91.5695 18.554Z" fill="#000000"/>
<path d="M110.243 18.9228H105.171L104.341 20.9977H101.16L106.232 9.19415H109.413L114.347 21.0438H111.073L110.243 18.9228ZM109.367 16.5714L107.753 12.3756L106.093 16.5714H109.367Z" fill="#000000"/>
<path d="M122.185 9.2403V18.4157H127.164V21.0438H119.096V9.2403H122.185Z" fill="#000000"/>
</svg>
