<svg width="1397" height="446" fill="none" xmlns="http://www.w3.org/2000/svg">
  <path d="M437.72 268.67c-22.65 2.73-47.54-4.85-50.37-5.74.2-2 .3-3.95.42-5.91l.08-.12c2.151-16.343 1.352-32.939-2.36-49-.021-.072-.038-.146-.05-.22-.3-1.26-.59-2.46-.89-3.59v-.1c-.3-1.16-.6-2.24-.9-3.25v-.09c-.841-2.936-1.843-5.824-3-8.65-2.65-9.44-5.65-18.15-8.65-26-13.24-34.65-44.33-53.7-75.53-64.2-1.08-.36-2.16-.73-3.26-1.07C259.67 90 226.84 89 216.56 89c.942-3.548 2.063-7.0458 3.36-10.48 11.44-28.85 31.58-41.93 31.58-41.93.54-6-4.65-6-4.65-6-17.23 4.06-27.45 21.26-33.55 40.63l-7.64-4.9v-.18c.48-5.15 2-40.64-45.84-56.42-35.65-11.72-60.8198 7.5-98.5698 4.94h-.33c16.59 19.53 21.87 42.49 45.9198 54.26 32 15.67 64.08 9.14 96-1.2l9.08 8.35c-1.19 4.29-2.19 8.64-3 12.95-12.46.11-49.77 1.65-85.37 15.08-28.9398 10.91-56.7298 29.65-68.9998 61.89-7.27 18.7-14.55 42.01-16.04 69.1l-.41-.26s-.27 5-.13 12.61v.09c0 1.15.06 2.38.1 3.64.005.077.005.153 0 .23 0 1 .08 2 .13 3 0 .43 0 .82.06 1.25.22 3.91.56 8.16 1.07 12.6.09.7.17 1.38.26 2.07.6734 5.442 1.6415 10.843 2.9 16.18-7.52 7.07-56.75 58-25.33 154 0 0 26.27-19.31 52.3-30.76 0 0-20.2-21.35-2-62.73l.43.76c2 4.12 4.07 8 6.06 11.55.11.21.22.4.34.6.79 1.42 1.57 2.81 2.34 4.14l.41.7c.75 1.3 1.5 2.56 2.23 3.77l.19.32c10.15 16.74 18.06 25.68 18.11 25.73 3.8398 5.37 7.6898 10.5 11.4498 15.15 9.42 11.67 18.24 20.49 24.83 23.44 20.28 9.08 36.83 4.27 45.15 7.26 8.12 2.93 21.35 5.48 33.7 5.48 22.44-1.47 26.66-2.55 34.79-5.48 8.31-3 24.87 1.82 45.14-7.26 15-6.74 41.53-43.8 60.62-76.14 7.349-11.373 13.792-23.307 19.27-35.69 0 0 .26-.59.59-1.4l.24-.55c-.52 1.28-.84 2-.84 2 22 14.49 49.29 5.06 49.29 5.06 20.34-26.35 15.92-57.78 15.92-57.78z" fill="#333" opacity=".7"/>
  <path d="M366.19 160.18C353 125.53 321.86 106.47 290.66 96c-14.68 16.59-33.77 26.34-53.93 31.09-65.8 48.06-156.0699 140.69-133.55 276.88 9.43 11.67 18.25 20.48 24.84 23.43 20.27 9.09 36.83 4.27 45.15 7.26 8.12 2.94 21.35 5.49 33.7 5.49 22.43-1.47 26.66-2.55 34.79-5.49 8.31-3 24.87 1.83 45.14-7.26 21.36-9.56 65.84-80.32 79.39-111.81 28.31-65.92 13.81-119.12 0-155.41z" fill="#A0B252"/>
  <path d="M236.73 127.06c-50.29 11.87-107.21-7.28-119-28.78-28.9398 10.91-56.7398 29.65-68.9998 61.9-13.86 36.29-28.32 89.49 0 155.38 9.35 21.76 33.48 62.26 54.5398 88.38-22.6098-136.19 67.66-228.82 133.46-276.88z" fill="#B0C95A"/>
  <path d="M287.4 94.9c-40.43-12.85-80-11.68-80-11.68s-46.17-1.36-89.72 15.06c11.83 21.5 68.75 40.65 119 28.78 20.16-4.75 39.25-14.5 53.93-31.09l-3.21-1.07z" fill="#A7BA56"/>
  <path d="M194.97 57.39l15.3 9.81-1.77 5.27-14.53-13.35 1-1.73z" fill="#242424"/>
  <path d="M198.58 130.6s-1.39-95.46 42.47-105.8c0 0 5.2 0 4.66 6 0 0-20.14 13.07-31.58 41.93-4.06 10.23-13.14 44.77-6 57.93l-9.55-.06z" fill="#242424"/>
  <path d="M136.69 32.23c-28.344-2.424-55.9406-10.3628-81.2399-23.37h-.33c16.6 19.52 21.88 42.49 45.9299 54.25 33 16.14 66 8.76 98.77-2.1 0 0 0-.24.07-.66-4.23-11.63-33.74-25.59-63.2-28.12z" fill="#B0C95A"/>
  <path d="M154.05 3.93c-35.68-11.77-60.8498 7.5-98.5998 4.93C80.7495 21.8672 108.346 29.806 136.69 32.23c29.46 2.53 59 16.49 63.2 28.11.47-5.14 1.96-40.63-45.84-56.41z" fill="#A0B252"/>
  <path d="M37.6701 279.8s-60.25 51.2-26.3 154.9c0 0 26.27-19.32 52.3-30.76 0 0-20.22-21.37-2-62.78l-24-61.36z" fill="gray"/>
  <path d="M61.6501 341.16s187.0899-20.19 313.1899-155c0 0 12.19 28 7.22 64.94 0 0-72.41 117.76-290.3198 137.68 0 .01-14.9001-16.78-30.0901-47.62z" fill="#666"/>
  <path d="M32.3101 229s-2.12 37.29 8.22 64.39c0 0 124.8799 94.09 306.8999 57.81 0 0 21.65-32.44 27.41-60 0 .02-174.84 47.41-342.5299-62.2z" fill="gray"/>
  <path d="M381.28 257.05s26.59 8.72 50.65 5.83c0 0 4.42 31.42-15.94 57.76 0 0-27.3 9.43-49.28-5.07 0 0 10.1-22.16 14.57-58.52z" fill="#666"/>
  <path d="M73.7902 362.42l-2.32-17c-.0252-.218-.1341-.419-.3038-.558-.1697-.14-.387-.209-.6062-.192l-2.72.35c-.1115.019-.2181.061-.3134.121-.0954.061-.1776.141-.2419.234-.0642.093-.1093.198-.1324.309-.0231.111-.0239.225-.0023.336l1 7.51c1.9 3.42 3.74 6.597 5.52 9.53.0632-.093.1065-.197.1271-.307.0207-.111.0183-.224-.0071-.333zm7.92-19.35l-2.73.42c-.111.019-.217.06-.3115.122-.0945.061-.1755.141-.2382.234-.0627.094-.1057.199-.1264.31-.0206.11-.0186.224.0061.334l2.55 16.95c.0323.221.1496.421.3269.558.1774.136.4009.198.6231.172l2.82-.44c.1119-.018.2189-.058.3146-.119.0956-.061.1778-.14.2415-.234.0637-.094.1076-.199.1289-.311.0213-.111.0196-.225-.005-.336l-2.68-16.92c-.0252-.22-.1359-.42-.3081-.559-.1722-.138-.392-.203-.6119-.181zm10.81-1.82l-2.7.49c-.1101.02-.215.062-.3084.124-.0933.062-.1732.142-.2349.235-.0617.094-.1038.199-.1238.309-.0201.11-.0177.223.0071.332l2.89 16.89c.0168.113.0564.222.1163.32.0599.097.139.182.2324.248.0934.066.1992.113.3111.138.112.024.2277.025.3402.004l2.79-.5c.1103-.02.2155-.062.3093-.124.0938-.062.1743-.141.2367-.235.0625-.093.1056-.198.1269-.308.0213-.11.0203-.223-.0029-.333l-3-16.86c-.0131-.115-.0498-.225-.1076-.325-.0578-.1-.1356-.187-.2285-.256-.0928-.068-.1989-.117-.3114-.142-.1125-.026-.2291-.028-.3425-.007zm13.1298-2.49l-4.71.95c-.215.05-.402.183-.52.37-.118.188-.158.414-.11.63L105 365.1c.019.112.061.218.122.313.061.096.14.178.233.242.093.065.198.11.309.133.111.023.225.024.336.002l4.92-1c.22-.046.414-.176.539-.363.126-.187.173-.416.131-.637l-4.93-24.33c-.015-.115-.054-.225-.114-.324-.06-.099-.141-.184-.236-.25-.095-.065-.203-.111-.316-.133-.114-.021-.231-.019-.344.007zm11.06-2.33L114 337c-.21.057-.391.192-.505.378-.113.186-.151.409-.105.622l3.61 16.79c.022.109.065.214.127.306.062.093.142.172.235.234.093.061.197.103.307.124.11.021.222.019.331-.004l2.77-.61c.216-.05.403-.183.521-.37.118-.188.157-.414.109-.63l-3.71-16.72c-.018-.11-.058-.215-.117-.31-.059-.095-.137-.176-.228-.241-.091-.064-.194-.109-.303-.133-.109-.024-.222-.026-.332-.006zm11.51 15.85c.048.218.18.408.367.53.187.121.415.165.633.12l2.76-.68c.212-.054.394-.189.508-.376.114-.187.151-.411.102-.624l-3.42-14.13c-1.61-.56-3.25-1.1-4.83-1.67v.17l3.88 16.66zm12.32-2.12l2.75-.74c.206-.061.382-.198.49-.384.107-.186.14-.407.09-.616l-1.87-7.17c-1.66-.51-3.35-1-5-1.53l2.49 9.82c.027.111.076.215.143.306.068.091.153.168.251.226.098.058.207.095.319.11.113.016.227.008.337-.022zm10.96-2.91l2.73-.77c.215-.067.395-.216.502-.414.106-.198.131-.43.068-.646l-.15-.51c-1.69-.46-3.38-.92-5-1.4l.85 3.12c.059.21.194.39.379.505.186.114.407.156.621.115zm13.4 4.15l4.82-1.43c.216-.071.395-.224.498-.427.103-.202.122-.437.052-.653-2.56-.59-5-1.23-7.54-1.85l1.12 3.79c.067.213.214.391.41.497.196.106.425.133.64.073zm71.88-55.89l-2.47 1.19c-.195.104-.342.281-.407.493-.066.212-.045.441.057.637l.64 1.37 5.07.49-1.8-3.75c-.042-.101-.104-.192-.182-.268-.078-.076-.171-.136-.272-.176-.102-.04-.21-.06-.32-.057-.109.002-.216.026-.316.071zm10.08-4.95l-2.44 1.25c-.096.05-.182.12-.252.204-.069.083-.121.18-.153.285-.032.104-.042.213-.031.322.011.108.044.213.096.309l3.68 7.34c1.72.12 3.46.26 5.16.36L248 291c-.041-.108-.104-.206-.185-.288-.081-.082-.179-.145-.286-.187-.108-.041-.223-.06-.338-.054-.116.006-.228.037-.331.089zm10.78-4.71c-.103-.197-.278-.347-.488-.418-.211-.07-.441-.057-.642.038l-2.41 1.27c-.096.054-.18.126-.247.213-.068.087-.117.186-.146.292-.029.106-.036.217-.022.326.014.109.05.214.105.309l6.95 13.1c1.7.07 3.42.16 5.1.21v-.28l-8.2-15.06zm11.57-6.53c-.102-.195-.277-.341-.487-.407-.21-.065-.438-.045-.633.057l-4.09 2.38c-.189.116-.324.302-.377.517-.052.216-.017.443.097.633l10.6 18.84c2.54 0 5 .05 7.5 0 .05-.204.018-.42-.09-.6l-12.52-21.42zM284 290.53c.116.191.303.329.521.383.217.055.447.021.639-.093l2.42-1.52c.188-.125.32-.318.367-.539.047-.221.005-.451-.117-.641l-9-14.58c-.111-.189-.291-.327-.503-.383-.212-.056-.437-.026-.627.083l-2.31 1.45c-.183.124-.31.315-.355.531-.045.217-.004.442.115.629l8.85 14.68zm9.78-6.13c.12.19.309.326.527.38.218.055.448.022.643-.09l2.42-1.52c.093-.06.173-.137.235-.229.063-.091.106-.194.127-.302.022-.108.021-.22-.002-.328-.022-.108-.067-.21-.13-.301l-9.36-14.34c-.114-.19-.299-.328-.514-.384-.215-.056-.443-.026-.636.084l-2.31 1.45c-.091.06-.169.138-.229.229s-.101.194-.121.301c-.02.108-.017.218.007.324.024.107.069.207.133.296l9.21 14.43zm9.74-6.4c.061.094.14.176.232.239.093.064.198.108.308.13.11.023.223.023.333 0 .11-.022.214-.066.307-.129l2.35-1.61c.091-.064.169-.145.229-.239.059-.094.1-.199.118-.309.019-.11.015-.222-.01-.331-.025-.108-.072-.211-.137-.301l-9.75-14.08c-.119-.186-.306-.317-.522-.366-.215-.048-.44-.01-.628.106l-2.26 1.54c-.177.133-.294.331-.326.55-.031.219.025.442.156.62l9.6 14.18zm9.37-6.44c.063.091.143.168.237.228.093.059.197.1.306.118.109.019.221.015.328-.01.108-.025.21-.071.299-.136l2.29-1.71c.177-.14.293-.344.323-.568.03-.224-.028-.45-.163-.632L306.37 255c-.06-.089-.138-.166-.227-.225-.09-.06-.191-.101-.297-.122-.106-.02-.215-.019-.321.002-.105.022-.206.064-.295.125l-2.18 1.64c-.171.141-.28.342-.306.562-.026.22.033.441.166.618l9.98 13.96zm14.02-.9c.067.092.152.169.25.228.097.059.205.098.318.115.112.016.227.011.337-.017.11-.028.214-.078.305-.146l4.06-3c.089-.07.164-.157.219-.256.055-.1.089-.209.101-.322.012-.112.002-.226-.031-.335-.033-.109-.087-.21-.159-.297L317 247.08c-.13-.175-.323-.292-.538-.325-.215-.034-.435.018-.612.145l-3.85 2.84c-.169.14-.276.342-.299.561-.022.218.042.437.179.609l15.03 19.75zm6.18-14.66c.143.173.348.282.57.305.223.022.446-.044.62-.185l2.21-1.81c.085-.071.156-.159.207-.257.051-.099.082-.206.091-.317.01-.111-.003-.222-.037-.328-.034-.106-.089-.204-.161-.288L325.6 240c-.138-.172-.336-.283-.555-.311-.218-.028-.438.03-.615.161l-2.11 1.73c-.163.147-.26.353-.271.573-.012.219.064.434.211.597L333.09 256zm8.91-7.39c.071.085.159.155.257.207.099.051.207.082.317.091.111.01.222-.003.328-.037.106-.034.204-.089.288-.161l2.11-1.92c.157-.162.245-.379.245-.605 0-.226-.088-.443-.245-.605L334 232.77c-.068-.084-.153-.153-.249-.204-.095-.051-.2-.083-.308-.093-.108-.01-.217.001-.32.033-.104.032-.2.085-.283.154l-2 1.83c-.153.158-.238.37-.238.59 0 .22.085.432.238.59L342 248.61zm8.64-7.84c.151.166.362.266.586.279.224.014.445-.062.614-.209l2.11-1.92c.081-.077.145-.169.189-.271.044-.102.067-.213.067-.324 0-.111-.023-.222-.067-.324-.044-.102-.108-.194-.189-.271l-11.77-12.46c-.148-.163-.352-.263-.572-.28-.219-.017-.437.051-.608.19l-2 1.82c-.154.155-.241.366-.241.585 0 .219.087.43.241.585l11.64 12.6zm8.24-7.83c.161.156.376.244.6.244.224 0 .44-.088.6-.244l2-2c.159-.159.248-.375.248-.6 0-.225-.089-.441-.248-.6l-12.14-12.09c-.076-.078-.167-.139-.268-.182-.1-.042-.208-.063-.317-.063-.109 0-.217.021-.317.063-.1.043-.192.104-.268.182l-1.91 1.91c-.153.158-.238.37-.238.59 0 .22.085.432.238.59l12.02 12.2zm13.84-2.94c.164.158.383.246.61.246.228 0 .446-.088.61-.246 0 0 .91-.89 1.74-1.85l1.72-1.9c.148-.173.224-.395.213-.622-.012-.227-.109-.441-.273-.598l-18.25-16.84c-.076-.076-.166-.137-.266-.178-.099-.041-.206-.062-.314-.062-.108 0-.214.021-.314.062-.099.041-.19.102-.266.178l-1.58 1.76c-.78.9-1.62 1.73-1.62 1.73-.073.079-.13.171-.167.272-.037.101-.053.208-.047.316.006.107.033.212.08.309.047.096.113.182.194.253L372.72 230zm3.76-15.57c.169.152.391.23.618.219.226-.011.439-.111.592-.279l1.91-2.12c.074-.083.131-.18.166-.286.036-.105.05-.217.042-.328-.009-.111-.04-.219-.091-.318s-.121-.187-.207-.258l-12.95-11.21c-.161-.151-.374-.235-.595-.235-.221 0-.434.084-.595.235l-1.81 2c-.138.171-.204.389-.183.607.02.219.126.421.293.563l12.81 11.41zm-4.08-22.98l-1.71 2.11c-.129.179-.183.401-.152.619.032.219.148.416.322.551l8.85 7.35c-.64-2.74-1.29-5.17-1.9-7.26l-4.25-3.44c-.08-.072-.175-.127-.277-.162-.102-.036-.21-.05-.317-.044-.108.007-.214.034-.311.082-.097.047-.183.113-.255.194zM39.0002 237.33l-2.36-1.44c-.1938-.108-.4224-.135-.636-.075-.2136.06-.3948.202-.504.395l-3.31 5.44c0 2.48.15 5.24.3 8.2l6.77-11.37c.1163-.187.1543-.413.1056-.628-.0486-.215-.18-.403-.3656-.522zm-.14 29.55l12-21.71c.0574-.093.0954-.197.1119-.306.0165-.108.0111-.219-.016-.325-.027-.107-.0751-.206-.1414-.294-.0663-.087-.1494-.16-.2445-.215l-4.2-2.38c-.0958-.053-.2011-.086-.3098-.098-.1088-.012-.2188-.003-.3238.028-.1051.031-.203.082-.2882.15-.0851.069-.1559.154-.2082.25l-11.7 20.46c.1.88.21 1.75.33 2.62l3.82 2.17c.2019.107.4378.13.6567.065.2189-.066.4033-.215.5133-.415zm14.5-8.99l2.64 2.11 5-9.48c.0532-.095.0872-.2.0999-.308.0128-.109.004-.218-.0257-.323-.0297-.105-.0798-.203-.1475-.289-.0676-.085-.1515-.157-.2467-.21l-2.47-1.28c-.097-.05-.2029-.079-.3115-.088-.1086-.008-.2178.006-.3211.04-.1034.035-.1988.089-.2808.161-.0819.072-.1488.159-.1966.257l-5.55 10.37.72-.92c.1441-.141.3356-.224.5372-.231.2016-.007.3987.061.5528.191zm-1.52 8.23c.2049.099.4403.115.6566.044.2163-.071.3967-.223.5034-.424l1-1.86-3.27-2.6c-.127-.121-.2201-.272-.27-.44l-1.46 2.78c-.1078.201-.1326.436-.069.654.0635.219.2104.404.409.516l2.5 1.33zm19.16-10.47c.1025-.196.1232-.425.0576-.637-.0655-.212-.212-.389-.4076-.493l-2.49-1.23c-.199-.092-.4264-.102-.6325-.027-.2061.075-.3742.229-.4675.427l-5.49 10.89 3.58 2.93 5.85-11.86zm-11.7 13.35c-.1061.199-.1288.432-.0632.647.0656.216.2143.397.4132.503l2.59 1.28c.1698.081.3624.1.5449.055.1824-.046.3433-.154.4551-.305l-3.57-2.83-.37.65zm10.98 6.31l2.6 1.23c.2086.088.4433.091.6543.009.211-.082.3816-.243.4757-.449l7.21-15.54c.0971-.199.1117-.428.0405-.638-.0712-.21-.2223-.383-.4205-.482l-2.51-1.17c-.0992-.045-.2063-.071-.3152-.075-.1089-.004-.2176.014-.3197.052-.1022.038-.1958.096-.2756.17-.0798.075-.1442.164-.1895.263l-7.35 15.48c-.0494.102-.0782.212-.0848.325-.0066.113.0091.226.0462.333.0372.107.095.205.1703.29.0753.084.1664.153.2683.202zm10.45 4.78l2.62 1.19c.1029.044.2136.067.3255.068.112 0 .2229-.022.3263-.064.1034-.043.1972-.106.2759-.186.0787-.08.1407-.174.1823-.278l6.85-15.7c.0926-.2.1025-.429.0277-.637-.0749-.208-.2285-.378-.4277-.473l-2.53-1.15c-.1011-.041-.2093-.061-.3183-.06-.109.001-.2167.024-.317.066-.1003.043-.1912.105-.2675.183s-.1365.17-.1772.271l-7 15.63c-.0482.103-.0753.214-.0798.328-.0044.113.014.227.0541.333.0401.106.1011.203.1793.286.0783.082.1723.148.2764.193zm7.9 11.77l4.71 2c.1041.045.2162.069.3298.07.1135.001.226-.022.3307-.066.1047-.043.1993-.108.2783-.19.079-.081.1406-.178.1812-.284l9.2698-23c.089-.203.094-.433.016-.64-.078-.208-.235-.376-.436-.47l-4.4698-1.87c-.207-.078-.4365-.072-.6387.018-.2022.09-.3608.256-.4413.462l-9.58 22.9c-.0722.202-.066.424.0172.622.0833.198.2377.358.4328.448zm15.9398-1.93l2.68 1.05c.213.075.446.065.651-.028.205-.093.366-.262.449-.472l6-16c.084-.207.084-.439 0-.646-.084-.207-.245-.374-.45-.464l-2.59-1c-.103-.038-.212-.054-.322-.049-.109.005-.217.032-.316.08-.098.048-.187.114-.259.197-.073.082-.128.178-.163.282l-6.17 16c-.071.204-.06.428.032.625.091.196.256.348.458.425zM115.5 294l2.72.95c.105.037.217.053.328.047.111-.007.22-.035.32-.085.1-.049.188-.118.261-.203.073-.085.127-.183.161-.289l5.71-16.17c.073-.21.063-.44-.028-.642-.091-.203-.256-.363-.462-.448l-2.61-.92c-.204-.052-.42-.025-.605.075s-.326.266-.395.465L115 292.9c-.04.105-.059.217-.055.329.003.113.029.223.076.325.046.103.113.195.195.271.082.077.179.136.284.175zm11.16 3.86l2.74.87c.216.066.45.044.65-.061.2-.104.351-.284.42-.499l5.26-16.3c.038-.104.055-.214.05-.324-.005-.11-.033-.218-.08-.318-.048-.1-.114-.189-.197-.262-.082-.074-.178-.13-.283-.166l-2.63-.84c-.216-.059-.447-.032-.643.077-.196.108-.342.289-.407.503l-5.41 16.24c-.039.106-.056.218-.05.33.005.113.034.223.083.324.05.101.12.191.205.264.085.073.185.128.292.162zm10.95 3.48l2.75.86c.22.056.453.025.651-.087.197-.112.344-.296.409-.513l4.88-16.42c.036-.104.051-.213.043-.323-.007-.109-.037-.216-.086-.314-.049-.098-.118-.185-.202-.256-.083-.071-.18-.124-.285-.157l-2.65-.81c-.104-.029-.212-.036-.319-.022-.106.013-.209.048-.303.102-.093.054-.174.126-.239.212s-.112.184-.139.288l-5 16.36c-.072.209-.062.437.029.638s.256.359.461.442zm9.28 10.71l4.92 1.39c.108.03.22.039.332.026.111-.013.218-.048.316-.103.097-.055.183-.128.252-.216s.12-.189.15-.297l6.4-24c.063-.213.039-.443-.065-.639-.105-.197-.283-.344-.495-.411l-4.64-1.32c-.213-.049-.437-.012-.624.102-.186.114-.321.296-.376.508L146.3 311c-.059.217-.03.449.081.646.11.196.293.341.509.404zm15.58-3.85l2.81.7c.218.048.445.007.633-.113.187-.12.319-.31.367-.527l4-16.64c.05-.209.017-.43-.09-.616-.108-.186-.284-.323-.49-.384l-2.69-.66c-.107-.027-.218-.031-.327-.014-.109.018-.214.057-.307.116-.093.059-.174.136-.237.227-.063.09-.106.193-.129.301l-4.17 16.62c-.047.215-.008.44.11.625.118.186.305.317.52.365zm11.35 2.73l2.82.6c.223.041.453-.007.64-.135.187-.127.317-.323.36-.545l3.63-16.73c.051-.213.016-.439-.098-.626-.115-.187-.299-.322-.512-.374l-2.71-.58c-.11-.023-.223-.024-.333-.003-.11.021-.215.065-.308.127s-.173.143-.235.237c-.061.093-.104.199-.124.309l-3.8 16.71c-.023.11-.024.224-.003.335.021.111.064.216.127.31.062.094.142.175.236.238.094.062.199.106.31.127zm17.96-15.47l-2.71-.58c-.11-.023-.224-.024-.335-.002-.111.022-.216.066-.309.13-.094.063-.173.145-.234.24-.061.094-.103.201-.122.312l-2.7 13.37c1.66-.63 3.32-1.28 5-1.93l2-10.56c.049-.208.014-.427-.096-.61s-.287-.316-.494-.37z" fill="#fff"/>
  <path d="M184.72 312.35c-.042.218.002.445.124.631.121.186.309.319.526.369l2.82.6c.112.02.226.018.337-.006.111-.025.216-.071.309-.136.093-.065.172-.148.233-.244.06-.095.102-.202.121-.314l1.2-6.27c-1.66.65-3.32 1.3-5 1.93l-.67 3.44zm18.6-14c.042-.22-.004-.447-.127-.634s-.314-.318-.533-.366l-2.73-.48c-.112-.02-.228-.017-.339.007-.111.025-.217.072-.31.138-.093.067-.172.15-.232.247-.06.097-.101.205-.119.318l-1.14 6.47 4.86-2 .67-3.7zm-2.16 12.91l1.54-9.2-4.86 2-1.84 10.4c-.023.11-.024.223-.003.333.021.11.065.215.127.308.062.094.143.173.237.235s.199.104.309.124l2.85.5c.112.022.227.02.338-.003.112-.024.217-.07.31-.135.093-.066.173-.149.233-.245.061-.097.101-.205.119-.317l.62-3.77c-.005-.077.002-.155.02-.23z" fill="#fff"/>
  <path d="M201.11 311.48v-.22c-.01.073-.01.147 0 .22zM212 306.6l4-1.63.64-4.6c.022-.111.021-.225-.002-.336-.023-.111-.068-.216-.133-.309-.064-.093-.146-.173-.242-.234-.095-.06-.201-.102-.313-.121l-4.79-.64c-.22-.025-.441.037-.615.174-.174.136-.287.336-.315.556l-2.6 17 3.61 9.05 1 .14c.114.02.231.017.343-.01.113-.026.219-.074.312-.143.093-.068.172-.154.231-.253.06-.099.098-.209.114-.324l1.38-10-3-7.3c-.07-.187-.07-.394-.001-.581.07-.187.205-.343.381-.439zm-5.52 17.45c-.023.113-.022.23.002.343.025.114.072.22.14.314.067.094.154.173.253.232.1.059.21.097.325.111l4 .55-3.61-9.05-1.11 7.5z" fill="#fff"/>
  <path d="M212 306.6c-.1.045-.191.11-.266.191-.075.08-.133.175-.171.278-.039.103-.056.213-.051.323.005.11.031.218.078.318l3 7.3L216 305l-4 1.6zm12.21-5.27l1.39-.62-1.14-.14c-.11-.011-.221 0-.326.032-.106.033-.204.086-.288.157-.085.071-.155.158-.206.256-.05.098-.081.205-.09.315l-1.73 14 1.77 4.13 1.46.18c.226.017.45-.055.624-.201.173-.146.283-.353.306-.579l1-9.21-3.2-7.21c-.045-.101-.069-.21-.072-.321-.003-.11.017-.22.057-.323.04-.103.1-.198.176-.278.076-.08.168-.144.269-.188zm-2.75 16.99c-.018.114-.014.23.013.342.027.112.075.218.143.311.068.093.154.171.252.231.099.059.208.099.322.116l1.4.17-1.77-4.13-.36 2.96z" fill="#fff"/>
  <path d="M227.21 300.91l-1.61-.2-1.39.62c-.195.099-.345.27-.416.478-.071.207-.058.434.036.632l3.2 7.21.89-7.81c.017-.108.012-.218-.015-.324-.027-.106-.075-.206-.141-.293-.067-.086-.15-.159-.245-.213-.095-.054-.2-.088-.309-.1zm8.41.83c-.109-.008-.218.005-.322.04-.104.034-.2.088-.283.16-.083.072-.15.159-.199.257-.049.097-.078.204-.086.313l-1.08 11 1.26 2.78c.047.1.074.209.079.32.005.111-.012.221-.051.325-.038.105-.096.2-.171.282-.075.081-.166.147-.267.193l-1.3.58-.16 1.58c-.014.111-.005.224.025.332.031.108.082.208.152.296.07.088.157.16.255.214.099.054.207.087.318.098l2.87.29c.111.01.223-.003.33-.037.106-.035.204-.09.289-.162.085-.073.154-.162.204-.261.05-.1.08-.209.087-.32l1.1-12.19-2.86-6.05-.19-.04z" fill="#fff"/>
  <path d="M234.91 316.27l-1.26-2.78-.45 4.51 1.3-.58c.105-.046.199-.113.277-.197.078-.083.138-.182.176-.29.038-.107.054-.222.047-.336-.007-.114-.038-.225-.09-.327zm3.46-14.27l-2.56-.25 2.86 6.05.43-4.86c.014-.11.006-.221-.023-.328-.029-.106-.079-.206-.147-.294-.067-.087-.152-.16-.248-.215-.096-.054-.202-.089-.312-.103zm8.56.74c-.11-.004-.22.014-.324.052-.103.039-.198.097-.279.173-.081.075-.146.165-.192.266-.045.1-.071.209-.075.319l-1.28 17.08c-.009.112.003.224.037.331.034.107.089.206.162.291.072.086.161.156.261.207.1.051.208.082.32.091l2.87.16c.112.007.224-.009.329-.045.106-.037.204-.094.287-.168.084-.074.152-.165.201-.265.048-.101.077-.21.083-.322l1-15.47-1.29-2.57-2.11-.13z" fill="#fff"/>
  <path d="M249.7 302.9h-.65l1.29 2.57.1-1.63c.017-.111.011-.224-.018-.332-.028-.109-.079-.21-.148-.298-.07-.088-.156-.161-.255-.215-.099-.053-.207-.085-.319-.095zm11.02.65l-2.76-.16c-.11-.003-.219.017-.321.056-.103.04-.196.1-.275.176-.079.077-.142.168-.186.269-.044.101-.067.209-.068.319l-.87 17.1c-.008.112.006.224.041.33.036.106.092.205.165.289.073.085.163.154.263.204.1.05.209.079.321.087l2.88.17c.111.005.221-.011.325-.05.104-.038.2-.096.281-.172.081-.075.146-.166.191-.267.046-.101.071-.21.073-.321l.72-17.12c.014-.223-.06-.443-.205-.613-.146-.17-.352-.277-.575-.297zm13.45.34l-4.84-.09c-.222.003-.434.092-.591.249-.157.157-.246.369-.249.591l-.67 24.83c-.003.226.084.445.241.608.158.162.373.257.599.262l5.1.1c.113.003.226-.017.331-.059.106-.041.202-.104.283-.183.081-.079.146-.174.19-.278.043-.104.066-.217.066-.33l.34-24.82c.008-.222-.071-.439-.22-.603-.15-.165-.358-.264-.58-.277zm11.36.11l-2.77.07c-.222.01-.431.107-.582.27-.152.162-.233.378-.228.6L282 322c-.001.11.02.22.061.322.042.102.104.194.183.272.078.077.171.138.274.179.102.04.212.06.322.057l2.88-.06c.112-.001.223-.025.326-.07.102-.044.195-.109.272-.19.078-.081.138-.177.178-.282.04-.104.058-.216.054-.328l-.18-17.13c-.015-.211-.111-.409-.267-.552-.156-.143-.361-.221-.573-.218zm11.23-.29l-2.78.06c-.219.015-.424.116-.57.281-.145.164-.221.379-.21.599l.42 17.13c.005.225.098.438.259.595.161.157.376.245.601.245l2.88-.07c.111-.003.221-.027.322-.072.102-.046.194-.111.27-.192.076-.081.136-.176.175-.28.039-.104.057-.215.053-.326l-.59-17.12c0-.222-.087-.435-.242-.594-.155-.159-.366-.251-.588-.256zm8.64 17.67c.004.112.03.222.077.324.047.102.114.193.197.269.083.075.18.133.286.171.106.037.218.053.33.046l2.87-.18c.225-.018.433-.123.581-.294.148-.17.223-.391.209-.616l-.15-2.62c-1.42.94-2.94 1.87-4.41 2.81l.01.09z" fill="#fff"/>
  <path d="M308.1 303.19l-2.77.17c-.22.023-.423.131-.565.301-.142.17-.212.388-.195.609l.82 17c1.47-.94 3-1.87 4.41-2.81L309 304c-.005-.113-.032-.223-.081-.325-.048-.102-.116-.193-.199-.268-.084-.076-.182-.134-.288-.171-.107-.037-.219-.053-.332-.046zm8.76 17.47c.013.225.113.435.28.587.166.151.385.231.61.223l2.88-.18c.111-.009.218-.039.317-.09.098-.051.186-.12.257-.205.072-.084.126-.182.16-.288.033-.105.046-.217.036-.327l-.77-9.37c-1.38 1-2.81 2-4.26 3l.49 6.65z" fill="#fff"/>
  <path d="M319.13 302.49l-2.76.18c-.219.023-.421.131-.562.301-.14.171-.208.389-.188.609l.75 10.43c1.45-1 2.88-2 4.26-3l-.63-7.71c-.013-.221-.11-.429-.273-.58-.162-.15-.376-.233-.597-.23zm10.21 24.86c.011.112.045.22.098.319.053.099.126.187.213.257.088.071.188.124.296.155.108.032.221.041.333.029l5.07-.53c.112-.012.221-.047.32-.101.099-.055.186-.128.257-.217.07-.088.123-.189.154-.298.032-.108.042-.222.029-.334L333.43 302c-.029-.148-.102-.285-.21-.39-1.91 1.51-3.87 3-5.9 4.57l2.02 21.17zm3.19-26.17l-4.82.5c-.221.032-.421.15-.558.327-.136.177-.198.401-.172.623l.34 3.5c2-1.54 4-3.06 5.9-4.57-.069-.12-.17-.219-.292-.286-.122-.067-.259-.1-.398-.094zm11.31-1.27l-2.76.36c-.215.034-.409.152-.538.328-.129.176-.184.396-.152.612l2.09 17c.028.224.141.428.316.57.176.142.399.21.624.19l2.86-.38c.114-.017.223-.056.321-.116.098-.06.183-.139.25-.232s.115-.199.14-.311c.026-.112.029-.228.009-.341l-2.25-17c-.032-.21-.146-.399-.316-.526s-.383-.183-.594-.154zm11.16-1.65l-2.75.4c-.111.02-.216.063-.31.124-.095.061-.176.141-.239.234-.063.093-.107.198-.13.308-.022.11-.023.224-.001.334l2.43 16.92c.032.221.15.421.327.558.177.136.401.198.623.172l2.86-.42c.112-.019.218-.06.313-.121.096-.061.178-.141.242-.234.065-.093.11-.198.133-.309.023-.111.024-.225.002-.336L355.88 299c-.025-.212-.13-.407-.294-.544-.163-.138-.373-.208-.586-.196zm11.71 17.29c0-.06.32-.7.78-1.83l-.78 1.83z" fill="#fff"/>
  <path d="M369.27 309.11l-2.14-12c-.017-.108-.055-.211-.112-.304s-.132-.174-.22-.238-.188-.11-.294-.135c-.106-.026-.216-.03-.324-.013l-2.73.53c-.22.046-.412.177-.536.364-.124.187-.168.416-.124.636l2.87 16.89c.017.113.056.222.116.32.06.097.139.182.233.248.093.066.199.113.311.138.112.024.228.025.34.004h.08l.78-1.83c.41-1.07 1.01-2.6 1.75-4.61z" fill="#fff"/>
  <path d="M367.49 313.72c.62-1.47 1.22-3 1.8-4.46v-.15c-.76 2.01-1.36 3.54-1.8 4.61zm6.2-17.84v.05c.07-.25.12-.49.18-.75-.078.097-.135.21-.166.33-.031.121-.036.247-.014.37zM27.8002 417.06l-16.63 4.12c-.1088.021-.2121.064-.3035.127-.0915.062-.1691.143-.2282.237-.059.093-.0982.198-.1151.308-.017.109-.0112.221.0168.328l.7 2.7c.0647.203.204.373.3896.477.1856.104.4037.134.6104.083l16.52-4.5c.2083-.046.3909-.17.5101-.347.1192-.177.1657-.393.1299-.603l-.6301-2.41c-.0702-.19-.2077-.348-.3864-.444-.1787-.096-.3863-.123-.5835-.076zm5.2-13.2l-24.49005 4.08c-.21997.032-.41821.15-.5513.328-.13308.178-.19015.402-.1587.622l.86 4.81c.05021.216.18291.404.36975.524.18683.119.41302.161.63025.116l24.33005-5c.2068-.025.3963-.128.53-.288.1337-.159.2016-.364.19-.572l-.73-4.09c-.0625-.198-.1997-.365-.3826-.464-.183-.099-.3973-.122-.5974-.066zm-7.81-5.81l-.23-2.5c-.039-.206-.1572-.388-.3293-.508-.172-.12-.3841-.167-.5907-.132l-17.04005 1.7c-.11041.008-.21823.037-.31726.086-.09903.05-.18732.118-.25981.202-.07248.084-.12772.181-.16254.286-.03483.105-.04855.216-.04039.326l.26 2.79c.0108.109.04395.215.0974.311.05344.096.12604.18.21327.246.08723.067.18722.115.29377.141.10655.026.21737.03.32556.012l17.00005-2.13c.2096-.017.4055-.112.5495-.265.1441-.153.2262-.355.2305-.565zm-1.71-9.3c.1036.003.2067-.016.3031-.054.0964-.038.1841-.095.2579-.168.0738-.073.1321-.16.1714-.256.0394-.095.0589-.198.0575-.302 0 0-.1999-2.48-.1299-2.48-.0073-.104-.0358-.205-.0837-.297-.0478-.092-.1141-.174-.1947-.239-.0806-.066-.1738-.114-.2739-.142-.1-.029-.2048-.036-.3077-.022l-17.12005.56c-.2258.005-.44131.095-.60285.253-.16155.158-.25705.371-.26715.597-.06 0 .16 2.8.16 2.8.02762.221.14002.423.31351.563.17348.14.39451.207.61649.187l17.10005-1zM6.19015 378.33l17.13005.14c.1051.01.2111-.002.3118-.033.1008-.032.1943-.083.2752-.151.0808-.068.1475-.151.196-.245.0486-.093.0782-.196.087-.301v-2.49c-.0155-.214-.1141-.413-.2749-.556-.1608-.142-.3709-.215-.5851-.204l-17.12005-.59c-.10903-.005-.21804.011-.32081.048-.10276.036-.19726.093-.27807.167-.08081.073-.14636.161-.19288.26-.04652.099-.07311.206-.07824.315v2.81c.00523.222.09708.433.25592.588.15885.155.37207.242.59408.242zm.39-11.13l17.09005 1.27c.2092.025.4202-.029.5921-.151.1718-.122.2922-.303.3379-.509l.27-2.49c.0026-.104-.0152-.207-.0525-.304-.0372-.097-.0932-.185-.1647-.261-.0715-.075-.1571-.135-.252-.177-.0949-.042-.1971-.065-.3008-.068l-17.00005-1.7c-.22219-.026-.44567.036-.62303.172-.17736.137-.29464.337-.32697.558l-.29 2.79c-.01101.105-.00103.21.02938.311.0304.101.0806.194.14767.275.06706.081.14963.148.24287.197.09324.049.19526.078.30008.087zm1.24-11.39l24.58005 3.5c.0991.024.202.027.3027.011.1006-.016.197-.053.2835-.107.0865-.054.1614-.124.2205-.207.059-.083.1009-.178.1233-.277 0 0 .11-1 .21-2.05.1-1.05.43-2 .43-2 .0124-.1.0045-.201-.0233-.297-.0278-.097-.075-.186-.1386-.264-.0636-.078-.1423-.142-.2314-.188-.0891-.046-.1866-.074-.2867-.081L8.86015 349.4c-.21623-.035-.4378.011-.62231.129-.18451.118-.31898.3-.37769.511l-.5 2.4c-.13 1.22-.27 2.43-.27 2.43-.01812.22.04682.438.18199.612s.33073.291.54801.328zm2.54005-13.27l16.72 3.74c.2028.057.4199.034.606-.065.1862-.099.3273-.265.394-.465l.53-2.44c.0291-.21-.0245-.424-.1495-.595-.1249-.172-.3115-.288-.5205-.325l-16.63-4.16c-.1045-.027-.2132-.033-.32-.018-.1068.015-.2096.051-.3025.106-.0928.054-.174.127-.2388.213-.0648.086-.1119.185-.1387.289l-.61005 2.74c-.04119.217.00501.442.12858.626.12357.183.31457.31.53147.354zm2.64-10.95l16.4499 4.8c.2011.069.4207.062.6165-.021.1958-.084.3538-.236.4436-.429l.81-2.36c.0315-.104.0413-.213.0289-.321-.0125-.107-.047-.211-.1014-.305-.0544-.094-.1276-.176-.2149-.24-.0873-.064-.1869-.11-.2926-.134l-16.33-5.18c-.2097-.075-.4402-.064-.6422.029-.2019.094-.3591.263-.4378.471l-.9 2.64c-.04.106-.0566.219-.0489.333.0078.113.0398.223.0939.322.0541.1.1289.187.2195.255.0906.068.1948.116.3055.14zm21.1-8.73l-16-6.2c-.1003-.042-.208-.063-.3166-.063-.1087.001-.2162.023-.316.066-.0998.043-.19.106-.2652.184-.0751.079-.1337.171-.1722.273l-.9001 2.64c-.0357.105-.05.216-.042.327.0079.11.038.218.0883.317.0503.099.12.187.2048.258.0848.071.183.125.289.158l16.11 5.81c.1861.075.3939.075.5801 0 .1862-.074.3366-.218.4199-.4l.8099-2.37c.0524-.198.0316-.408-.0584-.591-.09-.184-.2432-.329-.4315-.409zm4.04-9.2l-15.59-7.09c-.1994-.098-.4293-.115-.6405-.045-.2112.069-.387.218-.4895.415l-1.18 2.51c-.0441.1-.0677.207-.0693.316-.0016.109.0187.217.0598.317.0411.101.102.193.1793.27.0772.076.1691.137.2702.177l15.74 6.75c.192.098.4143.118.6209.057.2066-.062.3817-.2.4891-.387l1.08-2.26c.0717-.199.0626-.418-.0252-.611-.0878-.192-.2475-.343-.4448-.419zm-10.93-18.86l-2.09 4.36c-.0891.205-.095.436-.0167.645.0784.209.235.379.4367.475l21.15 10.56-3.08-8.11-15.29-8.26c-.094-.054-.1979-.088-.3054-.1-.1076-.013-.2165-.004-.3203.027-.1038.031-.2002.083-.2835.152-.0832.069-.1516.155-.2008.251zm11.32-7.29l-4.37-2.66c-.1866-.119-.4121-.16-.6287-.115-.2166.044-.4072.172-.5313.355l-1.44 2.34c-.0559.094-.0919.198-.106.306-.0141.108-.0059.218.0241.323.03.105.0811.203.1502.287.0691.085.1547.154.2516.204l8.6501 4.88c-.74-1.93-1.39-3.91-2-5.92zm11.9899-27.39c-.0706.104-.1156.224-.1313.349-.0156.125-.0015.252.0414.371l1-1.95-.9101 1.23zm3.4801 3.76l2-3.84-2.6201-2.15c-.0806-.072-.175-.128-.2776-.163-.1025-.036-.2111-.05-.3193-.042-.1082.007-.2137.036-.3105.085-.0967.049-.1826.117-.2525.2l-.72.92-1 1.95c.0499.168.143.319.2699.44l3.2301 2.6zm9.19 7.29c.06-.06.15-.08.18-.16l1.73-3.5-3.5801-2.93-1.8999 3.76 3.57 2.83zm319.0598-12.1l-1.06-.64-.09-.06c-.24 1.9-.5 3.78-.77 5.6l2-3.91c.094-.152.137-.33.122-.508-.014-.178-.085-.347-.202-.482zm5.47 2.35c-.34-.1-.71.17-.87.61l-6 16.05c-.045.098-.07.204-.072.312-.002.108.018.215.06.314.041.1.103.19.18.265.078.074.171.132.272.169l2.57.77c.211.052.434.019.62-.091.187-.11.324-.289.38-.499l5.25-16.3c.14-.46 0-.9-.34-1l-2.05-.6zm10.6 2.86l-2.24-.4c-.2-.012-.397.053-.551.181-.154.128-.254.31-.279.509l-4.11 16.63c-.033.101-.046.208-.037.314.01.106.04.209.091.303.051.093.12.176.203.242.084.066.18.114.283.141l2.57.49c.218.023.436-.037.611-.169.174-.132.292-.325.329-.541l3.6-16.74c.033-.094.047-.193.041-.293-.006-.099-.031-.196-.075-.285-.044-.09-.105-.169-.179-.235-.075-.066-.162-.115-.257-.147zm9.17 1.72l-2.24-.43c-.36-.07-.71.26-.8.73l-2.82 16.89c-.027.106-.032.216-.016.324.017.107.054.211.111.304s.132.174.22.238c.089.064.189.109.295.134l2.58.49c.106.011.212.001.313-.03.102-.031.196-.082.277-.151.081-.068.148-.151.196-.246.048-.094.077-.197.084-.303L408 267c.053-.2.031-.413-.063-.598-.094-.184-.253-.328-.447-.402zm9.31.88l-2.34-.21c-.38 0-.72.32-.78.8l-1.81 17c-.018.103-.016.209.006.311.023.103.066.2.126.285.061.086.138.159.227.214.089.056.188.093.291.11l2.58.23c.107.003.212-.016.312-.054.099-.038.19-.096.267-.169.077-.073.139-.161.182-.259.043-.097.067-.202.069-.308l1.49-17.06c.025-.199-.024-.4-.139-.564-.114-.164-.286-.281-.481-.326zm11.45.75s-4.2 0-4.17-.1c-.101.004-.199.028-.291.07-.091.043-.173.103-.241.177-.068.075-.121.162-.155.257s-.048.195-.043.296L422 293.12c-.022.221.042.442.181.616.138.174.339.286.559.314 0 .12 4.61.12 4.61.12.218-.015.421-.112.57-.272.148-.16.231-.37.23-.588l.8-24.82c.014-.103.007-.208-.021-.308-.029-.1-.077-.193-.143-.274-.065-.08-.147-.147-.239-.194-.092-.048-.193-.077-.297-.084z" fill="#fff"/>
  <path d="M497.35 79.76V147h83.89v10.35h-83.89v69.5h-11.47V69.42h105.26v10.34h-93.79zM627.8 69.42h11.47v157.44H627.8V69.42zm96.48 10.34H667.6V69.42h124.83v10.34h-56.68v147.1h-11.47V79.76zM949 69.42v157.44h-9.45L832.24 90.11v136.75h-11.47V69.42h9.67L937.5 206.16V69.42H949zm163.48 147.09v10.35h-108.63V69.42h105.26v10.34h-93.79v62.08h83.89V152h-83.89v64.55l97.16-.04zm50.26 5.49c-10.42-4-18.55-9.137-24.4-15.41l5.17-8.54c5.55 5.84 13.01 10.6 22.38 14.28 9.43 3.682 19.46 5.551 29.58 5.51 14.99 0 26.32-2.85 34-8.55 7.68-5.7 11.5-13.12 11.47-22.26 0-7.053-2.02-12.677-6.07-16.87-4.23-4.317-9.38-7.622-15.07-9.67-7.95-2.829-16.06-5.167-24.29-7-9.42-2.205-18.7-4.987-27.78-8.33-6.86-2.627-12.97-6.915-17.77-12.48-4.87-5.62-7.31-13.153-7.31-22.6-.05-7.441 2.06-14.7365 6.08-21 4.04-6.38 10.22-11.4433 18.55-15.19 8.33-3.7467 18.71-5.62 31.15-5.62 8.69.0021 17.33 1.2893 25.64 3.82 7.78 2.2598 15.15 5.7543 21.82 10.35l-4.27 9.22c-6.37-4.3786-13.39-7.717-20.81-9.89-7.26-2.2016-14.8-3.3369-22.38-3.37-14.54 0-25.56 2.9233-33.06 8.77-7.5 5.8467-11.25 13.417-11.24 22.71 0 7.047 2.02 12.67 6.07 16.87 4.23 4.317 9.38 7.622 15.07 9.67 8.03 2.855 16.21 5.259 24.51 7.2 9.39 2.19 18.63 4.969 27.67 8.32 6.78 2.621 12.83 6.824 17.65 12.26 4.87 5.473 7.31 12.857 7.31 22.15.06 7.432-2.09 14.715-6.18 20.92-4.13 6.3-10.47 11.323-19 15.07s-19.05 5.633-31.54 5.66c-11.26.039-22.43-1.995-32.95-6zm136.98 0c-10.42-4-18.55-9.137-24.4-15.41l5.17-8.54c5.54 5.84 13 10.6 22.37 14.28 9.43 3.681 19.46 5.551 29.58 5.51 14.99 0 26.33-2.85 34-8.55 7.67-5.7 11.5-13.12 11.48-22.26 0-7.053-2.03-12.677-6.08-16.87-4.23-4.317-9.38-7.622-15.07-9.67-7.94-2.831-16.06-5.168-24.29-7-9.42-2.207-18.7-4.989-27.78-8.33-6.86-2.624-12.97-6.913-17.76-12.48-4.88-5.62-7.32-13.153-7.31-22.6-.05-7.44 2.06-14.7357 6.07-21 4.05-6.38 10.24-11.4433 18.56-15.19 8.32-3.7467 18.7-5.62 31.15-5.62 8.69.0028 17.33 1.2901 25.64 3.82 7.78 2.2617 15.14 5.7561 21.81 10.35l-4.27 9.22c-6.37-4.3786-13.39-7.717-20.81-9.89-7.25-2.2008-14.79-3.336-22.37-3.37-14.55 0-25.57 2.9233-33.07 8.77s-11.25 13.417-11.24 22.71c0 7.047 2.02 12.67 6.07 16.87 4.23 4.317 9.38 7.622 15.07 9.67 8.03 2.855 16.22 5.259 24.52 7.2 9.39 2.192 18.62 4.97 27.66 8.32 6.76 2.634 12.78 6.844 17.58 12.28 4.88 5.473 7.32 12.857 7.32 22.15.06 7.433-2.09 14.716-6.19 20.92-4.12 6.3-10.45 11.323-19 15.07s-19.03 5.627-31.46 5.64c-11.26.039-22.43-1.995-32.95-6zM485.88 357.38c0-57.68 35.1-90.44 79.94-90.44 23.24 0 39.48 10.67 50.43 22l-21.51 24.16c-7.44-7.4-15.29-12.37-28.92-12.37-22.64 0-39.63 20.82-39.63 55.4 0 35.48 14 56.08 41.2 56.08 6.46 0 13.07-1.8 16.75-5.1v-29.85h-25.07v-31.85h60.06V425c-11.43 10.74-31.88 20.89-54 20.89-44.13.02-79.25-30.3-79.25-88.51zm267.98-87.26h114.42v32.76h-75.35v34.61h64v32.76h-64V410h78v32.75H753.86V270.12zm255.08 0h114.42v32.76H1048v34.61h64v32.76h-64V410h78v32.75h-117.06V270.12zm248.47 0h39.53v70.44h1l50.87-70.44h43.39l-95.24 125.47v47.14h-39.53l-.02-172.61zm56.15 92.49l22.88-30.48 60.56 110.6h-43.32l-40.12-80.12z" fill="#555"/>
</svg>
