<svg width="176" height="50" viewBox="0 0 176 50" fill="none" xmlns="http://www.w3.org/2000/svg">
<path d="M24.0631 29.6729C20.6823 29.6729 17.4637 29.6729 14.1141 29.6729C14.1141 33.3625 14.1141 37.0334 14.1141 40.7623C12.406 40.7623 10.8248 40.7623 9.15833 40.7623C9.15833 30.2837 9.15833 19.7864 9.15833 9.21876C10.7395 9.21876 12.3186 9.21876 14.0413 9.21876C14.0413 12.869 14.0413 16.5358 14.0413 20.2709C17.4221 20.2709 20.6615 20.2709 24.0631 20.2709C24.0631 19.8506 24.0548 19.4531 24.0652 19.0556C24.1255 16.5068 23.957 13.927 24.2982 11.4155C25.1741 4.98672 30.9953 0.0196694 37.5177 0.0155285C70.9078 -0.00517617 104.298 -0.00517617 137.69 0.0155285C144.955 0.0196694 150.997 5.97227 151.174 13.2065C151.226 15.3101 151.174 17.4157 151.222 19.5193C151.228 19.7947 151.538 20.2978 151.715 20.2999C154.825 20.3475 157.938 20.3351 161.148 20.3351C161.148 16.5938 161.148 12.9539 161.148 9.22911C162.848 9.22911 164.452 9.22911 166.126 9.22911C166.126 19.7222 166.126 30.1947 166.126 40.7458C164.529 40.7458 162.92 40.7458 161.225 40.7458C161.225 37.0955 161.225 33.4536 161.225 29.7226C157.871 29.7226 154.605 29.7226 151.197 29.7226C151.197 31.6896 151.249 33.6482 151.178 35.6007C151.128 36.9713 151.07 38.373 150.745 39.6961C149.264 45.7211 143.865 49.978 137.64 49.9821C104.319 50.0049 70.9973 50.007 37.6759 49.9821C30.1382 49.9759 24.0922 43.8743 24.0631 36.3833C24.0548 34.1845 24.0631 31.9836 24.0631 29.6729ZM87.6184 46.3816C104.154 46.3816 120.688 46.3837 137.224 46.3795C143.095 46.3775 147.575 41.9466 147.587 36.1141C147.602 28.6977 147.604 21.2813 147.587 13.8628C147.575 8.09863 143.087 3.59123 137.311 3.58916C104.206 3.57673 71.1034 3.57673 37.9983 3.58916C32.1771 3.59123 27.731 8.0593 27.7289 13.8297C27.7248 21.1778 27.8621 28.5279 27.6852 35.8719C27.55 41.4642 32.1542 46.4623 38.3291 46.4189C54.7547 46.3091 71.1866 46.3816 87.6184 46.3816Z" fill="#120B0C"/>
<path d="M172.903 13.223C172.903 15.6124 172.903 17.9127 172.903 20.333C173.745 20.333 174.49 20.333 175.291 20.333C175.291 23.4739 175.291 26.4906 175.291 29.617C174.509 29.617 173.762 29.617 172.896 29.617C172.896 32.0188 172.896 34.3149 172.896 36.6897C171.174 36.6897 169.568 36.6897 167.905 36.6897C167.905 28.8675 167.905 21.0846 167.905 13.223C169.518 13.223 171.124 13.223 172.903 13.223Z" fill="#120B0C"/>
<path d="M7.31715 36.7104C5.68603 36.7104 4.10692 36.7104 2.42171 36.7104C2.42171 34.3625 2.42171 32.0705 2.42171 29.6791C1.57078 29.6791 0.825962 29.6791 0 29.6791C0 26.5382 0 23.4988 0 20.3475C0.769788 20.3475 1.51461 20.3475 2.37802 20.3475C2.37802 17.9168 2.37802 15.5937 2.37802 13.2086C4.07363 13.2086 5.65274 13.2086 7.31923 13.2086C7.31715 20.9956 7.31715 28.795 7.31715 36.7104Z" fill="#120B0C"/>
<path d="M137.536 11.9973C136.211 13.5626 135.092 14.9498 133.883 16.2583C133.644 16.5171 133.069 16.5482 132.651 16.5482C120.551 16.5627 108.451 16.5606 96.3485 16.5606C94.0079 16.5606 93.5294 17.0265 93.5273 19.3247C93.5252 23.2917 93.5148 27.2608 93.5377 31.2278C93.5481 33.0664 93.8435 33.3397 95.6515 33.3397C107.406 33.3418 119.159 33.3397 130.914 33.3438C132.046 33.3438 133.159 33.1803 133.639 32.0415C134.176 30.7703 134.201 29.3872 133.513 28.1532C133.29 27.7536 132.639 27.5113 132.135 27.3726C131.615 27.2298 131.035 27.2794 130.481 27.2794C119.975 27.2753 109.47 27.2774 98.9637 27.2774C98.5642 27.2774 98.1648 27.2774 97.5219 27.2774C98.8513 25.679 99.9998 24.269 101.192 22.8983C101.356 22.7099 101.741 22.6395 102.026 22.6395C112.013 22.6312 121.997 22.6271 131.983 22.6623C132.905 22.6664 133.85 22.859 134.74 23.1116C136.816 23.7037 138.252 25.0703 138.514 27.2111C138.747 29.1077 138.837 31.085 138.558 32.9649C138.138 35.8036 135.982 37.5117 132.907 37.8927C132.325 37.9651 131.732 37.9713 131.143 37.9713C119.284 37.9755 107.427 37.9755 95.5683 37.9734C95.1168 37.9734 94.6653 37.9734 94.2159 37.9403C90.8018 37.7001 88.8794 35.8098 88.7525 32.3728C88.6464 29.5466 88.7026 26.7163 88.6984 23.8859C88.6964 21.8155 88.6568 19.7429 88.7421 17.6766C88.8836 14.2314 90.7311 12.3617 94.1681 12.0698C94.7194 12.0222 95.2749 11.9952 95.8283 11.9932C109.246 11.989 122.665 11.989 136.082 11.989C136.481 11.9973 136.881 11.9973 137.536 11.9973Z" fill="#120B0C"/>
<path d="M41.3543 27.354C41.3543 30.9276 41.3543 34.3646 41.3543 37.8906C39.7294 37.8906 38.1919 37.8906 36.5296 37.8906C36.5088 37.5863 36.4693 37.2591 36.4693 36.932C36.4651 30.8945 36.4506 24.857 36.4714 18.8195C36.4859 14.5689 38.9742 12.0201 43.2434 12.0098C57.214 11.9766 71.1846 11.9973 85.1553 11.9994C85.3591 11.9994 85.563 12.0242 86.0249 12.0532C84.6892 13.6102 83.495 15.0492 82.228 16.424C82.0387 16.629 81.5081 16.5565 81.1357 16.5565C68.8295 16.5627 56.5233 16.5606 44.2171 16.5627C43.8364 16.5627 43.4536 16.5544 43.0749 16.5896C42.0201 16.6849 41.3939 17.2501 41.3481 18.3019C41.2877 19.6767 41.3335 21.0577 41.3335 22.5816C55.6016 22.5816 69.8157 22.5816 84.3272 22.5816C82.9707 24.2442 81.8306 25.6976 80.6114 27.0828C80.4013 27.3209 79.8604 27.3457 79.4713 27.3457C67.2338 27.3581 54.9983 27.3561 42.7607 27.3561C42.3446 27.354 41.9306 27.354 41.3543 27.354Z" fill="#120B0C"/>
</svg>
