<?xml version="1.0" encoding="utf-8"?>
<!-- Generator: Adobe Illustrator 27.0.0, SVG Export Plug-In . SVG Version: 6.00 Build 0)  -->
<svg version="1.1" id="Layer_1" xmlns="http://www.w3.org/2000/svg" xmlns:xlink="http://www.w3.org/1999/xlink" x="0px" y="0px"
	 viewBox="0 0 160 36" style="enable-background:new 0 0 160 36;" xml:space="preserve">
<style type="text/css">
	.st0{clip-path:url(#SVGID_00000090982922633584695190000001380297123181280136_);}
</style>
<g>
	<defs>
		<rect id="SVGID_1_" width="160" height="36"/>
	</defs>
	<clipPath id="SVGID_00000141413862615377347530000009886550790449417106_">
		<use xlink:href="#SVGID_1_"  style="overflow:visible;"/>
	</clipPath>
	<g style="clip-path:url(#SVGID_00000141413862615377347530000009886550790449417106_);">
		<path d="M62.8,21H52V3.5c0-0.1-0.1-0.2-0.2-0.2h-1c-0.1,0-0.2,0.1-0.2,0.2v18.5c0,0.1,0.1,0.2,0.2,0.2h11.9c0.1,0,0.2-0.1,0.2-0.2
			v-0.9C63,21.1,62.9,21,62.8,21z"/>
		<path d="M100.5,7.4c-2.1,0-4,0.8-5.2,2.2c-1-1.4-2.7-2.2-4.6-2.2c-2,0-3.8,0.6-5.1,1.7V7.9c0-0.1-0.1-0.2-0.2-0.2h-0.9
			c-0.1,0-0.2,0.1-0.2,0.2v14.2c0,0.1,0.1,0.2,0.2,0.2h0.9c0.1,0,0.2-0.1,0.2-0.2V10.6c1.4-1.2,3-1.9,5-1.9c2.8,0,4.5,2,4.5,5.1v8.2
			c0,0.1,0.1,0.2,0.2,0.2h0.9c0.1,0,0.2-0.1,0.2-0.2v-8.2c0-1.2-0.2-2.2-0.6-3.1c1.3-1.3,2.8-2,4.6-2c3.1,0,5,2,5,5.1v8.2
			c0,0.1,0.1,0.2,0.2,0.2h0.9c0.1,0,0.2-0.1,0.2-0.2v-8.2C106.8,9.9,104.3,7.4,100.5,7.4z"/>
		<path d="M111.3,7.7c-0.1,0-0.2,0.1-0.2,0.2v14.2c0,0.1,0.1,0.2,0.2,0.2h1c0.1,0,0.2-0.1,0.2-0.2V7.9c0-0.1-0.1-0.2-0.2-0.2H111.3z
			"/>
		<path d="M111.8,5.1c0.6,0,1-0.4,1-1s-0.4-1-1-1c-0.6,0-1,0.4-1,1S111.2,5.1,111.8,5.1z"/>
		<path d="M123.7,7.4c-4.2,0-7.4,3.2-7.4,7.5c0,4.3,3.2,7.5,7.4,7.5c2.6,0,5-1.1,6.4-2.8c0,0,0.1-0.1,0-0.2c0-0.1,0-0.1-0.1-0.1
			l-0.7-0.6c-0.1-0.1-0.2-0.1-0.3,0c-1.2,1.5-3.1,2.3-5.3,2.3c-3.2,0-5.8-2.4-6.1-5.5h12.8c0.1,0,0.2-0.1,0.2-0.2V15
			C130.7,10.5,127.9,7.4,123.7,7.4z M117.7,14.2c0.3-3.2,2.8-5.5,6-5.5c3.2,0,5.4,2.2,5.7,5.5H117.7z"/>
		<path d="M143,8c-0.8-0.4-1.7-0.6-2.5-0.6c-2,0-3.6,1.1-4.6,2.9V7.9c0-0.1-0.1-0.2-0.2-0.2h-0.9c-0.1,0-0.2,0.1-0.2,0.2v14.2
			c0,0.1,0.1,0.2,0.2,0.2h0.9c0.1,0,0.2-0.1,0.2-0.2v-7.4c0-3.4,1.9-5.8,4.5-5.8c0.8,0,1.5,0.2,2.2,0.5c0.1,0,0.1,0,0.2,0
			c0.1,0,0.1-0.1,0.1-0.1l0.2-0.9C143.2,8.2,143.1,8.1,143,8z"/>
		<path d="M152.6,7.4c-4.2,0-7.4,3.2-7.4,7.5c0,4.3,3.2,7.5,7.4,7.5c2.6,0,5-1.1,6.4-2.8c0,0,0.1-0.1,0-0.2c0-0.1,0-0.1-0.1-0.1
			l-0.7-0.6c-0.1-0.1-0.2-0.1-0.3,0c-1.2,1.5-3.1,2.3-5.3,2.3c-3.2,0-5.8-2.4-6.1-5.5h12.8c0.1,0,0.2-0.1,0.2-0.2V15
			C159.7,10.5,156.9,7.4,152.6,7.4z M146.6,14.2c0.3-3.2,2.8-5.5,6-5.5c3.2,0,5.4,2.2,5.7,5.5H146.6z"/>
		<path d="M74.5,27.7h-2.1v6.5h2.3h0c1.7-0.1,3.1-1.5,3.1-3.2C77.8,29.1,76.3,27.7,74.5,27.7z M73.1,33.6v-5.3h1.4
			c1.4,0,2.6,1.2,2.6,2.6c0,1.4-1.1,2.5-2.5,2.6H73.1z"/>
		<path d="M79.4,31.3h3.2v-0.6h-3.2v-2.4h3.7v-0.6h-4.4v6.5h4.6v-0.6h-3.9V31.3z"/>
		<path d="M89.1,33l-4.3-5.3h-0.4v6.5H85v-5.3l4.3,5.2l0,0.1h0.4v-6.5h-0.6V33z"/>
		<path d="M95.9,27.7h-5.1v0.6H93v5.9h0.6v-5.9h2.3V27.7z"/>
		<path d="M98.3,27.7l-2.9,6.5h0.7l0.8-1.8h3.3l0.8,1.8h0.7l-2.9-6.5H98.3z M97.1,31.8l1.4-3.2l1.4,3.2H97.1z"/>
		<path d="M103,27.7h-0.6v6.5h4.3v-0.6H103V27.7z"/>
		<path d="M113.4,28.3c0.8,0,1.6,0.4,2.1,1l0.1,0.1l0.5-0.4l-0.1-0.1c-0.7-0.8-1.6-1.2-2.6-1.2c-1.9,0-3.4,1.5-3.4,3.3
			c0,1.8,1.5,3.3,3.4,3.3c1,0,2-0.4,2.6-1.2l0.1-0.1l-0.5-0.4l-0.1,0.1c-0.5,0.6-1.3,1-2.1,1c-1.5,0-2.7-1.2-2.7-2.6
			C110.7,29.5,111.9,28.3,113.4,28.3z"/>
		<path d="M117.7,27.7h-0.6v6.5h4.3v-0.6h-3.6V27.7z"/>
		<path d="M122.9,27.7h-0.6v6.5h0.6V27.7z"/>
		<path d="M129,33l-4.3-5.3h-0.4v6.5h0.6v-5.3l4.3,5.3h0.4v-6.5H129V33z"/>
		<path d="M131.6,27.7H131v6.5h0.6V27.7z"/>
		<path d="M136.1,28.3c0.8,0,1.6,0.4,2.1,1l0.1,0.1l0.5-0.4l-0.1-0.1c-0.7-0.8-1.6-1.2-2.6-1.2c-1.9,0-3.4,1.5-3.4,3.3
			c0,1.8,1.5,3.3,3.4,3.3c1,0,2-0.4,2.6-1.2l0.1-0.1l-0.5-0.4l-0.1,0.1c-0.5,0.6-1.3,1-2.1,1c-1.5,0-2.7-1.2-2.7-2.6
			C133.3,29.5,134.6,28.3,136.1,28.3z"/>
		<path d="M123.2,6.2c0,0,0.1,0.1,0.1,0.1h0.9c0.1,0,0.2-0.1,0.2-0.1c0-0.1,0-0.2,0-0.2l-4-4.1c0,0-0.1-0.1-0.2-0.1L119,1.9
			c-0.1,0-0.2,0.1-0.2,0.1c0,0.1,0,0.2,0.1,0.2L123.2,6.2z"/>
		<path d="M78.4,7.5h-1c-0.1,0-0.2,0.1-0.2,0.2v11.6c-1.5,1.3-3.4,1.9-5.6,1.9c-3.1,0-5.2-2.1-5.2-5.3V7.8c0-0.1-0.1-0.2-0.2-0.2
			h-0.9c-0.1,0-0.2,0.1-0.2,0.2V16c0,4,2.5,6.6,6.5,6.6c2.3,0,4.3-0.6,5.7-1.8v1.5c0,0.1,0.1,0.2,0.2,0.2h1c0.1,0,0.2-0.1,0.2-0.2
			V7.7C78.6,7.6,78.5,7.5,78.4,7.5z"/>
		<path d="M38.5,0.9c-1-0.9-2.3-1.1-3.6-0.7L19.9,5.4L4.8,0.3C3.5-0.1,2.2,0.2,1.2,1.1c-1,0.9-1.4,2.2-1.2,3.4l5.8,28.6
			c0.3,1.3,1.2,2.3,2.4,2.7C8.6,35.9,9,36,9.4,36c0.9,0,1.7-0.3,2.4-0.9l8.2-7.2l8.3,7.2c0.7,0.6,1.5,0.9,2.4,0.9
			c0.4,0,0.8-0.1,1.2-0.2c1.2-0.4,2.1-1.5,2.4-2.7l5.5-28.6C40,3,39.5,1.7,38.5,0.9z M38.7,4.1l-5.5,28.6c-0.2,0.9-0.8,1.7-1.7,2
			c-0.9,0.3-1.8,0.1-2.6-0.5l-8.2-7.1l2-1.8c0.2-0.2,0.2-0.5,0-0.7c-0.2-0.2-0.5-0.2-0.7,0l-10.9,9.7c-0.7,0.6-1.7,0.8-2.6,0.5
			c-0.9-0.3-1.5-1-1.7-2L1.1,4.3C0.9,3.4,1.2,2.4,1.9,1.8C2.6,1.2,3.6,1,4.5,1.3l27.7,9.3c0.3,0.1,0.6-0.1,0.6-0.3
			c0.1-0.3-0.1-0.6-0.3-0.6L21.5,5.9l13.8-4.8c0.9-0.3,1.8-0.1,2.6,0.5C38.6,2.3,38.9,3.2,38.7,4.1z"/>
	</g>
</g>
</svg>
