<svg width="439" height="100" viewBox="0 0 439 100" fill="none" xmlns="http://www.w3.org/2000/svg">
<path fill-rule="evenodd" clip-rule="evenodd" d="M135.89 42.71C133.56 42.71 131.68 44.59 131.68 46.91C131.68 48.11 132.19 49.2 133 49.97C128.12 57.25 121.38 64.92 116.48 66.86C116.29 66.94 116.09 66.92 115.91 66.8C115.74 66.69 115.64 66.52 115.63 66.31C115.37 60.88 119.35 48.06 123.55 37.37C123.71 37.39 123.88 37.4 124.05 37.4C126.38 37.4 128.26 35.52 128.26 33.2C128.26 30.88 126.37 29 124.05 29C121.72 29 119.84 30.88 119.84 33.2C119.84 34.53 120.46 35.72 121.43 36.49C116.86 46.76 110.5 58.76 106.07 63.62C105.9 63.8 105.66 63.87 105.42 63.79C105.18 63.71 105.02 63.52 104.99 63.27C104.19 56.34 107.41 40.57 111.08 27.64C113.33 27.55 115.13 25.71 115.13 23.44C115.13 21.12 113.24 19.24 110.92 19.24C108.59 19.24 106.71 21.12 106.71 23.44C106.71 24.84 107.39 26.07 108.44 26.84C104.45 39.07 98.57 53.54 93.93 60.01C93.79 60.21 93.55 60.3 93.31 60.26C93.07 60.22 92.88 60.04 92.82 59.81C90.61 51.24 91.01 32.41 92.49 17.01C94.25 16.5 95.53 14.89 95.53 12.97C95.53 10.65 93.64 8.77 91.32 8.77C88.99 8.77 87.11 10.65 87.11 12.97C87.11 14.55 87.99 15.93 89.28 16.65C87.29 32.04 83.45 50.75 79.33 58.89C79.22 59.11 79 59.24 78.75 59.23C78.5 59.22 78.29 59.07 78.2 58.84C74.36 49.26 72.31 26.4 72.05 7.97C73.45 7.29 74.41 5.85 74.41 4.2C74.41 1.88 72.52 0 70.2 0C70.15 0 70.1 0 70.05 0C70 0 69.95 0 69.9 0C67.57 0 65.69 1.88 65.69 4.2C65.69 5.86 66.65 7.29 68.05 7.97C67.8 26.4 65.74 49.26 61.9 58.84C61.81 59.07 61.6 59.22 61.35 59.23C61.1 59.24 60.88 59.11 60.77 58.89C56.65 50.74 52.81 32.04 50.82 16.65C52.12 15.93 52.99 14.56 52.99 12.97C52.99 10.65 51.1 8.77 48.78 8.77C46.45 8.77 44.57 10.65 44.57 12.97C44.57 14.89 45.86 16.5 47.61 17.01C49.09 32.4 49.5 51.24 47.28 59.81C47.22 60.05 47.03 60.22 46.79 60.26C46.55 60.3 46.31 60.21 46.17 60.01C41.53 53.53 35.64 39.07 31.66 26.84C32.71 26.08 33.39 24.84 33.39 23.44C33.39 21.12 31.5 19.24 29.18 19.24C26.85 19.24 24.97 21.12 24.97 23.44C24.97 25.71 26.77 27.55 29.02 27.64C32.7 40.57 35.91 56.34 35.11 63.27C35.08 63.52 34.92 63.71 34.68 63.79C34.44 63.87 34.2 63.8 34.03 63.62C29.6 58.76 23.24 46.77 18.67 36.49C19.64 35.72 20.26 34.53 20.26 33.2C20.26 30.88 18.37 29 16.05 29C13.72 29 11.84 30.88 11.84 33.2C11.84 35.52 13.73 37.4 16.05 37.4C16.22 37.4 16.39 37.39 16.55 37.37C20.75 48.06 24.72 60.88 24.47 66.31C24.46 66.52 24.36 66.69 24.19 66.8C24.02 66.91 23.82 66.93 23.62 66.86C18.72 64.92 11.98 57.25 7.10001 49.97C7.92001 49.2 8.42 48.12 8.42 46.91C8.42 44.59 6.53 42.71 4.21 42.71C1.88 42.71 0 44.59 0 46.91C0 49.23 1.89 51.11 4.21 51.11C4.71 51.11 5.2 51.02 5.64 50.86L18.02 71.52L18.53 72.85C18.97 73.98 20.13 74.62 21.32 74.39C37.19 71.34 53.46 69.73 70.03 69.68C86.6 69.73 102.87 71.34 118.74 74.39C119.93 74.62 121.09 73.98 121.53 72.85L122.04 71.52L134.42 50.86C134.87 51.02 135.35 51.11 135.85 51.11C138.18 51.11 140.06 49.23 140.06 46.91C140.1 44.59 138.22 42.71 135.89 42.71Z" fill="#D2A347"/>
<path fill-rule="evenodd" clip-rule="evenodd" d="M26.33 80.2601C26.35 79.5301 27.07 77.6501 27.43 77.3501C27.87 77.5201 29.1199 79.1001 29.3699 79.7901C29.3499 80.5201 28.63 82.4001 28.27 82.7001C27.83 82.5201 26.58 80.9501 26.33 80.2601Z" fill="#D2A347"/>
<path fill-rule="evenodd" clip-rule="evenodd" d="M33.34 79.37C33.38 78.64 34.14 76.78 34.52 76.5C34.96 76.68 36.16 78.29 36.39 78.98C36.35 79.71 35.59 81.57 35.21 81.85C34.77 81.67 33.56 80.07 33.34 79.37Z" fill="#D2A347"/>
<path fill-rule="evenodd" clip-rule="evenodd" d="M40.36 78.7001C40.42 77.9701 41.23 76.1401 41.61 75.8601C42.04 76.0501 43.21 77.6901 43.41 78.3901C43.35 79.1201 42.54 80.9501 42.16 81.2301C41.74 81.0301 40.57 79.4001 40.36 78.7001Z" fill="#D2A347"/>
<path fill-rule="evenodd" clip-rule="evenodd" d="M47.3899 78.03C47.4699 77.3 48.3199 75.49 48.7099 75.22C49.1399 75.42 50.2599 77.09 50.4499 77.79C50.3699 78.52 49.5199 80.33 49.1299 80.6C48.6999 80.4 47.5799 78.74 47.3899 78.03Z" fill="#D2A347"/>
<path fill-rule="evenodd" clip-rule="evenodd" d="M54.4299 77.5901C54.5299 76.8701 55.4299 75.0801 55.8199 74.8201C56.2399 75.0401 57.3199 76.7301 57.4899 77.4401C57.3899 78.1601 56.4899 79.9501 56.0999 80.2101C55.6799 79.9901 54.5999 78.3001 54.4299 77.5901Z" fill="#D2A347"/>
<path fill-rule="evenodd" clip-rule="evenodd" d="M61.47 77.27C61.59 76.55 62.53 74.78 62.94 74.53C63.36 74.76 64.39 76.47 64.55 77.19C64.43 77.91 63.49 79.68 63.08 79.93C62.67 79.71 61.63 77.99 61.47 77.27Z" fill="#D2A347"/>
<path fill-rule="evenodd" clip-rule="evenodd" d="M113.78 80.2601C113.76 79.5301 113.04 77.6501 112.68 77.3501C112.24 77.5201 110.99 79.1001 110.74 79.7901C110.76 80.5201 111.48 82.4001 111.84 82.7001C112.29 82.5201 113.54 80.9501 113.78 80.2601Z" fill="#D2A347"/>
<path fill-rule="evenodd" clip-rule="evenodd" d="M106.78 79.37C106.74 78.64 105.98 76.78 105.6 76.5C105.16 76.68 103.96 78.29 103.73 78.98C103.77 79.71 104.53 81.57 104.91 81.85C105.34 81.67 106.55 80.07 106.78 79.37Z" fill="#D2A347"/>
<path fill-rule="evenodd" clip-rule="evenodd" d="M99.75 78.7001C99.69 77.9701 98.88 76.1401 98.5 75.8601C98.07 76.0501 96.9 77.6901 96.7 78.3901C96.76 79.1201 97.57 80.9501 97.95 81.2301C98.38 81.0301 99.54 79.4001 99.75 78.7001Z" fill="#D2A347"/>
<path fill-rule="evenodd" clip-rule="evenodd" d="M92.7199 78.03C92.6399 77.3 91.7899 75.49 91.3999 75.22C90.9699 75.42 89.8499 77.09 89.6599 77.79C89.7399 78.52 90.5899 80.33 90.9799 80.6C91.4099 80.4 92.5299 78.74 92.7199 78.03Z" fill="#D2A347"/>
<path fill-rule="evenodd" clip-rule="evenodd" d="M85.6799 77.5901C85.5799 76.8701 84.6799 75.0801 84.2899 74.8201C83.8699 75.0401 82.7899 76.7301 82.6199 77.4401C82.7199 78.1601 83.6199 79.9501 84.0099 80.2101C84.4299 79.9901 85.5099 78.3001 85.6799 77.5901Z" fill="#D2A347"/>
<path fill-rule="evenodd" clip-rule="evenodd" d="M78.6399 77.27C78.5199 76.55 77.5799 74.78 77.1699 74.53C76.7599 74.76 75.7199 76.47 75.5599 77.19C75.6799 77.91 76.6199 79.68 77.0299 79.93C77.4499 79.71 78.4899 77.99 78.6399 77.27Z" fill="#D2A347"/>
<path d="M70.06 79.66C70.9105 79.66 71.6 78.4512 71.6 76.96C71.6 75.4688 70.9105 74.26 70.06 74.26C69.2095 74.26 68.52 75.4688 68.52 76.96C68.52 78.4512 69.2095 79.66 70.06 79.66Z" fill="#D2A347"/>
<path fill-rule="evenodd" clip-rule="evenodd" d="M42.4299 64.9801C42.0199 64.6501 41.6399 64.2801 41.3099 63.8601C41.3099 63.9001 41.2999 63.9401 41.2999 63.9801C41.2499 64.3701 41.1799 64.7601 41.0699 65.1301C41.5199 65.0801 41.9799 65.0301 42.4299 64.9801Z" fill="#D2A347"/>
<path fill-rule="evenodd" clip-rule="evenodd" d="M56.94 63.83C56.24 63.25 55.65 62.52 55.23 61.68C54.75 60.74 54.31 59.75 53.89 58.74C53.73 59.63 53.54 60.51 53.32 61.36C53.05 62.42 52.53 63.37 51.84 64.15C53.53 64.02 55.24 63.91 56.94 63.83Z" fill="#D2A347"/>
<path fill-rule="evenodd" clip-rule="evenodd" d="M74.03 63.52C73.35 62.86 72.79 62.06 72.43 61.14C71.44 58.68 70.68 55.93 70.06 53.15C69.44 55.94 68.68 58.68 67.69 61.14C67.32 62.06 66.77 62.86 66.09 63.52C67.42 63.5 68.74 63.49 70.07 63.49C71.38 63.49 72.71 63.5 74.03 63.52Z" fill="#D2A347"/>
<path fill-rule="evenodd" clip-rule="evenodd" d="M88.2799 64.14C87.5899 63.35 87.0799 62.4 86.7999 61.35C86.5799 60.5 86.3899 59.63 86.2299 58.73C85.8099 59.74 85.3699 60.73 84.8899 61.67C84.4699 62.51 83.8799 63.24 83.1799 63.82C84.8799 63.91 86.5799 64.02 88.2799 64.14Z" fill="#D2A347"/>
<path fill-rule="evenodd" clip-rule="evenodd" d="M99.0499 65.1301C98.9399 64.7601 98.8599 64.3701 98.8199 63.9801C98.8199 63.9401 98.8099 63.9001 98.8099 63.8601C98.4799 64.2801 98.0999 64.6601 97.6899 64.9801C98.1399 65.0301 98.5899 65.0801 99.0499 65.1301Z" fill="#D2A347"/>
<path fill-rule="evenodd" clip-rule="evenodd" d="M70.0599 91.1801C84.5699 91.2201 99.0699 92.0801 113.47 93.7501L114.6 90.8401C114.88 90.1201 114.82 89.3901 114.44 88.7201C114.06 88.0501 113.46 87.6301 112.69 87.5001C98.7499 85.1501 84.5199 83.9001 70.0599 83.8601C55.5999 83.9001 41.3699 85.1501 27.4299 87.5001C26.6699 87.6301 26.0699 88.0501 25.6799 88.7201C25.2999 89.3901 25.2399 90.1201 25.5199 90.8401L26.6499 93.7501C41.0399 92.0701 55.5499 91.2201 70.0599 91.1801Z" fill="#D2A347"/>
<path fill-rule="evenodd" clip-rule="evenodd" d="M70.06 72.78C86.19 72.83 102.28 74.38 118.12 77.43L115.26 84.81C100.34 82.17 85.21 80.82 70.05 80.77C54.89 80.82 39.77 82.17 24.84 84.81L21.98 77.43C37.83 74.38 53.92 72.83 70.06 72.78Z" fill="#D2A347"/>
<path d="M70.06 99.8C93.4216 99.8 112.36 98.3628 112.36 96.59C112.36 94.8172 93.4216 93.38 70.06 93.38C46.6984 93.38 27.76 94.8172 27.76 96.59C27.76 98.3628 46.6984 99.8 70.06 99.8Z" fill="#D2A347"/>
<path d="M243.05 36.7699L257.86 2.03995V36.0699H267.47V0.449951H257.86L248.45 22.8999L238.15 0.449951H227.66V36.0699H228.29V1.91995L243.05 36.7699Z" fill="#120B0C"/>
<path d="M294.88 35.88C288.46 35.88 286.17 28.31 286.17 18.33C286.17 8.40999 288.46 0.839996 294.88 0.839996C300.86 0.839996 303.53 8.40999 303.53 18.33C303.53 28.31 301.3 35.88 294.88 35.88ZM294.88 36.7C305.31 36.7 313.77 28.5 313.77 18.32C313.77 8.20999 305.31 0 294.88 0C284.39 0 275.93 8.19999 275.93 18.32C275.93 28.5 284.38 36.7 294.88 36.7Z" fill="#120B0C"/>
<path d="M322.22 36.0699H331.82V18.2599H332.71C337.99 18.3899 341.49 21.1899 341.49 26.0199H342.19V9.86995H341.49C341.49 14.7699 337.99 17.5699 332.59 17.6299H331.83V1.08995H336.28C343.66 1.08995 348.81 5.66995 348.81 12.28H349.45V0.449951H322.23V36.0699H322.22Z" fill="#120B0C"/>
<path d="M368.2 36.0699H377.8V1.08995C385.18 1.08995 390.33 5.66995 390.33 12.28H390.97V0.449951H355.04V12.28H355.68C355.68 5.66995 360.83 1.08995 368.21 1.08995V36.0699H368.2Z" fill="#120B0C"/>
<path fill-rule="evenodd" clip-rule="evenodd" d="M311.77 55.85C311.74 56.35 312.04 57.19 312.76 58.42L313.07 58.95L312.76 59.48C312.04 60.72 311.74 61.55 311.77 62.05C311.77 62.12 311.79 62.16 311.81 62.17C312.04 62.26 312.44 62.25 312.98 62.14C314.69 61.81 317.21 60.61 319.79 58.94C317.2 57.27 314.69 56.07 312.98 55.74C312.44 55.64 312.04 55.62 311.81 55.71C311.78 55.75 311.77 55.78 311.77 55.85ZM321.48 60.41L438.52 58.96L321.48 57.51C318.49 55.53 315.47 54.07 313.38 53.67C312.45 53.49 311.64 53.51 311.01 53.76C310.17 54.09 309.68 54.74 309.62 55.74C309.58 56.54 309.87 57.6 310.6 58.96C309.87 60.32 309.57 61.38 309.62 62.18C309.68 63.18 310.17 63.83 311.01 64.16C311.64 64.41 312.45 64.43 313.38 64.25C315.47 63.85 318.49 62.39 321.48 60.41Z" fill="#D2A347"/>
<path fill-rule="evenodd" clip-rule="evenodd" d="M295.24 55.85C295.27 56.35 294.97 57.19 294.25 58.42L293.94 58.95L294.25 59.48C294.97 60.72 295.27 61.55 295.24 62.05C295.24 62.12 295.22 62.16 295.2 62.17C294.97 62.26 294.57 62.25 294.03 62.14C292.32 61.81 289.8 60.61 287.22 58.94C289.81 57.27 292.32 56.07 294.03 55.74C294.57 55.64 294.97 55.62 295.2 55.71C295.23 55.75 295.24 55.78 295.24 55.85ZM285.53 60.41L168.49 58.96L285.53 57.51C288.52 55.53 291.54 54.07 293.63 53.67C294.56 53.49 295.37 53.51 296 53.76C296.84 54.09 297.33 54.74 297.39 55.74C297.43 56.54 297.14 57.6 296.41 58.96C297.14 60.32 297.44 61.38 297.39 62.18C297.33 63.18 296.84 63.83 296 64.16C295.37 64.41 294.56 64.43 293.63 64.25C291.54 63.85 288.52 62.39 285.53 60.41Z" fill="#D2A347"/>
<path fill-rule="evenodd" clip-rule="evenodd" d="M308.76 58.9601C306.34 60.4301 304.81 64.1101 303.9 67.4901C303.76 68.0101 303.63 68.5501 303.51 69.0901C303.39 68.5501 303.26 68.0201 303.11 67.4901C302.2 64.1201 300.67 60.4401 298.25 58.9601C300.67 57.4901 302.2 53.8001 303.11 50.4301C303.25 49.9101 303.38 49.3701 303.51 48.8301C303.63 49.3701 303.76 49.9001 303.9 50.4301C304.81 53.8101 306.34 57.4901 308.76 58.9601Z" fill="#D2A347"/>
<path d="M210.34 97.2201V80.9401H208.02V99.3801H218.43V97.2201H210.34Z" fill="#120B0C"/>
<path d="M230.91 99.7C235.05 99.7 238.13 96.7201 238.13 92.5301V80.9401H235.81V92.3501C235.81 95.4101 233.75 97.4401 230.91 97.4401C228.04 97.4401 226.01 95.4101 226.01 92.3501V80.9401H223.66V92.5301C223.67 96.7201 226.75 99.7 230.91 99.7Z" fill="#120B0C"/>
<path d="M258.42 99.3801L252.15 89.8201L257.92 80.9401H255.31L250.72 88.0001L246.11 80.9401H243.5L249.3 89.7401L243.03 99.3801H245.66L250.72 91.58L255.81 99.3801H258.42Z" fill="#120B0C"/>
<path d="M270.53 99.7C274.67 99.7 277.75 96.7201 277.75 92.5301V80.9401H275.43V92.3501C275.43 95.4101 273.37 97.4401 270.53 97.4401C267.66 97.4401 265.63 95.4101 265.63 92.3501V80.9401H263.28V92.5301C263.29 96.7201 266.37 99.7 270.53 99.7Z" fill="#120B0C"/>
<path d="M287.26 83.1501H291.82C294.09 83.1501 295.59 84.6 295.59 86.58C295.59 88.56 294.09 89.98 291.82 89.98H287.26V83.1501ZM295.69 99.3801H298.3L293.87 91.9001C296.29 91.2101 297.95 89.19 297.95 86.58C297.95 83.31 295.39 80.9401 291.94 80.9401H284.93V99.39H287.25V92.2H291.44L295.69 99.3801Z" fill="#120B0C"/>
<path d="M318.43 80.9401H315.9L310.45 89.8701L305.02 80.9401H302.49L309.23 92.0301V99.3801H311.63V92.0301L318.43 80.9401Z" fill="#120B0C"/>
<path d="M345.62 80.9401L339.74 95.9301L333.79 80.9401H331.23L338.69 99.3801H340.82L348.15 80.9401H345.62Z" fill="#120B0C"/>
<path d="M355.92 80.9401H353.6V99.39H355.92V80.9401Z" fill="#120B0C"/>
<path d="M365.64 97.2201V80.9401H363.32V99.3801H373.73V97.2201H365.64Z" fill="#120B0C"/>
<path d="M381.5 97.2201V80.9401H379.18V99.3801H389.59V97.2201H381.5Z" fill="#120B0C"/>
<path d="M401.63 84.1201L405.24 92.8401H398.1L401.63 84.1201ZM407.93 99.3801H410.43L402.68 80.9301H400.52L392.98 99.3801H395.43L397.22 94.98H406.1L407.93 99.3801Z" fill="#120B0C"/>
</svg>
