<?xml version="1.0" encoding="utf-8"?>
<!-- Generator: Adobe Illustrator 27.0.0, SVG Export Plug-In . SVG Version: 6.00 Build 0)  -->
<svg version="1.1" id="Layer_1" xmlns="http://www.w3.org/2000/svg" xmlns:xlink="http://www.w3.org/1999/xlink" x="0px" y="0px"
	 viewBox="0 0 34.8 36" style="enable-background:new 0 0 34.8 36;" xml:space="preserve">
<style type="text/css">
	.st0{filter:url(#Adobe_OpacityMaskFilter);}
	.st1{fill-rule:evenodd;clip-rule:evenodd;fill:#FFFFFF;}
	.st2{mask:url(#b_00000140694503558047678110000015179410032436171689_);fill-rule:evenodd;clip-rule:evenodd;fill:#FF7900;}
	.st3{fill-rule:evenodd;clip-rule:evenodd;fill:#FFFFFE;}
</style>
<g>
	<defs>
		<filter id="Adobe_OpacityMaskFilter" filterUnits="userSpaceOnUse" x="0" y="0" width="34.8" height="34.8">
			<feColorMatrix  type="matrix" values="1 0 0 0 0  0 1 0 0 0  0 0 1 0 0  0 0 0 1 0"/>
		</filter>
	</defs>
	
		<mask maskUnits="userSpaceOnUse" x="0" y="0" width="34.8" height="34.8" id="b_00000140694503558047678110000015179410032436171689_">
		<g class="st0">
			<path id="a_00000166634620914049063490000010813608225401323701_" class="st1" d="M0,0h34.8v34.8H0V0z"/>
		</g>
	</mask>
	<path class="st2" d="M0,34.8h34.8V0H0V34.8z"/>
	<path class="st3" d="M11.9,30.4c0,0.3,0.2,0.6,0.6,0.6c0.4,0,0.8-0.2,1.2-0.5v-1.1C12.4,29.6,11.9,29.9,11.9,30.4z M13.7,31.5
		c-0.5,0.3-1,0.5-1.6,0.5c-0.9,0-1.4-0.6-1.4-1.4c0-1.1,1-1.7,3.1-1.9v-0.3c0-0.4-0.3-0.6-0.8-0.6c-0.5,0-0.9,0.2-1.2,0.6l-0.9-0.5
		c0.5-0.6,1.1-0.9,2.1-0.9c1.3,0,2,0.5,2,1.4c0,0,0,3.5,0,3.5h-1.1L13.7,31.5L13.7,31.5z M15.9,27.2L17,27l0.1,0.6
		c0.6-0.4,1.1-0.7,1.7-0.7c1,0,1.5,0.5,1.5,1.6v3.4H19v-3.2c0-0.6-0.2-0.9-0.6-0.9c-0.4,0-0.8,0.2-1.2,0.5v3.5h-1.3L15.9,27.2
		 M29.7,28.8c0-0.6-0.4-1-1-1c-0.6,0-0.9,0.4-1,1H29.7z M28.7,32c-1.4,0-2.3-0.9-2.3-2.5c0-1.6,0.9-2.5,2.3-2.5
		c1.4,0,2.2,0.9,2.2,2.5c0,0.1,0,0.2,0,0.3h-3.2c0,0.9,0.4,1.4,1.1,1.4c0.5,0,0.8-0.2,1.1-0.6l0.9,0.5C30.4,31.6,29.7,32,28.7,32z
		 M4.3,28c-1,0-1.1,0.9-1.1,1.5c0,0.6,0.2,1.5,1.1,1.5c1,0,1.1-0.9,1.1-1.5C5.4,28.8,5.2,28,4.3,28z M4.3,32c-1.3,0-2.4-0.8-2.4-2.6
		c0-1.8,1.1-2.6,2.4-2.6c1.3,0,2.4,0.8,2.4,2.6C6.7,31.2,5.5,32,4.3,32z M7.6,27h1.2v0.6c0.2-0.3,0.8-0.7,1.3-0.7c0.1,0,0.1,0,0.2,0
		v1.2h-0.1c-0.6,0-1.2,0.1-1.4,0.5v3.2H7.6V27 M25.7,27v4.6c0,0.8-0.1,2.1-2.4,2.2c-1,0-1.8-0.4-2-1.2l1.3-0.2
		c0.1,0.2,0.2,0.5,0.9,0.5c0.7,0,1-0.3,1-1.1v-0.6l0,0c-0.2,0.4-0.5,0.7-1.3,0.7c-1.1,0-2-0.8-2-2.4c0-1.6,0.9-2.5,1.9-2.5
		c1,0,1.3,0.4,1.4,0.7l0,0l0.1-0.6H25.7L25.7,27z M23.4,30.8c1,0,1-1,1-1.6c0-0.8-0.4-1.4-1.1-1.4c-0.5,0-1,0.3-1,1.4
		C22.4,29.9,22.4,30.9,23.4,30.8L23.4,30.8z M33.5,26.8h-0.3v-1.3h0l-0.5,1.3h-0.2L32,25.5h0v1.3h-0.3v-1.6h0.4l0.5,1.2l0.5-1.2h0.4
		L33.5,26.8L33.5,26.8z M31.4,25.4h-0.5v1.4h-0.3v-1.4h-0.5v-0.2h1.3V25.4z"/>
</g>
</svg>
