<svg xmlns="http://www.w3.org/2000/svg" viewBox="0 0 426.2 422.1">
  <path d="M0 80.4h33l18.4-24.2 41.4.7-18.2 23.5h38.8l19.8-22.8h40.4l-18.7 22.8h37l21.7-21.7h39.7l-20.5 21.6-9.2.2h48.8l22.4-21 41.4.3-25.1 21.6-17.3-.2c-.8.6-1.6 1.2-2.3 1.8-5.9 4.8-10.9 11-15 18.6-4.1 7.6-6.8 15.7-8.2 24.2-1.8 11.6-.9 24.9 2.7 40.2 5.7 23.8 16.4 40.8 32 50.9 15.6 10.1 34 12.2 55 6.3 20.7-5.8 35.6-17.3 44.8-34.4 9.1-17.1 10.8-37.8 5-62-4.9-20.5-13.3-35.9-25.2-46.4h43.8v213.1H351l.7-7.1L181.3 270l13.4-3.7-15-62.5 5.8-1.6c6.6-1.8 11.5-2.6 14.8-2.4 3.3.3 6.7 1.6 10.1 3.8 3.4 2.3 10.2 8.2 20.3 17.8l28.4 26.8 34.1-9.6-24.2-24.4c-9.6-9.7-16.9-16.3-22-19.7-5.1-3.4-11.2-6.2-18.3-8.3 11.9-5.4 20.2-12.6 24.6-21.6 4.5-9.1 5.4-19.2 2.7-30.5-2.1-8.9-6-16.1-11.8-21.9-5.8-5.7-12.4-8.9-19.9-9.7-7.5-.8-18.7.9-33.8 5.2l-60 16.8 34.4 143.8-81-7.8-3.2 32.9h-4.8l-12.1-50.7 18.6-5.2c12.9-3.6 22.6-7.1 29.1-10.5 4.7-2.6 9.1-6.3 13.1-11.2 4-5 6.8-11 8.5-18.1 1.7-7.1 1.4-15.3-.8-24.5-2.8-11.9-7.9-20.8-15.2-26.8-7.3-6-15.2-9-23.9-8.9-5.6 0-17.1 2.4-34.4 7.2l-45.7 12.8 32.5 136H0V80.4zm354.2-2.3l44.9-3.5L415.8 61l-40.4-1-21.2 18.1zM413.7 51l-39-.3-37.2-27.5 39.7 2.4L413.7 51zm-81.1-2.8l-39.6-.7-36.9-29.6 40.4 2.1 36.1 28.2zm-81.1-2.4h-38.6l-37.6-33.1 39.7 2.4 36.5 30.7zm-79-1.4l-41.1-.7L94.2 6.1l40.4 3.1 37.9 35.2zM11 0l40 40.7h40.4L52.6 2.3 11 0zm36.3 174.9l10.2 42.4 15.6-4.4c11.2-3.2 18.6-6 22-8.7 3.4-2.6 5.8-5.9 7.1-9.9 1.3-3.9 1.5-8.1.4-12.5-1.3-5.4-3.9-9.5-7.8-12.2-3.8-2.7-8.2-3.8-13-3.4-3.6.3-10.5 1.9-20.8 4.7l-13.7 4zm126.7 4.9l21.1-5.9c13.7-3.8 22.1-6.8 25.2-9 3.1-2.2 5.2-5 6.5-8.6 1.2-3.5 1.3-7.5.2-12-1.2-5.1-3.5-8.7-6.7-11.1-3.3-2.4-7.3-3.3-12.2-2.9-2.4.3-9.4 2.1-20.9 5.4l-22.2 6.2 9 37.9zm126-23.1c4.1 16.9 10.8 28.8 20.3 35.4 9.5 6.7 19.9 8.4 31.3 5.2 11.3-3.2 19.6-10.1 24.9-20.9 5.2-10.7 5.7-24.7 1.6-42.1-4.1-17.1-10.7-28.9-19.8-35.4-9.1-6.4-19.6-8-31.3-4.7-11.8 3.3-20.2 10.2-25.4 20.8-5.2 10.6-5.7 24.4-1.6 41.7z" fill-rule="evenodd" clip-rule="evenodd"/>
  <g fill-rule="evenodd" clip-rule="evenodd">
    <path fill="#ed1c24" d="M74.72010867 353.58086692l8.99224376-93.0699 267.7626 25.87073337-8.99224376 93.0699z"/>
    <path d="M289.6 338.8l10.6-.2c.2 4.3 1.2 7.6 2.9 9.8 1.7 2.2 4.2 3.4 7.5 3.7 3.5.3 6.2-.3 8.1-1.9 1.9-1.6 3-3.6 3.2-6 .1-1.5-.1-2.9-.7-4-.6-1.2-1.8-2.2-3.6-3.2-1.2-.7-4-1.9-8.3-3.7-5.6-2.3-9.4-4.8-11.5-7.6-2.9-3.9-4.1-8.4-3.7-13.5.2-2.1.7-4 1.5-5.9l-12.4-1.2-5.2 53.7-10.8-1 5.2-53.7-12.9-1.2-5.2 53.7-10.8-1-17.4-44.2-4.1 42.1-10-1-39.3-3.8 4.6-47.9-18.7 46.5-11.5-1.1-10.6-55.2-26.2-2.5-1.4 14.3 26.7 2.6-1.1 10.9-26.7-2.6-1.7 17.6 29.7 2.9-1.1 10.9-40.5-3.9 6.2-64.6 33.7 3.3 5.7.6 5.9.6 8.8 49.1 17.7-46.6 6.5.6L218 288l10.5 1 17.6 45.2 4.2-43.1 10 1 39.4 3.8-.5 4.8c1.4-1.4 3.1-2.4 5-3.2 3-1.2 6.6-1.6 10.7-1.2 6.7.6 11.5 2.9 14.6 6.8 3 3.9 4.3 8.8 3.9 14.8l-10.8-.5c-.1-3.4-.9-5.9-2.3-7.4-1.4-1.6-3.6-2.5-6.6-2.8-3.1-.3-5.7.2-7.6 1.6-1.2.9-1.9 2.2-2.1 3.8-.1 1.5.3 2.9 1.2 4.1 1.2 1.5 4.4 3.3 9.5 5.3s8.8 3.9 11.1 5.8c2.3 1.9 4.1 4.2 5.3 7.1 1.1 2.9 1.5 6.4 1.1 10.5-.4 3.7-1.5 7.1-3.5 10.1-2 3.1-4.6 5.2-7.9 6.5-3.3 1.3-7.2 1.7-11.8 1.2-6.7-.7-11.7-3-15-7.2-2.8-4.2-4.4-9.9-4.4-17.2zm-76.4 2.8l4.1-42.8-28.5-2.8-1.4 14.3 26.7 2.6-1.1 10.9-26.7-2.6-1.7 17.6 28.6 2.8z" fill="#fff"/>
  </g>
  <path d="M11.5 411.8c0-.7-.1-1.3-.4-1.8-.3-.5-.6-.9-1-1.2-.4-.3-.8-.6-1.3-.8-.5-.2-1-.4-1.6-.6-.4-.1-.5-.2-.6-.2-.6-.2-1-.4-1.3-.6-.3-.2-.4-.5-.4-.8 0-.3.1-.5.4-.7.2-.2.5-.3.8-.3.4 0 .8.1 1.1.3.3.2.6.6.8 1.1l3.5-1.4c-.4-1.1-1.1-1.9-2-2.4-.9-.5-2-.8-3.3-.8-1.7 0-3 .4-4 1.3s-1.5 1.9-1.5 3.2c0 .6.1 1.2.3 1.7.2.5.5.9.9 1.2.4.3.8.6 1.2.8.4.2.9.4 1.5.6l.5.2c.8.3 1.3.5 1.7.7.4.2.5.5.5.8 0 .6-.5.9-1.4.9-.4 0-.8-.1-1.2-.4-.3-.3-.6-.7-.8-1.1L.3 413c.4 1.1 1.1 1.9 2 2.4.9.5 2.1.8 3.6.8 1.6 0 3-.4 4-1.2 1.1-.8 1.6-1.8 1.6-3.2zm16.4-2.9c0-2.2-.6-4-1.9-5.2-1.3-1.3-3-1.9-5.1-1.9-1 0-2 .2-2.9.6-.9.4-1.6.9-2.3 1.6-.6.7-1.1 1.4-1.5 2.3-.3.9-.5 1.9-.5 2.9 0 1.2.2 2.2.6 3.1.4.9.9 1.7 1.6 2.3.7.6 1.4 1.1 2.3 1.4.8.3 1.7.4 2.7.4 1.5 0 2.8-.3 3.9-.8s2-1.3 2.8-2.4l-2.9-1.9c-.9 1.2-2 1.8-3.4 1.8-.9 0-1.7-.3-2.3-.9-.6-.6-.9-1.3-1-2.2h9.8v-.8c.1-.2.1-.3.1-.3zm-4.4-1.4h-5.4c.1-.8.4-1.4.9-1.9s1.1-.7 1.9-.7c.8 0 1.4.3 1.9.8s.7 1.1.7 1.8zm11.7-3.1v-2.1h-4.4v13.6h4.4V410c0-1.4.2-2.4.6-3.1.4-.7 1-1 1.8-1 .7 0 1.3.2 1.8.5V402c-1.1 0-2 .2-2.6.6-.7.4-1.2 1-1.6 1.8zm21.6-2.2H52l-2.4 6.5c-.4 1.1-.7 2.2-1 3.2-.1-.5-.3-1.1-.5-1.6-.2-.6-.3-1-.5-1.5l-2.6-6.6h-5l6 13.6h4.8l6-13.6zm6.7-5.1c0-.7-.3-1.3-.8-1.9-.5-.5-1.2-.8-1.9-.8s-1.3.3-1.9.8c-.5.5-.8 1.2-.8 1.9s.3 1.3.8 1.9c.5.5 1.2.8 1.9.8s1.3-.3 1.9-.8c.6-.5.8-1.1.8-1.9zm-.4 18.7v-13.6h-4.4v13.6h4.4zm14.2-.3v-4c-.4.3-.8.6-1.3.7-.5.2-1.1.3-1.7.3-1.1 0-1.9-.3-2.6-1-.7-.7-1-1.5-1-2.5s.3-1.9 1-2.5c.7-.6 1.5-.9 2.6-.9.5 0 1.1.1 1.7.3.6.2 1 .4 1.4.6v-4c-.5-.2-1-.4-1.7-.5-.7-.1-1.3-.2-2-.2-1.2 0-2.3.2-3.2.6-.9.4-1.7 1-2.4 1.7-.6.7-1.1 1.5-1.4 2.4-.3.9-.5 1.8-.5 2.7 0 1 .2 1.9.5 2.7.3.9.8 1.6 1.4 2.3.6.7 1.4 1.2 2.3 1.6.9.4 1.9.6 3 .6.7 0 1.5-.1 2.2-.2.5-.3 1.1-.5 1.7-.7zm8-18.4c0-.7-.3-1.3-.8-1.9-.5-.5-1.2-.8-1.9-.8s-1.3.3-1.9.8c-.5.5-.8 1.2-.8 1.9s.3 1.3.8 1.9c.5.5 1.2.8 1.9.8s1.3-.3 1.9-.8c.5-.5.8-1.1.8-1.9zm-.5 18.7v-13.6h-4.4v13.6h4.4zm8.6-18.7c0-.7-.3-1.3-.8-1.9-.5-.5-1.2-.8-1.9-.8s-1.3.3-1.9.8c-.5.5-.8 1.2-.8 1.9s.3 1.3.8 1.9c.5.5 1.2.8 1.9.8s1.3-.3 1.9-.8c.5-.5.8-1.1.8-1.9zm-.5 18.7v-13.6h-4.4v13.6h4.4zm22.8-6.6c0 1-.3 1.8-.8 2.5-.6.7-1.4 1.1-2.4 1.1s-1.8-.3-2.4-1c-.6-.7-.9-1.5-.9-2.5s.3-1.8.9-2.5c.6-.7 1.4-1.1 2.3-1.1 1.1 0 1.9.3 2.4 1 .6.7.9 1.5.9 2.5zm-6.3 5.3c.5.5 1.1 1 1.8 1.3.7.3 1.5.5 2.5.5 1.1 0 2-.2 2.9-.6.9-.4 1.6-1 2.2-1.6.6-.7 1-1.5 1.3-2.3.3-.8.4-1.7.4-2.6 0-1-.2-1.9-.5-2.8-.3-.9-.8-1.6-1.3-2.3-.6-.7-1.3-1.2-2-1.5-.8-.4-1.6-.5-2.6-.5-1.1 0-2 .2-2.7.5-.7.4-1.4.9-1.9 1.6v-1.7H105v19.8h4.4v-7.8zm18.3-10.1v-2.1h-4.4v13.6h4.4V410c0-1.4.2-2.4.6-3.1.4-.7 1-1 1.8-1 .7 0 1.3.2 1.8.5V402c-1.1 0-2 .2-2.6.6-.7.4-1.2 1-1.6 1.8zm21 4.6c0-1-.2-2-.6-2.9-.4-.9-.9-1.7-1.6-2.3-.7-.7-1.5-1.2-2.5-1.5-1-.4-2-.5-3.1-.5s-2.2.2-3.1.6c-1 .4-1.8.9-2.4 1.6-.7.7-1.2 1.4-1.6 2.3-.4.9-.6 1.8-.6 2.8 0 1.1.2 2 .6 2.9.4.9.9 1.7 1.6 2.3.7.7 1.5 1.2 2.4 1.5.9.4 1.9.5 2.9.5 1.2 0 2.3-.2 3.3-.6 1-.4 1.8-1 2.5-1.6.7-.7 1.2-1.5 1.6-2.3.4-.9.6-1.8.6-2.8zm-4.4 0c0 1-.3 1.8-.9 2.4-.6.7-1.4 1-2.3 1-.9 0-1.6-.3-2.3-1-.7-.7-1-1.5-1-2.4 0-1 .3-1.8.9-2.5.6-.7 1.4-1 2.4-1 .9 0 1.7.3 2.3 1 .5.8.9 1.6.9 2.5zm15.4-12.9v-3.6c-.8-.1-1.6-.2-2.5-.2-1.1 0-2 .1-2.6.4-.7.3-1.2.7-1.6 1.3-.4.6-.6 1.2-.8 2-.1.8-.2 1.7-.2 2.8v3.4h-1.8v3.3h1.8v10.3h4.4v-10.3h3.1v-3.3h-3.1v-2.8c0-1.1 0-1.8.1-2.2.1-.4.3-.7.5-.9.3-.2.7-.3 1.3-.3h.7c.4.1.6.1.7.1zm15.1 12.8c0-2.2-.6-4-1.9-5.2-1.3-1.3-3-1.9-5.1-1.9-1 0-2 .2-2.9.6-.9.4-1.6.9-2.3 1.6-.6.7-1.1 1.4-1.5 2.3-.3.9-.5 1.9-.5 2.9 0 1.2.2 2.2.6 3.1.4.9.9 1.7 1.6 2.3.7.6 1.4 1.1 2.3 1.4.8.3 1.7.4 2.7.4 1.5 0 2.8-.3 3.9-.8s2-1.3 2.8-2.4l-2.9-1.9c-.9 1.2-2 1.8-3.4 1.8-.9 0-1.7-.3-2.3-.9-.6-.6-.9-1.3-1-2.2h9.8v-.8c.1-.2.1-.3.1-.3zm-4.4-1.4H165c.1-.8.4-1.4.9-1.9s1.1-.7 1.9-.7c.8 0 1.4.3 1.9.8s.7 1.1.7 1.8zm17.7 4.3c0-.7-.1-1.3-.4-1.8-.3-.5-.6-.9-1-1.2-.4-.3-.8-.6-1.3-.8-.5-.2-1-.4-1.6-.6-.4-.1-.5-.2-.6-.2-.6-.2-1-.4-1.3-.6-.3-.2-.5-.5-.5-.8 0-.3.1-.5.4-.7.2-.2.5-.3.8-.3.4 0 .8.1 1.1.3.3.2.6.6.8 1.1l3.5-1.4c-.4-1.1-1.1-1.9-2-2.4-.9-.5-2-.8-3.3-.8-1.7 0-3 .4-4 1.3s-1.5 1.9-1.5 3.2c0 .6.1 1.2.3 1.7.2.5.5.9.9 1.2.4.3.8.6 1.2.8.4.2.9.4 1.5.6l.5.2c.8.3 1.3.5 1.7.7.4.2.5.5.5.8 0 .6-.5.9-1.4.9-.4 0-.8-.1-1.2-.4-.3-.3-.6-.7-.8-1.1l-3.7 1.5c.4 1.1 1.1 1.9 2 2.4.9.5 2.1.8 3.6.8 1.6 0 3-.4 4-1.2 1.2-.8 1.8-1.8 1.8-3.2zm7.9-14.7c0-.7-.3-1.3-.8-1.9-.5-.5-1.2-.8-1.9-.8s-1.3.3-1.9.8c-.5.5-.8 1.2-.8 1.9s.3 1.3.8 1.9c.5.5 1.2.8 1.9.8s1.3-.3 1.9-.8c.5-.5.8-1.1.8-1.9zm-.5 18.7v-13.6h-4.4v13.6h4.4zM214 409c0-1-.2-2-.6-2.9-.4-.9-.9-1.7-1.6-2.3-.7-.7-1.5-1.2-2.5-1.5-1-.4-2-.5-3.1-.5s-2.2.2-3.1.6c-1 .4-1.8.9-2.4 1.6-.7.7-1.2 1.4-1.6 2.3-.4.9-.6 1.8-.6 2.8 0 1.1.2 2 .6 2.9.4.9.9 1.7 1.6 2.3.7.7 1.5 1.2 2.4 1.5.9.4 1.9.5 2.9.5 1.2 0 2.3-.2 3.3-.6 1-.4 1.8-1 2.5-1.6.7-.7 1.2-1.5 1.6-2.3.4-.9.6-1.8.6-2.8zm-4.5 0c0 1-.3 1.8-.9 2.4-.6.7-1.4 1-2.3 1-.9 0-1.6-.3-2.3-1-.7-.7-1-1.5-1-2.4 0-1 .3-1.8.9-2.5.6-.7 1.4-1 2.4-1 .9 0 1.7.3 2.3 1 .6.8.9 1.6.9 2.5zm21 6.8v-8.6c0-1-.1-1.8-.3-2.4-.2-.6-.5-1.1-.9-1.6-.4-.4-.9-.7-1.5-1-.6-.2-1.3-.4-2.1-.4-1.1 0-2 .2-2.7.6-.7.4-1.3.9-1.7 1.5v-1.8h-4.4v13.6h4.4v-7.1c0-.6.1-1.1.3-1.5.2-.4.4-.7.7-.9.3-.2.6-.4.9-.5.3-.1.6-.1.8-.1.8 0 1.3.3 1.6.8.3.5.5 1.1.5 1.9v7.5h4.4zm13.9-6.5c0 1-.3 1.8-.9 2.5-.6.7-1.4 1.1-2.4 1.1s-1.8-.4-2.4-1.1-.9-1.6-.9-2.7c0-1 .3-1.9.9-2.5.6-.6 1.4-1 2.3-1 1 0 1.8.4 2.5 1.1.6.7.9 1.5.9 2.6zm-.1-5.5c-.4-.6-1-1.1-1.7-1.5-.8-.4-1.6-.6-2.5-.6-2.1 0-3.7.7-4.9 2.1-1.2 1.4-1.8 3.2-1.8 5.3 0 2.1.6 3.8 1.7 5.1 1.1 1.3 2.7 2 4.6 2 1 0 1.9-.2 2.6-.5.7-.3 1.4-.8 2-1.4v1.4h4.4v-13.6h-4.4v1.7zm12.3 12v-23.2h-4.4v23.2h4.4zm17-6.9c0-2.2-.6-4-1.9-5.2-1.3-1.3-3-1.9-5.1-1.9-1 0-2 .2-2.9.6-.9.4-1.6.9-2.3 1.6-.6.7-1.1 1.4-1.5 2.3-.3.9-.5 1.9-.5 2.9 0 1.2.2 2.2.6 3.1.4.9.9 1.7 1.6 2.3.7.6 1.4 1.1 2.3 1.4.8.3 1.7.4 2.7.4 1.5 0 2.8-.3 3.9-.8s2-1.3 2.8-2.4l-2.9-1.9c-.9 1.2-2 1.8-3.4 1.8-.9 0-1.7-.3-2.3-.9-.6-.6-.9-1.3-1-2.2h9.8v-.8c.1-.2.1-.3.1-.3zm-4.4-1.4h-5.4c.1-.8.4-1.4.9-1.9s1.1-.7 1.9-.7c.8 0 1.4.3 1.9.8.4.5.7 1.1.7 1.8z" fill="#ed1c24"/>
  <path d="M293 396.1v-3.6c-.8-.1-1.6-.2-2.5-.2-1.1 0-2 .1-2.6.4-.7.3-1.2.7-1.6 1.3-.4.6-.6 1.2-.8 2-.1.8-.2 1.7-.2 2.8v3.4h-1.8v3.3h1.8v10.3h4.4v-10.3h3.1v-3.3h-3.1v-2.8c0-1.1 0-1.8.1-2.2.1-.4.3-.7.5-.9.3-.2.7-.3 1.3-.3h.7c.3.1.5.1.7.1zm16.4 12.9c0-1-.2-2-.6-2.9-.4-.9-.9-1.7-1.6-2.3-.7-.7-1.5-1.2-2.5-1.5-1-.4-2-.5-3.1-.5s-2.2.2-3.1.6c-1 .4-1.8.9-2.4 1.6-.7.7-1.2 1.4-1.6 2.3-.4.9-.6 1.8-.6 2.8 0 1.1.2 2 .6 2.9.4.9.9 1.7 1.6 2.3.7.7 1.5 1.2 2.4 1.5.9.4 1.9.5 2.9.5 1.2 0 2.3-.2 3.3-.6 1-.4 1.8-1 2.5-1.6.7-.7 1.2-1.5 1.6-2.3.4-.9.6-1.8.6-2.8zm-4.5 0c0 1-.3 1.8-.9 2.4-.6.7-1.4 1-2.3 1-.9 0-1.6-.3-2.3-1-.7-.7-1-1.5-1-2.4 0-1 .3-1.8.9-2.5.6-.7 1.4-1 2.4-1 .9 0 1.7.3 2.3 1 .6.8.9 1.6.9 2.5zm14.6-3.5v-3.3H317v-4.8h-4.4v4.8h-1.9v3.3h1.9v10.3h4.4v-10.3h2.5zm16.4 3.5c0-1-.2-2-.6-2.9-.4-.9-.9-1.7-1.6-2.3-.7-.7-1.5-1.2-2.5-1.5-1-.4-2-.5-3.1-.5s-2.2.2-3.1.6c-1 .4-1.8.9-2.4 1.6-.7.7-1.2 1.4-1.6 2.3-.4.9-.6 1.8-.6 2.8 0 1.1.2 2 .6 2.9.4.9.9 1.7 1.6 2.3.7.7 1.5 1.2 2.4 1.5.9.4 1.9.5 2.9.5 1.2 0 2.3-.2 3.3-.6 1-.4 1.8-1 2.5-1.6.7-.7 1.2-1.5 1.6-2.3.4-.9.6-1.8.6-2.8zm-4.5 0c0 1-.3 1.8-.9 2.4-.6.7-1.4 1-2.3 1-.9 0-1.6-.3-2.3-1-.7-.7-1-1.5-1-2.4 0-1 .3-1.8.9-2.5.6-.7 1.4-1 2.4-1 .9 0 1.7.3 2.3 1 .6.8.9 1.6.9 2.5zm16 .8v-3.7h-9.2v3.7h9.2zm18.1-7.6h-4.8l-2.4 6.5c-.4 1.1-.7 2.2-1 3.2-.1-.5-.3-1.1-.5-1.6-.2-.6-.3-1-.5-1.5l-2.6-6.6h-5l6 13.6h4.8l6-13.6zm6.7-5.1c0-.7-.3-1.3-.8-1.9-.5-.5-1.2-.8-1.9-.8s-1.3.3-1.9.8c-.5.5-.8 1.2-.8 1.9s.3 1.3.8 1.9c.5.5 1.2.8 1.9.8s1.3-.3 1.9-.8c.5-.5.8-1.1.8-1.9zm-.5 18.7v-13.6h-4.4v13.6h4.4zm14.1-6.9c0 1-.3 1.8-.9 2.6-.6.7-1.4 1.1-2.4 1.1-.8 0-1.6-.3-2.2-.9-.6-.6-.9-1.5-.9-2.5s.3-1.8.9-2.5c.6-.7 1.4-1 2.4-1 .9 0 1.6.3 2.3.9.5.5.8 1.3.8 2.3zm-.1-5.4c-1-1-2.4-1.6-4.2-1.6-1 0-2 .2-2.8.5-.8.4-1.6.9-2.2 1.5-.6.7-1 1.4-1.4 2.3-.3.9-.5 1.8-.5 2.7 0 2 .6 3.7 1.7 5.1 1.1 1.3 2.7 2 4.6 2 1.1 0 1.9-.2 2.7-.5.7-.4 1.4-.9 2-1.5v1.7h4.4v-23.2h-4.4v11h.1zm21.4 5.4c0-2.2-.6-4-1.9-5.2-1.3-1.3-3-1.9-5.1-1.9-1 0-2 .2-2.9.6-.9.4-1.6.9-2.3 1.6-.6.7-1.1 1.4-1.5 2.3-.3.9-.5 1.9-.5 2.9 0 1.2.2 2.2.6 3.1.4.9.9 1.7 1.6 2.3.7.6 1.4 1.1 2.3 1.4.8.3 1.7.4 2.7.4 1.5 0 2.8-.3 3.9-.8s2-1.3 2.8-2.4l-2.9-1.9c-.9 1.2-2 1.8-3.4 1.8-.9 0-1.7-.3-2.3-.9-.6-.6-.9-1.3-1-2.2h9.8v-.8c.1-.2.1-.3.1-.3zm-4.4-1.4h-5.4c.1-.8.4-1.4.9-1.9s1.1-.7 1.9-.7c.8 0 1.4.3 1.9.8s.7 1.1.7 1.8zm22.2 1.5c0-1-.2-2-.6-2.9-.4-.9-.9-1.7-1.6-2.3-.7-.7-1.5-1.2-2.5-1.5-1-.4-2-.5-3.1-.5s-2.2.2-3.1.6c-1 .4-1.8.9-2.5 1.6-.7.7-1.2 1.4-1.6 2.3-.4.9-.6 1.8-.6 2.8 0 1.1.2 2 .6 2.9.4.9.9 1.7 1.6 2.3.7.7 1.5 1.2 2.4 1.5.9.4 1.9.5 2.9.5 1.2 0 2.3-.2 3.3-.6 1-.4 1.8-1 2.5-1.6.7-.7 1.2-1.5 1.6-2.3.5-.9.7-1.8.7-2.8zm-4.5 0c0 1-.3 1.8-.9 2.4-.6.7-1.4 1-2.3 1-.9 0-1.6-.3-2.3-1-.7-.7-1-1.5-1-2.4 0-1 .3-1.8.9-2.5.6-.7 1.4-1 2.4-1 .9 0 1.7.3 2.3 1 .6.8.9 1.6.9 2.5z"/>
</svg>
