<?xml version="1.0" encoding="utf-8"?>
<!-- Generator: Adobe Illustrator 27.0.0, SVG Export Plug-In . SVG Version: 6.00 Build 0)  -->
<svg version="1.1" id="Layer_1" xmlns="http://www.w3.org/2000/svg" xmlns:xlink="http://www.w3.org/1999/xlink" x="0px" y="0px"
	 viewBox="0 0 767.3 287.7" style="enable-background:new 0 0 767.3 287.7;" xml:space="preserve">
<style type="text/css">
	.st0{fill-rule:evenodd;clip-rule:evenodd;fill:#6C757D;}
	.st1{fill-rule:evenodd;clip-rule:evenodd;fill:url(#SVGID_1_);}
	.st2{fill-rule:evenodd;clip-rule:evenodd;fill:url(#SVGID_00000149359969666719160700000013740301445195801220_);}
</style>
<g>
	<path class="st0" d="M467.3,138.6c0.3-0.9,0.7-1.8,1.2-2.5s1.1-1.5,1.7-2.1c0.8-0.7,1.7-1.2,2.7-1.6c1-0.4,2-0.6,3-0.5
		c1.1,0.1,1.4,0.6,0.9,1.6c-0.4,0.6-0.6,1.2-0.8,1.9c-0.2,0.6-0.4,1.3-0.6,1.9c-0.4,1-0.9,1.9-1.7,2.6c-1.3,1.2-2.9,1.7-4.6,1.5
		C467.4,141.1,466.8,140.2,467.3,138.6 M678.9,125.3c0-0.4-0.1-0.8-0.3-1.1c-0.2-0.3-0.5-0.4-0.9-0.4c-0.3,0-0.5,0.1-0.9,0.2
		c-1.7,0.9-3.3,2-4.8,3.2c-1.5,1.2-2.8,2.5-4.1,3.9c-0.2,0.2-0.4,0.5-0.6,0.7c-0.2,0.2-0.3,0.5-0.4,0.9c-0.2,0.6,0,0.8,0.4,0.8
		c0,0,0.1,0,0.1,0c0,0,0.1,0,0.2,0c0.9-0.2,2-0.6,3.3-1s2.5-1,3.6-1.7s2.1-1.5,3-2.4C678.3,127.5,678.8,126.5,678.9,125.3z
		 M712.1,133.5c-1.7,1.2-3.4,1.8-5.1,1.8c-1.4,0-2.8-0.4-4.3-1.3c-1.9-1-3.4-2.3-4.6-3.8c-1.2-1.5-1.8-3.4-1.9-5.7
		c0-1.4,0.3-2.8,0.9-4c1-2.1,2-4.2,3.2-6.2c-0.6,0.2-1.2,0.4-1.9,0.6c-5.2,1.8-10.4,3.8-15.4,6.1c-0.2,0.1-0.3,0.2-0.5,0.3
		c-0.2,0.1-0.4,0.2-0.7,0.4c0.7,0.4,1.4,0.8,2,1.3c0.6,0.4,1.1,0.9,1.6,1.5c1.1,1.4,1.7,2.8,1.6,4.2c-0.1,1.4-0.7,2.7-2,3.9
		c-1.5,1.5-3.2,2.6-5,3.2s-3.8,1.2-5.8,1.6c-0.9,0.2-1.8,0.3-2.8,0.3c-0.7,0-1.4-0.1-2.2-0.2c-0.8-0.1-1.5-0.4-2.2-0.7
		c-0.7-0.3-1.4-0.6-2-1.1c-0.6-0.4-1.2-0.9-1.6-1.5c-1.4-1.7-1.3-3.2,0.2-4.6c1.5-1.3,3-2.5,4.5-3.8c1.5-1.2,3-2.4,4.7-3.6
		c0.1-0.1,0.3-0.2,0.4-0.2c0.2-0.1,0.3-0.2,0.5-0.3c-0.5-0.3-0.9-0.6-1.3-0.9s-0.8-0.6-1.3-0.8c-0.3-0.3-0.7-0.6-1-0.8c-1,1-2,2-3,3
		c-1.4,1.3-2.8,2.6-4.3,3.9c-1.5,1.3-3.1,2.4-4.6,3.3s-3.2,1.8-4.7,2.4c-1.6,0.6-3.1,0.9-4.7,0.9c-2.2,0-4.3-0.6-6.2-1.9
		s-3.4-3.1-4.6-5.4c-0.9-1.8-1-3.6-0.4-5.6c0.9-2.9,2.1-5.6,3.7-8s3.5-4.6,6-6.5c0.9-0.7,1.9-1.3,2.8-1.7c1-0.4,2-0.6,3.2-0.6
		c1.4,0.1,2.7,0.3,3.9,0.8s2.2,1.2,3.2,2.3c0.7,0.7,1.1,1.4,1.3,2.2c0.2,0.8,0.1,1.7-0.3,2.5c-1.2,2.8-2.9,5-4.9,6.8
		s-4.5,2.9-7.5,3.6c-0.2,0-0.3,0.1-0.4,0.1c-0.1,0-0.2,0-0.4,0c-0.4,0-0.7,0-1-0.1s-0.6-0.2-1-0.3c-0.1,0-0.2-0.1-0.4-0.1
		c-0.2,0-0.4,0.2-0.5,0.4c-0.4,1.1-0.6,2.2-0.7,3.3c-0.1,1.1,0.2,2.2,1,3.2c0.4,0.6,0.9,0.9,1.5,0.9c0.5,0,1.1-0.1,1.8-0.3
		c0.7-0.2,1.4-0.5,2.2-0.8c0.8-0.3,1.5-0.6,2.2-0.9c0.7-0.3,1.2-0.6,1.7-0.8c1.9-1,3.8-2.1,5.6-3.3s3.5-2.5,5.1-4
		c0.4-0.3,0.9-0.8,1.6-1.3c0.3-0.2,0.6-0.5,1-0.7c-0.2-0.3-0.4-0.7-0.6-1.1c-0.5-0.9-0.7-1.8-0.7-2.7c0-0.9,0.3-1.7,1-2.5
		c1-1.2,2.1-2.4,3.3-3.5c1.2-1.1,2.5-2.1,3.8-2.9c1.4-0.8,2.8-1.5,4.3-2c1.5-0.5,3.1-0.7,4.8-0.7c3.1,0,5.8,1.1,8.2,3.2
		c2.5,2.2,2.5,4.5,0.1,6.7c-0.5,0.4-0.9,0.9-1.4,1.3s-0.9,0.8-1.3,1.3c-0.3,0.3-0.7,0.5-1.1,0.5c-0.4,0-0.8-0.1-1.2-0.4
		c-0.4-0.2-0.7-0.4-1-0.8c-0.2-0.3-0.3-0.7-0.2-1.3c0.2-0.6,0.4-1.1,0.6-1.6s0.5-1,0.7-1.6c0.1-0.3,0.3-0.6,0.4-0.9
		c0.2-0.3,0.1-0.6-0.1-0.9c-0.2-0.2-0.3-0.2-0.5-0.2c-0.2,0-0.4,0.1-0.6,0.2c-0.2,0.1-0.4,0.2-0.6,0.3c-4.1,1.5-7.5,4-10.1,7.4
		c-0.4,0.5-0.6,1-0.7,1.5s0,1,0.2,1.4s0.5,0.8,0.9,1.2s0.9,0.6,1.5,0.9c0.1,0,0.2,0.1,0.2,0.1c0.2,0,0.3-0.1,0.4-0.2
		s0.3-0.2,0.4-0.2c2.4-1.1,4.7-2.1,7.1-3.2c2.3-1.1,4.8-2,7.2-2.8c0.7-0.3,1.6-0.5,2.5-0.8c0.9-0.3,1.9-0.6,2.9-0.8s2-0.5,3-0.6
		c0.5-0.1,0.9-0.1,1.3-0.2c1.8-2.7,3.9-5.3,6.3-7.7c0.4-0.4,0.9-0.8,1.5-1.3s1.2-0.8,1.8-1.2s1.3-0.7,2-0.9c0.7-0.2,1.3-0.3,1.9-0.3
		c0.8,0,1.7,0.1,2.5,0.4c0.8,0.3,1.6,0.6,2.3,1.1c0.7,0.4,1.3,0.9,1.9,1.4c0.5,0.5,0.9,1,1.1,1.6c0.2,0.4,0.3,0.7,0.4,1.1
		c0.1,0.4,0.1,0.8,0,1.2c-0.2,1.3-0.7,2.5-1.3,3.5c-0.7,1-1.5,1.9-2.5,2.8c-0.5,0.4-1,0.5-1.5,0.5s-1.1-0.2-1.7-0.5
		c-0.6-0.3-1.1-0.8-1.5-1.4c-0.2-0.3-0.4-0.5-0.5-0.5c-0.1,0-0.3,0.2-0.5,0.4c-1.4,1.8-2.8,3.8-4,5.7s-2.4,4-3.4,6.1
		c-0.4,0.7-0.7,1.5-0.9,2.3c-0.2,0.8-0.4,1.6-0.6,2.4c-0.1,0.2-0.1,0.4-0.2,0.6c0,0.2,0,0.4,0.2,0.6c0.1,0.1,0.2,0.1,0.3,0.1
		c0.2,0,0.3,0,0.4-0.1s0.3-0.1,0.4-0.2c3.1-1.1,6-2.5,8.7-4.1c2.7-1.6,5.3-3.4,7.9-5.4c1.7-1.3,3.3-2.6,5-3.9c0.4-0.3,0.9-0.7,1.3-1
		c0.6-1.2,1.3-2.3,2.1-3.3c1-1.3,2-2.7,3.1-4c0.5-0.7,1-1,1.8-1c0.5,0,1,0.2,1.6,0.4s1,0.6,1.4,0.9c0.8,0.7,1.2,1.2,1.4,1.8
		c0.2,0.6,0,1.3-0.5,2.1c-0.5,1-1.1,2-1.6,2.9s-1.1,1.9-1.7,2.9c-0.6,1.1-1.2,2.2-1.7,3.3c-0.5,1.1-1,2.4-1.4,3.7
		c1.5-0.6,3-1.4,4.5-2.4s3-2.3,4.4-3.6s2.7-2.7,4-4.1c1.2-1.4,2.2-2.8,3-4c0.5-0.7,0.9-1.4,1.4-2.1c0.5-0.7,1-1.4,1.5-2.1
		c0.5-0.6,1-0.8,1.5-0.8c0.3,0,0.7,0.1,1.1,0.2c0.7,0.3,1.2,0.7,1.7,1.2c0.4,0.4,0.6,0.8,0.7,1.3c0.1,0.4,0,0.9-0.3,1.5
		c-1.1,2.2-2.3,4.4-3.5,6.6s-2.4,4.3-3.6,6.5c-0.5,0.8-0.9,1.7-1.3,2.6c-0.4,0.9-0.6,1.9-0.7,3c0.5-0.3,1-0.6,1.5-0.9
		c0.4-0.3,0.8-0.7,1.3-1c2.1-1.8,4-3.7,5.8-5.7s3.6-4,5.6-5.9c0.3-0.3,0.7-0.6,1-0.9c0.4-0.3,0.7-0.6,1.1-0.9
		c0.3-0.3,0.6-0.4,0.9-0.4c0.4,0,0.8,0.2,1.1,0.5c0.2,0.2,0.2,0.3,0.3,0.4c0,0.1,0,0.2-0.1,0.4c-0.1,0.1-0.2,0.2-0.3,0.3
		s-0.2,0.2-0.3,0.3c-0.9,1.4-1.9,2.7-3,4c-1.1,1.2-2.2,2.5-3.3,3.6s-2.3,2.3-3.5,3.5s-2.3,2.3-3.5,3.5c-0.3,0.3-0.6,0.6-1,0.9
		c-0.4,0.3-0.8,0.6-1.2,0.9c-0.4,0.3-0.8,0.5-1.3,0.6s-0.8,0.2-1.2,0.2c-1.2,0-2.3-0.6-3.3-1.9c-0.8-1-1.3-2-1.5-3.2
		c-0.2-1.2-0.3-2.4-0.3-3.6h-0.2c-0.2,0-0.4,0.1-0.5,0.2c-0.1,0.1-0.2,0.2-0.3,0.3c-0.9,0.8-1.8,1.7-2.7,2.4s-1.9,1.5-2.9,2.3
		c-1.1,0.8-2.3,1.2-3.6,1.2c-1.4,0-2.6-0.4-3.7-1.4c-1.1-0.9-1.8-2.2-2-3.8c-0.2-1-0.2-2-0.2-2.9c-1,0.9-2,1.8-3,2.6
		c-2,1.8-4,3.5-6.1,5.2C716.4,130.3,714.3,131.9,712.1,133.5z M578.3,75.8c-7.1,8.3-13.9,16.8-20.4,25.4
		c-6.5,8.6-12.8,17.5-18.8,26.6c-1.7,2.6-3.4,5.1-5.1,7.6s-3.5,5-5.4,7.4c-1.1,1.4-2.2,2.7-3.5,3.9c-0.9,0.9-2,1.4-3.1,1.4
		c-0.7,0-1.4-0.2-2-0.5c-1.7-0.7-3-1.6-3.9-2.8c-0.9-1.2-1.5-2.7-1.8-4.5c-0.3-3-0.3-6,0-8.8c0.3-2.9,0.8-5.8,1.5-8.7
		c1.4-5.9,3.1-11.6,5.2-17.1c2.1-5.5,4.5-11,6.9-16.4c1.1-2.4,2.2-4.8,3.3-7.2c1.1-2.3,2.3-4.7,3.5-7c0.3-0.4,0.5-0.9,0.8-1.4
		c0.3-0.4,0.5-0.9,0.8-1.4c0.5-0.7,0.9-1.3,1.3-1.7c0.4-0.4,0.9-0.6,1.4-0.6c0.3,0,0.7,0.1,1.1,0.2c0.4,0.1,0.8,0.3,1.2,0.5
		c0.4,0.2,0.8,0.4,1.1,0.7s0.7,0.4,1,0.6c1,0.8,1.7,1.5,1.9,2.2c0.2,0.7,0.2,1.7-0.2,2.9c-0.9,3.1-2,6.2-3.3,9.2s-2.5,6-3.8,9
		c-2.3,5.7-4.6,11.3-6.8,17c-2.2,5.7-4.2,11.5-5.8,17.4c-0.3,0.9-0.5,1.8-0.7,2.7s-0.4,1.8-0.7,2.7c0,0.1,0,0.1,0,0.2
		c0,0.1,0,0.1,0,0.2c0.1,0.1,0.2,0.1,0.2,0.1c1-1.5,2.1-2.9,3.2-4.3c1.1-1.4,2.1-2.8,3.1-4.3c7.2-10.5,14.8-20.8,22.5-31
		c7.7-10.1,15.7-20.1,24-29.8c0.7-0.7,1.3-1.5,1.8-2.3c0.6-0.8,1.2-1.5,1.8-2.3c0.5-0.5,0.9-0.9,1.2-1.2s0.8-0.4,1.2-0.4
		c0.5,0,1,0.2,1.5,0.4c2.6,1.2,3,3,1.3,5.3c-1.2,1.7-2.5,3.4-3.8,4.9C581,72.6,579.6,74.2,578.3,75.8z M573,108.4
		c-2.5,5.5-4.8,11.1-6.9,16.6c-2.1,5.6-4.1,11.2-6.1,16.9c-0.7,2-1.2,4.1-1.5,6.1c-0.3,2.1-0.5,4.1-0.6,6.3c0,0.8,0.3,1.5,0.8,2.1
		c0.4,0.4,0.5,0.8,0.4,1.1s-0.5,0.5-1.1,0.6c-0.3,0-0.6,0-0.8-0.1s-0.5-0.1-0.8-0.2c-0.9-0.3-1.8-0.8-2.6-1.4
		c-0.8-0.6-1.5-1.2-2.1-1.9s-1-1.4-1.3-2c-0.3-0.7-0.4-1.2-0.3-1.7c0.3-3.1,0.7-5.9,1.3-8.2s1.1-4.6,1.8-6.7
		c1.7-5.2,3.7-10.3,5.8-15.3c2.2-5,4.4-9.9,6.7-14.9c1.3-2.7,2.5-5.3,3.6-8.1s2.4-5.4,3.9-8c1.8-3,3.5-6.1,5.2-9
		c1.7-3,3.6-5.8,5.8-8.6c0.8-0.9,1.6-1.9,2.4-2.8s1.7-1.8,2.8-2.5c0.4-0.3,0.8-0.4,1.4-0.4c0.4,0,0.8,0.1,1.2,0.2
		c0.4,0.1,0.8,0.3,1.1,0.6s0.7,0.5,0.9,0.8c0.2,0.3,0.4,0.7,0.5,1c0,0.2,0,0.4-0.1,0.6s-0.2,0.3-0.2,0.5c-0.3,0.4-0.6,0.9-0.8,1.4
		c-0.3,0.5-0.5,0.9-0.9,1.4c-3.8,5.6-7.3,11.3-10.4,17.2C578.8,96.3,575.8,102.3,573,108.4z M581.5,123.7c-0.1,0.2-0.2,0.4-0.3,0.7
		c-0.1,0.2-0.1,0.5-0.1,0.8c0.2-0.1,0.3-0.1,0.3-0.2c2.5-2.2,4.7-4.6,6.7-7.2c2-2.6,3.9-5.2,5.8-7.9c0.1-0.1,0.1-0.2,0.2-0.3
		c0.1-0.1,0.1-0.2-0.1-0.3c-0.1-0.1-0.2-0.2-0.3-0.2s-0.2,0.1-0.3,0.2s-0.2,0.2-0.3,0.2c-2.6,1.9-4.8,4-6.8,6.3
		C584.5,118.1,582.8,120.8,581.5,123.7z M623.3,122.4c0.1-0.1,0.1-0.3,0.2-0.4s0.1-0.3,0-0.5c-0.5,0.7-1.1,1.3-1.6,2
		c-0.5,0.6-1.1,1.3-1.6,1.9c-0.7,0.8-1.4,1.6-2.2,2.4c-0.7,0.8-1.5,1.5-2.4,2.2c-0.8,0.7-1.8,1.1-2.9,1.1c-0.5,0-1-0.1-1.5-0.2
		c-1.1-0.3-2.1-0.8-3-1.5c-0.9-0.7-1.7-1.5-2.3-2.4c-0.6-0.9-1.1-1.9-1.4-3c-0.5,0.7-1.1,1.4-1.7,2.1c-0.5,0.6-1.1,1.2-1.7,1.8
		c-0.6,0.6-1.3,1.1-2,1.6c-0.7,0.5-1.5,0.9-2.3,1.1c-0.8,0.3-1.6,0.4-2.5,0.4c-1.5,0-2.8-0.5-4-1.4c-1.2-1-2.1-2.3-2.6-4.2
		c-0.3,0.1-0.5,0.2-0.6,0.5s-0.3,0.4-0.4,0.6c-0.5,0.6-1,1.1-1.5,1.6c-0.5,0.6-1,1.1-1.5,1.6c-0.7,0.6-1.3,1.2-2,1.5
		s-1.4,0.6-2.2,0.6c-0.7,0-1.5-0.2-2.3-0.5c-1.4-0.6-2.5-1.3-3.3-2.3s-1.3-2.2-1.4-3.8c-0.1-1.5,0-2.9,0.3-4.3
		c0.3-1.4,0.8-2.7,1.5-4.1c2.6-5.6,6.6-9.7,12-12.5c1.5-0.8,3-1.2,4.5-1.2c1.9,0,3.9,0.6,5.8,1.8c0.2,0.1,0.4,0.2,0.5,0.3
		c0.2,0.1,0.4,0.1,0.6,0.1h0.2c0.4,0,0.7,0,1,0.1c0.2,0,0.6,0.1,1,0.3c0.5,0.2,0.9,0.4,1.2,0.6c0.3,0.2,0.5,0.4,0.6,0.7
		c0.1,0.3,0.1,0.6,0,0.9c-0.1,0.4-0.2,0.8-0.4,1.3c-0.7,1.9-1.6,3.8-2.6,5.6s-2,3.6-2.9,5.4c-0.4,0.7-0.8,1.5-1.1,2.3
		c-0.3,0.8-0.6,1.6-0.8,2.4c-0.1,0.3-0.1,0.6-0.2,0.9s0,0.6,0,1c0.5-0.2,1-0.4,1.4-0.7c0.4-0.3,0.8-0.6,1.2-0.9
		c1.6-1.4,3.2-2.8,4.6-4.2c1.2-1.1,2.3-2.3,3.5-3.4c0.2-0.7,0.4-1.3,0.7-2c0.7-1.5,1.5-2.9,2.5-4.2c1-1.3,2.2-2.5,3.5-3.5
		s2.5-1.9,3.8-2.6c1.5-0.8,2.9-1.2,4.3-1.2c0.8,0,1.5,0.1,2.1,0.3s1.2,0.4,1.8,0.8c0.5,0.3,1.1,0.7,1.6,1.1c0.5,0.4,1,0.8,1.5,1.3
		c0.9-1.3,1.8-2.9,2.8-4.6s2.1-3.6,3.2-5.5c1.1-1.9,2.3-3.9,3.5-5.9c1.2-2,2.4-4,3.6-5.9c1.2-1.9,2.4-3.7,3.6-5.4s2.4-3.2,3.5-4.4
		c1.2-1.3,2.3-2.3,3.3-3c1.1-0.7,2.1-1.1,3.1-1.1c0.8,0,1.6,0.3,2.3,0.9c0.7,0.6,0.8,1.3,0.2,2.1c-1.8,2.5-3.4,5-4.8,7.7
		c-1.4,2.7-2.8,5.3-4.3,8c-4.5,8.2-8.8,16.6-12.9,25.1s-7.8,17.1-11,25.9c-0.5,1.3-1,2.6-1.6,3.9c-0.6,1.3-1.2,2.5-1.8,3.8
		c-0.3,0.7-0.8,1.1-1.5,1.1c-0.3,0-0.6-0.1-0.9-0.2c-0.9-0.3-1.6-0.8-2-1.4c-0.4-0.6-0.5-1.4-0.4-2.4c0.2-1.8,0.6-3.7,1.3-5.9
		c0.7-2.1,1.4-4.3,2.3-6.4c0.9-2.1,1.8-4.2,2.8-6.3C621.6,125.8,622.5,124,623.3,122.4z M613.1,123.7c2.2-1.9,4.1-4,5.9-6.2
		s3.5-4.5,5.2-6.8c0.1-0.2,0.2-0.3,0.2-0.4s0-0.2-0.2-0.4c-0.1-0.1-0.2-0.2-0.3-0.3c-0.1-0.1-0.2-0.2-0.4-0.2s-0.5,0.1-0.8,0.4
		c-0.4,0.3-0.7,0.4-0.8,0.5c-1,0.7-2,1.6-3,2.6c-1,1.1-2,2.2-2.9,3.4c-0.9,1.2-1.6,2.5-2.3,3.8c-0.6,1.3-1,2.6-1.1,3.9
		c0.2-0.1,0.3-0.2,0.3-0.2C613,123.8,613.1,123.8,613.1,123.7z M654.9,107.4c-1.8,1.3-3.4,2.8-4.7,4.5c-1.3,1.7-2.5,3.6-3.6,5.5
		c1.1-0.1,2.2-0.4,3.2-1s2.1-1.3,3.1-2.1s1.7-1.8,2.4-2.8s1-2,1.2-3c0.1-0.3,0.1-0.5,0.1-0.8c0-0.3-0.1-0.5-0.3-0.7
		c-0.1-0.1-0.2-0.1-0.3-0.1c-0.2,0-0.4,0.1-0.6,0.2C655.2,107.1,655.1,107.2,654.9,107.4z M445.8,131.6c-1.2-0.7-2-1.4-2.3-2.2
		c-0.3-0.7-0.2-1.8,0.3-3.2c0.8-2.2,1.7-4.3,2.7-6.4c1-2.1,2.1-4.1,3.3-6.1s2.4-3.9,3.7-5.8c1.3-1.9,2.6-3.8,3.9-5.7
		c0.5-0.7,1.1-1,1.8-1c0.5,0,1.1,0.1,1.7,0.4c0.6,0.3,1.1,0.6,1.5,0.9c0.4,0.3,0.6,0.6,0.9,1c0.2,0.4,0.2,0.8,0,1.3
		c-0.1,0.2-0.1,0.4-0.1,0.5s0.2,0.2,0.5,0.3c0.7,0,1.5,0.2,2.1,0.5c0.7,0.3,1.4,0.5,2.1,0.7c0.2,0,0.3,0.1,0.4,0.1
		c0.1,0,0.2,0,0.4,0c0.5,0,1.1-0.2,1.8-0.5c0.8-0.5,1.5-1,2.3-1.6c0.8-0.5,1.6-1,2.4-1.4c0.4-0.2,0.7-0.2,1-0.2
		c0.4,0,0.8,0.2,1.3,0.5c0.3,0.2,0.5,0.4,0.6,0.6c0.1,0.2,0,0.5-0.3,0.8c-0.3,0.3-0.4,0.6-0.5,1c0,0.4-0.1,0.7-0.2,1.1
		c-0.1,0.7-0.3,1.2-0.6,1.8c-0.3,0.5-0.7,1-1.2,1.4s-1,0.7-1.6,0.8c-0.6,0.2-1.2,0.3-1.9,0.3c-0.7-0.1-1.5-0.2-2.3-0.5
		c-0.8-0.2-1.6-0.5-2.4-0.8c-0.3-0.1-0.6-0.2-0.9-0.2c-0.5,0-1,0.2-1.5,0.7c-2.9,2.6-5.4,5.5-7.7,8.7c-2.3,3.2-4,6.6-5.2,10.3
		c-0.1,0.3-0.2,0.6-0.3,0.9c-0.1,0.3-0.2,0.6-0.4,0.9c-0.3,0.6-0.5,0.9-0.8,1.2s-0.6,0.4-1,0.4c-0.6,0-1.2-0.1-1.9-0.4
		C446.8,132.1,446.2,131.8,445.8,131.6z M425.8,77.8c-3.2,5.5-6.3,11-9.1,16.6c-2.8,5.6-5.6,11.2-8.5,16.9c-0.3,0.6-0.5,1.1-0.8,1.7
		c-0.3,0.6-0.6,1.2-1,2c1.4-0.4,2.8-0.8,4.3-1.1c1.5-0.3,3-0.4,4.5-0.4c0.7,0,1.4,0.1,2,0.4c0.6,0.3,1.2,0.7,1.7,1.1
		c0.8,0.8,0.7,1.4-0.4,1.7c-2.2,0.7-4.4,1.6-6.4,2.6c-2.1,1.1-4.1,2.2-6.1,3.3c-1,0.6-1.9,1.2-2.7,1.8c-0.8,0.7-1.5,1.6-1.9,2.7
		c-0.4,0.8-0.8,1.5-1.3,1.9c-0.5,0.4-1.2,0.6-2,0.6c-0.5,0-1-0.1-1.5-0.2c-0.1,0-0.3-0.1-0.6-0.1c-0.4,0-0.7,0.1-1.1,0.3
		c-0.9,0.6-2,1.4-3.2,2.3s-2.4,1.9-3.6,2.9s-2.3,2.1-3.3,3.2c-1,1.1-1.8,2.2-2.2,3.3c-0.1,0.2-0.2,0.5-0.3,0.7
		c-0.1,0.2-0.1,0.5,0.1,0.7c0.1,0.2,0.3,0.2,0.5,0.2c0.1,0,0.3,0,0.4-0.1c0.1,0,0.3-0.1,0.5-0.1c3.8-0.7,7.4-1.9,10.9-3.6
		c3.5-1.7,6.8-3.6,10-5.8c6.8-4.7,12.9-10,18.2-15.8c5.4-5.9,10.2-12.3,14.4-19.3c1.5-2.4,2.8-4.8,3.9-7.3c1.2-2.5,2-5.1,2.6-7.8
		c0.2-1,0.4-2.1,0.5-3.1c0.1-1.1,0-2.1-0.3-3.2c-0.1-0.5-0.3-0.9-0.6-1.1c-0.3-0.3-0.7-0.4-1.2-0.5c-0.6-0.1-1.3-0.1-2-0.2
		c-0.7-0.1-1.3-0.1-2-0.1c-1.7,0-3.4,0.1-5,0.3s-3.3,0.5-5,0.8c-0.5,0.1-1,0.3-1.3,0.5C426.4,77,426.1,77.4,425.8,77.8z M379.8,94.3
		c-0.4,0.2-0.9,0.3-1.5,0.3c-0.5,0-1-0.1-1.5-0.2s-1-0.3-1.4-0.6c-0.5-0.2-0.9-0.5-1.2-0.8c-0.4-0.3-0.6-0.7-0.7-1.1
		c-0.2-0.4-0.2-0.7,0-0.9c0.1-0.3,0.3-0.5,0.6-0.7c0.6-0.7,1.3-1.2,2.1-1.7c0.7-0.5,1.5-1,2.3-1.4c6.1-3.8,12.5-7,19.1-9.6
		c6.6-2.7,13.4-4.9,20.3-6.8c0.7-0.2,1.3-0.6,1.8-1.3c0.6-1,1.3-2,2-3c0.7-1,1.4-1.9,2.2-2.9c0.5-0.6,0.9-1,1.3-1.3
		c0.4-0.3,0.9-0.4,1.4-0.4c0.6,0,1.4,0.2,2.2,0.5c0.8,0.4,1.5,0.7,2,1.1c0.8,0.6,1.3,1.2,1.5,1.7c0.1,0.5,0,1.2-0.5,2.2
		c-0.2,0.5-0.3,0.8-0.2,0.9s0.3,0.2,0.7,0.2h0.4c2.8,0,5.4,0.3,7.8,0.8c2.5,0.5,4.9,1.5,7.3,2.9c0.8,0.5,1.6,1.1,2.4,1.7
		c0.8,0.6,1.4,1.2,2,1.9s1.1,1.5,1.5,2.3c0.4,0.8,0.7,1.8,0.9,2.8c0.3,1.4,0.3,2.8,0.1,4.2s-0.5,2.7-0.9,4.1
		c-0.7,2.5-1.7,4.9-2.8,7.1c-1.1,2.3-2.3,4.5-3.7,6.7c-5.7,8.9-12.2,16.7-19.8,23.6c-7.5,6.9-16.1,12.5-25.8,16.9
		c-1.2,0.6-2.5,1.1-3.8,1.6s-2.6,0.9-4,1.3s-2.7,0.7-4.1,0.9c-1.4,0.2-2.7,0.4-4,0.4c-1.5,0-2.8-0.2-4.1-0.6c-1.3-0.4-2.5-1.1-3.7-2
		c-1.4-1.1-2.3-2.3-2.7-3.7c-0.4-1.4-0.3-3,0.4-4.6c0.5-1.5,1.4-2.8,2.4-4.1s2.3-2.6,3.6-3.7c1.3-1.2,2.7-2.2,4.1-3.2
		c1.4-1,2.8-1.8,4.1-2.5c0.7-0.4,1.2-0.8,1.7-1.3c0.5-0.5,0.8-1.1,1.1-1.9c1.3-3.2,2.6-6.4,4.1-9.5s3-6.2,4.6-9.2
		c1.6-3.1,3.2-6.1,4.9-9.1c1.7-3,3.3-6,5-9c0.3-0.4,0.5-0.9,0.8-1.4c0.3-0.5,0.6-1,0.9-1.7c-5.7,1.9-11.3,3.9-16.9,6.2
		C390.4,88.6,385,91.2,379.8,94.3z"/>
	<path class="st0" d="M585.9,234.6c-0.1,0.3-0.2,0.5-0.4,0.8s-0.2,0.6-0.1,0.9c0.3-0.1,0.4-0.1,0.4-0.2c3-2.7,5.7-5.6,8-8.7
		c2.4-3.1,4.7-6.3,7-9.6c0.1-0.1,0.2-0.2,0.3-0.4c0.1-0.1,0.1-0.2-0.1-0.4c-0.1-0.1-0.2-0.2-0.3-0.2c-0.1,0-0.2,0.1-0.3,0.2
		c-0.1,0.1-0.2,0.2-0.3,0.3c-3.1,2.3-5.8,4.8-8.3,7.6C589.4,227.9,587.5,231.1,585.9,234.6z M634.1,230.6c0.3-1.1,0.7-2.2,1.1-3.2
		c0.4-1,0.8-2.1,1.3-3.1c0.1-0.2,0.2-0.4,0.3-0.6c0.1-0.2,0.2-0.5,0.1-0.7c-0.3,0-0.5,0.1-0.7,0.3c-0.1,0.2-0.3,0.3-0.4,0.5
		c-2.3,2.2-4.4,4.6-6.4,7s-4,4.8-6.1,7.2c-0.5,0.6-1.1,1.2-1.6,1.8c-0.5,0.6-1.1,1.2-1.6,1.8c-0.6,0.6-1.3,0.9-2.1,0.9
		c-0.2,0-0.4,0-0.6-0.1s-0.4-0.1-0.6-0.2c-1.4-0.4-2.5-1.2-3.3-2.3c-0.7-0.9-1.1-1.8-1.2-2.9c-0.2,0.2-0.3,0.4-0.5,0.5
		c-0.6,0.7-1.3,1.5-2.1,2.2c-0.7,0.7-1.5,1.3-2.4,1.9s-1.8,1-2.7,1.4c-1,0.4-2,0.5-3,0.5c-1.8,0-3.4-0.6-4.9-1.7
		c-1.5-1.2-2.5-2.8-3.1-5c-0.3,0.1-0.5,0.3-0.7,0.6c-0.2,0.2-0.3,0.5-0.5,0.7c-0.6,0.7-1.2,1.3-1.8,2s-1.2,1.3-1.8,2
		c-0.8,0.8-1.6,1.4-2.4,1.9c-0.8,0.4-1.7,0.7-2.7,0.7c-0.9,0-1.8-0.2-2.8-0.6c-1.7-0.7-3.1-1.6-4.1-2.8c-1-1.2-1.5-2.7-1.7-4.6
		c-0.2-1.8,0-3.5,0.4-5.2c0.4-1.7,1-3.3,1.8-4.9c0.6-1.2,1.2-2.3,1.8-3.4c-1,0.3-1.9,0.6-2.9,0.9c-6.3,2.2-12.6,4.6-18.7,7.4
		c-0.2,0.1-0.4,0.2-0.7,0.3c-0.2,0.1-0.5,0.2-0.9,0.4c0.9,0.5,1.7,1,2.4,1.5c0.7,0.5,1.4,1.1,1.9,1.8c1.4,1.7,2,3.4,1.9,5.1
		s-0.9,3.3-2.4,4.8c-1.8,1.8-3.9,3.1-6.1,3.9s-4.6,1.5-7,1.9c-1.1,0.2-2.2,0.4-3.4,0.4c-0.8,0-1.7-0.1-2.6-0.3
		c-0.9-0.2-1.8-0.4-2.7-0.8c-0.9-0.4-1.7-0.8-2.5-1.3c-0.8-0.5-1.4-1.1-2-1.8c-1.7-2.1-1.6-3.9,0.3-5.6c1.8-1.5,3.6-3.1,5.4-4.6
		s3.7-2.9,5.6-4.3c0.2-0.1,0.3-0.2,0.5-0.3c0.2-0.1,0.4-0.2,0.6-0.4c-0.5-0.4-1.1-0.8-1.6-1.1c-0.5-0.3-1-0.7-1.5-1
		c-0.9-0.7-1.8-1.5-2.7-2.3c-0.2-0.2-0.3-0.3-0.5-0.5c-0.3,0.2-0.5,0.5-0.8,0.7c-2.4,2.1-4.9,4.2-7.3,6.3c-2.4,2.1-4.9,4.2-7.3,6.3
		s-5,4-7.7,5.9c-2,1.4-4.1,2.2-6.2,2.2c-1.7,0-3.4-0.5-5.2-1.5c-2.3-1.2-4.1-2.8-5.6-4.6c-1.5-1.8-2.2-4.1-2.4-6.9
		c0-0.5,0-1,0.1-1.5c-0.6,0.7-1.3,1.3-2,2c-1.4,1.4-2.8,2.8-4.2,4.3c-0.3,0.4-0.7,0.7-1.1,1.1c-0.5,0.4-0.9,0.7-1.4,1
		s-1,0.6-1.6,0.8c-0.5,0.2-1,0.3-1.5,0.3c-1.4,0-2.7-0.8-4-2.3c-1-1.2-1.6-2.5-1.9-3.9c-0.3-1.4-0.4-2.9-0.4-4.4H479
		c-0.3,0-0.5,0.1-0.6,0.2s-0.2,0.3-0.4,0.4c-1.1,1-2.2,2-3.3,2.9s-2.3,1.9-3.5,2.8c-1.4,1-2.8,1.5-4.4,1.5c-1.6,0-3.1-0.6-4.4-1.6
		c-1.3-1.1-2.1-2.6-2.4-4.6c-0.3-1.8-0.3-3.6,0-5.4c0.3-1.7,0.9-3.4,1.7-5.1c0.9-1.9,2-3.6,3.2-5.3c1.2-1.6,2.5-3.2,3.7-4.9
		c0.5-0.8,1.3-1.2,2.2-1.2c0.6,0,1.3,0.2,1.9,0.5s1.2,0.7,1.7,1.1c0.9,0.8,1.5,1.5,1.7,2.2s0,1.5-0.6,2.6c-0.6,1.2-1.3,2.4-2,3.6
		s-1.4,2.3-2,3.5c-0.7,1.3-1.4,2.6-2.1,4s-1.2,2.9-1.6,4.5c1.8-0.7,3.6-1.6,5.4-2.9c1.9-1.3,3.6-2.7,5.4-4.3c1.7-1.6,3.3-3.2,4.8-5
		c1.5-1.7,2.7-3.3,3.6-4.8c0.5-0.9,1.1-1.7,1.7-2.6c0.6-0.8,1.2-1.7,1.9-2.5c0.5-0.7,1.2-1,1.9-1c0.4,0,0.8,0.1,1.3,0.3
		c0.8,0.4,1.5,0.8,2.1,1.4c0.5,0.5,0.8,1,0.9,1.5s0,1.1-0.4,1.8c-1.4,2.7-2.8,5.4-4.2,8c-1.4,2.6-2.9,5.2-4.4,7.9
		c-0.5,1-1.1,2.1-1.5,3.2c-0.5,1.1-0.7,2.3-0.8,3.6c0.7-0.3,1.2-0.7,1.8-1.1s1-0.8,1.5-1.2c2.5-2.2,4.8-4.4,7-6.9
		c1.9-2.1,3.9-4.3,5.9-6.3c0.8-1.5,1.7-2.9,2.6-4.3c2.3-3.5,5-6.8,8.1-9.9c0.5-0.5,1.1-1,1.8-1.6c0.7-0.5,1.4-1,2.2-1.4
		c0.8-0.4,1.6-0.8,2.4-1.1c0.8-0.3,1.6-0.4,2.3-0.4c1,0,2,0.2,3,0.5s1.9,0.8,2.8,1.3s1.6,1.1,2.3,1.7c0.7,0.6,1.1,1.2,1.4,1.9
		c0.2,0.4,0.3,0.9,0.5,1.4s0.1,0.9,0.1,1.4c-0.3,1.6-0.8,3-1.6,4.3c-0.8,1.2-1.8,2.4-3,3.4c-0.5,0.4-1.2,0.6-1.8,0.6
		c-0.7,0-1.3-0.2-2.1-0.6c-0.7-0.4-1.3-1-1.8-1.7c-0.3-0.4-0.5-0.6-0.7-0.6c-0.1,0-0.3,0.2-0.7,0.5c-1.7,2.2-3.3,4.5-4.8,6.9
		c-1.5,2.4-2.9,4.8-4.1,7.3c-0.4,0.9-0.8,1.8-1.1,2.8c-0.3,0.9-0.5,1.9-0.7,2.9c-0.1,0.2-0.1,0.5-0.2,0.7c-0.1,0.2,0,0.5,0.2,0.7
		c0.1,0.1,0.2,0.1,0.4,0.1c0.2,0,0.4-0.1,0.5-0.1c0.2-0.1,0.3-0.2,0.5-0.2c3.7-1.3,7.2-3,10.5-4.9c3.3-2,6.5-4.1,9.5-6.6
		c2-1.6,4-3.1,6-4.7c0.4-0.3,0.8-0.6,1.2-0.9c-0.1-0.5-0.2-1-0.2-1.5c0-1.1,0.4-2.1,1.2-3c1.2-1.5,2.6-2.9,4-4.3
		c1.4-1.4,3-2.5,4.6-3.6c1.7-1,3.4-1.8,5.2-2.4c1.8-0.6,3.8-0.9,5.8-0.9c3.7,0,7,1.3,9.9,3.9c3,2.7,3,5.4,0.1,8.1
		c-0.5,0.6-1.1,1.1-1.7,1.5c-0.5,0.5-1.1,1-1.6,1.5c-0.4,0.4-0.8,0.6-1.3,0.6c-0.5,0-1-0.2-1.5-0.5c-0.5-0.2-0.9-0.6-1.2-0.9
		c-0.3-0.4-0.3-0.9-0.2-1.5c0.2-0.7,0.5-1.3,0.8-1.9s0.6-1.2,0.8-1.9c0.2-0.4,0.3-0.7,0.5-1.1c0.2-0.4,0.2-0.8-0.1-1.1
		c-0.2-0.2-0.4-0.3-0.6-0.3c-0.2,0-0.5,0.1-0.8,0.2s-0.5,0.3-0.8,0.4c-5,1.8-9,4.8-12.2,9c-0.5,0.6-0.7,1.2-0.8,1.9s0,1.2,0.2,1.7
		c0.2,0.5,0.6,1,1.1,1.4s1.1,0.8,1.8,1.1c0.1,0,0.2,0.1,0.3,0.1c0.2,0,0.4-0.1,0.5-0.2c0.2-0.1,0.3-0.2,0.5-0.3
		c2.9-1.3,5.7-2.6,8.5-3.9c2.8-1.3,5.8-2.4,8.7-3.4c0.9-0.3,1.9-0.6,3.1-1s2.3-0.7,3.5-1c1.2-0.3,2.4-0.6,3.6-0.8
		c0.9-0.1,1.8-0.2,2.6-0.3c2.7-3.1,5.9-5.6,9.7-7.5c1.8-0.9,3.7-1.4,5.5-1.4c2.3,0,4.7,0.7,7,2.2c0.2,0.1,0.5,0.2,0.7,0.3
		c0.2,0.1,0.4,0.1,0.7,0.1h0.3c0.5,0,0.8,0,1.2,0.1c0.3,0,0.7,0.2,1.2,0.4c0.6,0.2,1.1,0.5,1.5,0.7c0.3,0.2,0.6,0.5,0.7,0.9
		c0.1,0.3,0.1,0.7,0.1,1.1s-0.2,0.9-0.5,1.5c-0.9,2.4-2,4.6-3.2,6.8c-1.2,2.2-2.4,4.4-3.5,6.6c-0.5,0.9-0.9,1.8-1.3,2.8
		c-0.4,0.9-0.7,1.9-1,2.9c-0.1,0.4-0.2,0.8-0.2,1.1c-0.1,0.4,0,0.7,0,1.2c0.6-0.2,1.2-0.5,1.7-0.9c0.5-0.4,1-0.8,1.4-1.1
		c2-1.6,3.8-3.3,5.6-5.1c1.3-1.2,2.5-2.4,3.8-3.7c0.1-0.3,0.2-0.6,0.3-0.9c0.8-2.5,1.9-4.8,3.1-6.9c1.2-2.2,2.8-4.2,4.5-6.1
		c0.6-0.6,1.3-0.9,1.9-0.9c0.6,0,1.2,0.2,1.8,0.5c0.7,0.3,1.2,0.7,1.6,1c1,0.8,1.7,1.5,1.9,2.2s0.1,1.6-0.5,2.8
		c-0.7,1.7-1.5,3.4-2.3,5.1c-0.8,1.7-1.6,3.4-2.4,5.1c-0.2,0.3-0.3,0.6-0.4,0.9c-0.1,0.3-0.2,0.6-0.2,1c0.7-0.7,1.4-1.5,2.1-2.2
		c0.7-0.7,1.4-1.5,2.1-2.2c2.3-2.6,4.7-5.1,7.2-7.5c2.5-2.4,5.1-4.7,7.6-7.1c0.6-0.6,1.2-1,1.6-1.3c0.4-0.2,0.9-0.4,1.3-0.4
		c0.5,0,1.2,0.2,1.9,0.6c1.1,0.7,1.9,1.4,2.3,2.2c0.4,0.8,0.5,1.9,0.3,3.1c-0.3,1.6-0.8,3.2-1.5,4.7c-0.7,1.5-1.4,3-2.1,4.5
		c-0.8,1.6-1.5,3.1-2.3,4.7c-0.7,1.6-1.4,3.2-1.9,5c0.5-0.4,1-0.8,1.4-1.3c0.4-0.4,0.8-0.9,1.2-1.3c1.1-1.4,2.3-2.8,3.5-4.1
		c1.2-1.4,2.5-2.6,3.9-3.9c0.4-0.3,0.7-0.6,1-0.7c0.8-1.6,1.7-3.1,2.8-4.5c1.2-1.6,2.6-3,4.2-4.2c1.5-1.2,3.1-2.3,4.6-3.1
		c1.8-0.9,3.5-1.4,5.2-1.4c0.9,0,1.8,0.1,2.6,0.3c0.8,0.2,1.5,0.5,2.2,0.9c0.7,0.4,1.3,0.8,1.9,1.3s1.2,1,1.9,1.6
		c1.1-1.6,2.2-3.5,3.4-5.6c1.2-2.1,2.5-4.3,3.9-6.6s2.7-4.7,4.2-7.2s2.9-4.9,4.3-7.2s2.9-4.5,4.4-6.6c1.5-2.1,2.9-3.9,4.3-5.4
		c1.4-1.5,2.7-2.7,4.1-3.6c1.3-0.9,2.6-1.4,3.7-1.4c1,0,1.9,0.4,2.8,1.1c0.9,0.7,0.9,1.6,0.2,2.6c-2.2,3-4.1,6.1-5.8,9.3
		c-1.7,3.2-3.4,6.5-5.2,9.7c-5.5,10-10.7,20.1-15.6,30.3c-5,10.2-9.4,20.7-13.4,31.4c-0.6,1.6-1.2,3.2-1.9,4.7s-1.4,3.1-2.2,4.6
		c-0.4,0.9-1,1.3-1.8,1.3c-0.4,0-0.8-0.1-1.1-0.2c-1.1-0.4-2-1-2.4-1.7c-0.5-0.7-0.7-1.7-0.5-2.9c0.2-2.2,0.8-4.5,1.6-7.1
		c0.8-2.6,1.7-5.1,2.8-7.8s2.2-5.1,3.4-7.6s2.2-4.7,3.2-6.6c0.1-0.2,0.2-0.3,0.2-0.5s0.1-0.4,0-0.6c-0.7,0.8-1.3,1.6-2,2.4
		c-0.7,0.8-1.3,1.5-2,2.3c-0.9,1-1.7,2-2.7,2.9c-0.9,0.9-1.9,1.8-2.9,2.7c-1,0.9-2.2,1.4-3.5,1.4c-0.5,0-1.2-0.1-1.9-0.3
		c-1.3-0.4-2.5-0.9-3.6-1.8c-1.1-0.8-2-1.8-2.8-2.9c-0.8-1.1-1.3-2.4-1.7-3.8c-0.1-0.3-0.2-0.7-0.2-1c-0.7,0.9-1.4,1.8-2.1,2.7
		c-1,1.2-1.9,2.2-2.9,3.2s-1.9,1.7-2.9,2.3s-1.8,0.9-2.6,0.9c-0.6,0-1.2-0.2-1.9-0.5c-1.4-0.7-2.5-1.5-3.4-2.5s-1.5-2.3-1.7-3.9
		c-0.1-0.9-0.1-1.8,0-2.7C633.8,232.4,634,231.6,634.1,230.6z M661.8,234.6c2.6-2.3,5-4.8,7.1-7.5c2.1-2.7,4.2-5.4,6.3-8.2
		c0.1-0.2,0.2-0.4,0.3-0.5c0.1-0.1,0-0.3-0.3-0.5c-0.2-0.1-0.3-0.2-0.4-0.4s-0.2-0.2-0.4-0.2c-0.2,0-0.5,0.2-1,0.5
		c-0.5,0.3-0.8,0.5-1,0.6c-1.2,0.8-2.4,1.9-3.7,3.1c-1.3,1.3-2.5,2.7-3.5,4.1c-1.1,1.5-2,3-2.7,4.6c-0.7,1.6-1.2,3.2-1.3,4.7
		c0.2-0.1,0.3-0.2,0.4-0.2C661.7,234.8,661.8,234.7,661.8,234.6z M552.7,236.6c0-0.6-0.1-1-0.4-1.3s-0.7-0.5-1.1-0.5
		c-0.3,0-0.7,0.1-1.1,0.3c-2.1,1.1-4,2.4-5.8,3.9c-1.8,1.4-3.4,3-5,4.8c-0.3,0.3-0.5,0.6-0.7,0.9c-0.2,0.3-0.4,0.6-0.5,1
		c-0.2,0.7,0,1,0.5,1c0,0,0.1,0,0.2,0s0.1,0,0.2,0c1.1-0.3,2.5-0.7,4-1.2c1.5-0.5,3-1.2,4.3-2c1.4-0.8,2.6-1.8,3.6-2.9
		C551.9,239.3,552.5,238,552.7,236.6z M466.4,183.4c0.3-0.4,0.5-0.8,0.4-1s-0.4-0.3-1-0.3c-0.8,0-1.7-0.1-2.5-0.1s-1.7-0.1-2.5-0.1
		c-7.1,0.2-14.1,0.9-20.9,2.1c-6.9,1.2-13.7,2.8-20.5,4.6c-0.4,0.1-0.7,0.3-0.9,0.6c-0.2,0.3-0.4,0.6-0.6,0.9
		c-1.5,3.4-3,6.7-4.6,10.1s-3.1,6.7-4.6,10.1c-0.6,1.4-1.2,2.8-1.9,4.2c-0.6,1.4-1.2,2.8-1.9,4.2c0.1,0,0.1,0.1,0.1,0.1
		c0,0,0.1,0.1,0.1,0.1c0.5-0.2,0.9-0.4,1.4-0.6c4.9-2.2,9.7-4.5,14.4-6.9s9.5-4.7,14.2-7.1c4-2,7.9-4.1,11.7-6.3
		c3.8-2.2,7.6-4.5,11.2-7.1c1.5-1.1,2.9-2.2,4.3-3.5C464,186.2,465.2,184.9,466.4,183.4z M476.9,180.6c1.6,1.7,2.4,3.4,2.4,5.1
		c0,1.6-0.7,3.4-2.3,5.1c-1.2,1.4-2.6,2.7-4.1,3.9c-1.5,1.1-3.1,2.2-4.7,3.2c-5.5,3.3-11.1,6.4-16.7,9.3c-5.7,2.8-11.4,5.6-17.1,8.4
		c-5,2.4-9.9,4.7-14.8,7c-4.9,2.3-9.9,4.6-14.8,7c-0.2,0.1-0.5,0.2-0.7,0.3c-0.2,0.1-0.5,0.3-0.7,0.6c1.5,0.1,3,0.2,4.4,0.3
		c1.4,0.1,2.9,0.2,4.3,0.4c12,1.2,23.9,3.1,35.7,5.8c0.5,0.1,0.9,0.2,1.4,0.3c0.5,0.1,0.9,0.2,1.4,0.2c1.5,0.3,2.7,1,3.6,2.2
		c0.1,0.2,0.2,0.4,0.3,0.6c0.1,0.2,0.1,0.4,0,0.6s-0.2,0.3-0.4,0.4s-0.4,0.1-0.6,0.1h-0.2h-0.5c-1.3,0-2.6-0.1-3.9-0.2
		c-1.3-0.2-2.5-0.3-3.8-0.5c-5.8-0.7-11.6-1.3-17.3-1.8c-5.8-0.5-11.6-0.8-17.4-0.8c-0.8,0-1.7,0-2.5,0s-1.7,0-2.6,0.1
		c-1.1,0.1-2.3,0.1-3.4,0.2c-1.2,0.1-2.3,0.1-3.5,0.1c-0.6,0-1.1,0.2-1.4,0.4c-0.4,0.2-0.6,0.6-0.8,1.2c-1.2,3.2-2.5,6.5-3.8,9.7
		c-1.3,3.2-2.6,6.4-3.9,9.6c-0.2,0.5-0.4,1.1-0.6,1.6s-0.5,1-0.7,1.5c-0.7,1.3-1.5,1.9-2.6,1.9c-0.9,0-1.9-0.2-3-0.7
		c-1-0.5-1.9-1-2.6-1.6c-1.3-1-2.2-2-2.5-3s-0.3-2.3,0.1-3.9c0.7-2.3,1.4-4.5,2.2-6.7c0.8-2.2,1.7-4.4,2.6-6.6
		c0.2-0.6,0.5-1.1,0.8-1.6c0.3-0.6,0.5-1.1,0.4-1.6c0-0.3-0.1-0.6-0.3-0.7c-0.2-0.2-0.4-0.3-0.7-0.5c-0.2-0.1-0.5-0.3-0.8-0.4
		c-0.3-0.1-0.5-0.3-0.7-0.6c0,0-0.1-0.1-0.1-0.1c0,0-0.1-0.1-0.1-0.1c-1.5-1.4-2.2-2.5-2.1-3.3c0.1-0.8,1.1-1.7,2.9-2.6
		c1-0.5,2-1,3.1-1.5s2.1-0.9,3.1-1.4c0.3-0.2,0.6-0.3,0.9-0.5s0.5-0.5,0.6-0.8c2.4-5.3,4.9-10.6,7.4-15.8s5.1-10.5,7.7-15.7
		c0-0.1,0.1-0.2,0.1-0.3c0-0.1,0-0.2,0.1-0.4c-2.8,1-5.6,2-8.2,3s-5.3,2.1-7.9,3.2c-2.2,1-4.5,2-6.6,3s-4.4,2-6.6,3
		c-1.2,0.6-2.5,1.2-3.7,1.9c-1.2,0.7-2.4,1.4-3.6,2.2c-0.7,0.4-1.6,0.6-2.6,0.6c-1.3,0-2.6-0.4-3.9-1.1c-1.2-0.7-2.1-1.7-2.5-2.9
		c-0.2-0.6-0.2-1,0-1.4c0.2-0.4,0.5-0.7,0.9-1.1c0.9-0.8,1.8-1.5,2.7-2.1s1.9-1.3,2.9-1.9c7-4.1,14.2-7.8,21.5-10.9s14.9-5.8,22.7-8
		c0.6-0.2,1.1-0.4,1.5-0.7s0.8-0.7,1.1-1.3c0.2-0.4,0.5-0.9,0.9-1.6s0.8-1.3,1.3-2c0.5-0.6,1-1.2,1.6-1.7c0.5-0.5,1.1-0.7,1.6-0.7
		c0.5,0,1,0.1,1.5,0.3c0.5,0.2,1.1,0.5,1.6,0.8c0.5,0.3,1,0.7,1.4,1.1s0.8,0.8,1,1.2c0.3,0.5,0.7,0.8,1.2,0.8c0.1,0,0.3,0,0.6-0.1
		c5.1-1.1,10.3-2.1,15.5-2.8c5.2-0.7,10.4-1.1,15.7-1.1c2,0,3.9,0.1,5.9,0.3c2,0.2,3.9,0.6,5.8,1.1s3.7,1.3,5.4,2.2
		C474,177.9,475.5,179.1,476.9,180.6z M733.8,234.6c-0.1,0.3-0.2,0.5-0.4,0.8c-0.1,0.2-0.2,0.6-0.1,0.9c0.3-0.1,0.4-0.1,0.4-0.2
		c3-2.7,5.7-5.6,8-8.7c2.4-3.1,4.7-6.3,7-9.6c0.1-0.1,0.2-0.2,0.3-0.4c0.1-0.1,0.1-0.2-0.1-0.4c-0.1-0.1-0.2-0.2-0.3-0.2
		c-0.1,0-0.2,0.1-0.3,0.2c-0.1,0.1-0.2,0.2-0.3,0.3c-3.1,2.3-5.8,4.8-8.3,7.6C737.3,227.9,735.4,231.1,733.8,234.6z M728.6,244
		c-1.7-0.7-3.1-1.6-4.1-2.8c-1-1.2-1.5-2.7-1.7-4.6c-0.2-1.8,0-3.5,0.4-5.2c0.4-1.7,1-3.3,1.8-4.9c3.2-6.7,8-11.8,14.6-15.2
		c1.8-0.9,3.7-1.4,5.5-1.4c2.3,0,4.7,0.7,7,2.2c0.2,0.1,0.5,0.2,0.7,0.3c0.2,0.1,0.4,0.1,0.7,0.1h0.3c0.5,0,0.8,0,1.2,0.1
		c0.3,0,0.7,0.2,1.2,0.4c0.6,0.2,1.1,0.5,1.5,0.7c0.3,0.2,0.6,0.5,0.7,0.9c0.1,0.3,0.1,0.7,0.1,1.1s-0.2,0.9-0.5,1.5
		c-0.9,2.4-2,4.6-3.2,6.8c-1.2,2.2-2.4,4.4-3.5,6.6c-0.5,0.9-0.9,1.8-1.3,2.8c-0.4,0.9-0.7,1.9-1,2.9c-0.1,0.4-0.2,0.8-0.2,1.1
		c-0.1,0.4,0,0.7,0,1.2c0.6-0.2,1.2-0.5,1.7-0.9c0.5-0.4,1-0.8,1.4-1.1c2-1.6,3.8-3.3,5.6-5.1s3.6-3.5,5.4-5.2
		c0.3-0.4,0.7-0.7,1.1-1c0.4-0.3,0.8-0.4,1.3-0.4c0.3,0,0.6,0.1,0.9,0.2c0.5,0.2,0.9,0.5,1.1,0.8c0.2,0.3,0.1,0.7-0.3,1.3
		c-1.2,1.8-2.3,3.5-3.5,5.3s-2.4,3.4-3.8,5.1c-0.6,0.7-1.3,1.5-2.1,2.2c-0.7,0.7-1.5,1.3-2.4,1.9s-1.8,1-2.7,1.4c-1,0.4-2,0.5-3,0.5
		c-1.8,0-3.4-0.6-4.9-1.7c-1.5-1.2-2.5-2.8-3.1-5c-0.3,0.1-0.5,0.3-0.7,0.6c-0.2,0.2-0.3,0.5-0.5,0.7c-0.6,0.7-1.2,1.3-1.8,2
		s-1.2,1.3-1.8,2c-0.8,0.8-1.6,1.4-2.4,1.9c-0.8,0.4-1.7,0.7-2.7,0.7C730.5,244.6,729.6,244.4,728.6,244z M690.5,244.2
		c-1.5-0.9-2.4-1.7-2.7-2.6c-0.3-0.9-0.2-2.2,0.3-3.8c0.9-2.7,2-5.2,3.2-7.8c1.2-2.5,2.5-5,4-7.4s2.9-4.7,4.5-7.1s3.2-4.6,4.8-6.9
		c0.5-0.8,1.3-1.2,2.2-1.2c0.7,0,1.3,0.2,2.1,0.5s1.3,0.7,1.8,1.1c0.4,0.4,0.8,0.7,1,1.2c0.2,0.4,0.2,1,0,1.6
		c-0.1,0.2-0.1,0.4-0.1,0.6c0,0.2,0.2,0.3,0.6,0.3c0.9,0,1.8,0.2,2.6,0.6c0.8,0.3,1.7,0.6,2.5,0.9c0.2,0,0.4,0.1,0.5,0.1
		c0.1,0,0.3,0,0.4,0c0.7,0,1.4-0.2,2.1-0.6c0.9-0.6,1.9-1.3,2.8-1.9c0.9-0.6,1.9-1.2,2.9-1.7c0.5-0.2,0.9-0.3,1.2-0.3
		c0.5,0,1,0.2,1.6,0.6c0.3,0.2,0.6,0.4,0.7,0.7c0.1,0.3,0,0.6-0.4,1c-0.3,0.4-0.5,0.8-0.6,1.2c-0.1,0.4-0.1,0.9-0.2,1.3
		c-0.1,0.8-0.3,1.5-0.7,2.1c-0.4,0.6-0.9,1.2-1.4,1.6s-1.2,0.8-1.9,1c-0.7,0.2-1.5,0.4-2.2,0.4c-0.9-0.1-1.8-0.3-2.8-0.6
		c-1-0.2-1.9-0.6-2.8-1c-0.3-0.2-0.7-0.2-1.1-0.2c-0.6,0-1.2,0.3-1.8,0.8c-3.5,3.1-6.6,6.6-9.3,10.5c-2.8,3.9-4.9,8-6.3,12.4
		c-0.1,0.4-0.2,0.7-0.4,1s-0.3,0.7-0.4,1c-0.3,0.7-0.6,1.1-0.9,1.4c-0.3,0.3-0.7,0.4-1.2,0.4c-0.7,0-1.5-0.1-2.3-0.4
		C691.8,244.8,691,244.5,690.5,244.2z"/>
</g>
<path class="st0" d="M302.6,253c-0.1,0.2-0.2,0.4-0.3,0.7c-0.1,0.2-0.1,0.5-0.1,0.8c0.2-0.1,0.3-0.1,0.3-0.1
	c2.5-2.2,4.7-4.6,6.6-7.2s3.9-5.2,5.8-7.9c0.1-0.1,0.1-0.2,0.2-0.3c0.1-0.1,0.1-0.2-0.1-0.3c-0.1-0.1-0.2-0.1-0.3-0.1
	s-0.2,0.1-0.3,0.1c-0.1,0.1-0.2,0.2-0.3,0.2c-2.6,1.9-4.8,4-6.8,6.3C305.5,247.4,303.9,250.1,302.6,253 M116,270.4
	c-0.1-2.1,0-4.1,0.5-6.1s1-3.9,1.7-5.9c1.7-5.2,3.7-10.2,6.2-15c2.5-4.8,5.2-9.5,8-14.1c2.9-4.9,6.1-9.5,9.4-14
	c3.3-4.4,7.1-8.6,11.2-12.6c1-0.9,2-1.8,3-2.7c1-0.9,2.1-1.6,3.3-2.4c1.4-0.8,2.8-1.3,4.3-1.3c1.1,0,2.3,0.2,3.5,0.7s2.2,1,3.2,1.6
	c1.9,1.2,3.2,2.7,3.8,4.4c0.6,1.7,0.6,3.9,0.1,6.4c-0.4,2.2-1.2,4.4-2.2,6.4c-1,2-2,4-3.1,6c-0.3,0.5-0.6,0.7-1.2,0.7
	c-0.2,0-0.4,0-0.5-0.1c-1-0.2-1.8-0.7-2.4-1.4c-0.6-0.7-1-1.6-1-2.6c0-0.9,0.1-1.9,0.3-2.8s0.4-1.8,0.6-2.8c0.2-0.9,0.3-1.8,0.5-2.6
	c0.2-0.9,0.3-1.8,0.3-2.7c0-0.1,0-0.2,0-0.4c0-0.1,0-0.2-0.2-0.4c-0.9,0.7-1.8,1.4-2.6,2.2c-0.8,0.8-1.6,1.6-2.4,2.4
	c-2.3,2.3-4.6,4.8-6.9,7.6s-4.7,5.8-6.9,8.9c-2.3,3.1-4.5,6.4-6.6,9.8s-4.1,6.8-5.9,10.2s-3.4,6.9-4.8,10.3
	c-1.4,3.4-2.5,6.7-3.3,9.9c-0.2,0.7-0.4,1.4-0.5,2.1c-0.1,0.7-0.2,1.4-0.3,2.2c0,0.6,0.1,0.9,0.3,0.9c0.4,0,1.1-0.3,2.2-1
	c1.1-0.6,2.4-1.5,3.9-2.5c1.5-1,3.2-2.2,5-3.6c1.8-1.3,3.7-2.7,5.5-4.2c1.9-1.4,3.7-2.9,5.5-4.3c1.8-1.4,3.5-2.7,5-3.9
	c1.5-1.2,2.8-2.2,3.9-3.1s1.8-1.4,2.2-1.8c0.4-0.4,0.9-0.7,1.4-1.1s0.9-0.7,1.4-0.9c0.5-0.3,1-0.4,1.5-0.4c0.1,0,0.2,0,0.3,0
	c0.1,0,0.2,0,0.4,0.1c0.9,0.3,1.4,0.6,1.5,1s-0.1,1-0.7,1.6c-4.2,4.9-8.6,9.7-13.1,14.2s-9.5,8.7-14.8,12.4c-1.4,1-3,2-4.6,2.7
	c-1.7,0.8-3.4,1.2-5.2,1.2c-1.3,0-2.6-0.2-3.8-0.8c-1.2-0.5-2.3-1.2-3.2-2.1s-1.7-1.9-2.3-3.1C116.3,273,116,271.8,116,270.4z
	 M181.9,237.8c-2.5,5.5-4.8,11.1-6.9,16.6c-2.1,5.6-4.1,11.2-6.1,16.9c-0.7,2-1.2,4.1-1.5,6.1c-0.3,2.1-0.5,4.1-0.6,6.3
	c0,0.8,0.3,1.5,0.8,2.1c0.4,0.5,0.5,0.8,0.4,1.1c-0.1,0.3-0.5,0.5-1.1,0.6c-0.3,0-0.6,0-0.9,0s-0.5-0.1-0.9-0.2
	c-0.9-0.3-1.8-0.8-2.6-1.4c-0.8-0.6-1.5-1.2-2.1-1.9c-0.6-0.7-1-1.4-1.3-2s-0.4-1.2-0.3-1.7c0.3-3.1,0.7-5.9,1.3-8.2
	c0.5-2.3,1.1-4.6,1.8-6.7c1.7-5.2,3.6-10.3,5.8-15.3c2.1-5,4.4-9.9,6.7-14.9c1.3-2.6,2.4-5.3,3.6-8.1c1.1-2.7,2.4-5.4,3.9-8
	c1.8-3,3.5-6.1,5.1-9c1.7-3,3.6-5.8,5.8-8.6c0.8-0.9,1.6-1.9,2.4-2.8s1.7-1.8,2.8-2.5c0.4-0.3,0.8-0.4,1.4-0.4
	c0.4,0,0.8,0.1,1.2,0.2c0.4,0.1,0.8,0.3,1.1,0.6c0.4,0.2,0.7,0.5,0.9,0.9c0.2,0.3,0.4,0.7,0.5,1c0,0.2,0,0.4-0.1,0.6
	s-0.1,0.4-0.2,0.5c-0.3,0.4-0.6,0.9-0.8,1.4s-0.6,1-0.9,1.4c-3.9,5.6-7.3,11.3-10.4,17.2C187.6,225.6,184.6,231.6,181.9,237.8z
	 M187.5,260c-1.4-1-2.5-2.2-3.4-3.5s-1.3-2.8-1.3-4.7c0-1.6,0.4-3.2,1-4.8c0.6-1.6,1.4-3.1,2.3-4.6c0.9-1.5,1.9-2.9,3.1-4.2
	s2.2-2.6,3.2-3.6c0.4-0.4,0.9-0.8,1.4-1s1-0.3,1.5-0.3c0.7,0,1.3,0.2,1.9,0.6c0.6,0.4,1.1,0.9,1.6,1.7c0.3,0.4,0.4,0.8,0.3,1.2
	c-0.1,0.4-0.1,0.8-0.3,1.2c-0.4,1.1-0.8,2.1-1.4,3.1c-0.6,1-1.1,2-1.6,2.9c-0.7,1.4-1.5,2.7-2.2,4c-0.7,1.3-1.4,2.7-1.9,4.1
	c-0.4,1.1-0.7,2.4-0.9,3.6c0,0.6,0.1,0.8,0.4,0.8c0,0,0.2,0,0.4-0.1c1.3-0.4,2.5-0.8,3.6-1.5c1.1-0.6,2.2-1.3,3.2-2.2
	c1.3-1.1,2.5-2.1,3.7-3.2c1.2-1.1,2.5-2.2,3.7-3.3c0.9-0.8,1.9-1.6,2.9-2.4l0.1,0c0.4-1,0.9-2,1.5-2.9c1-1.8,2.3-3.4,3.7-5
	c0.5-0.5,1.1-0.8,1.6-0.8c0.5,0,1,0.1,1.5,0.4s1,0.5,1.3,0.8c0.8,0.6,1.4,1.2,1.6,1.8s0.1,1.3-0.4,2.3c-0.6,1.4-1.3,2.8-1.9,4.2
	c-0.7,1.4-1.3,2.8-2,4.2c-0.1,0.2-0.2,0.5-0.3,0.7c-0.1,0.2-0.1,0.5-0.1,0.9c0.6-0.6,1.2-1.2,1.8-1.8s1.1-1.2,1.7-1.8
	c1.9-2.2,3.9-4.2,6-6.2s4.2-3.9,6.3-5.9c0.5-0.5,0.9-0.8,1.3-1c0.4-0.2,0.7-0.3,1.1-0.3c0.4,0,0.9,0.2,1.6,0.5
	c0.9,0.6,1.6,1.2,1.9,1.9c0.4,0.7,0.4,1.5,0.2,2.6c-0.3,1.4-0.7,2.6-1.2,3.9c-0.6,1.2-1.1,2.5-1.7,3.7c-0.6,1.3-1.3,2.6-1.9,3.9
	c-0.6,1.3-1.1,2.7-1.6,4.1c0.4-0.3,0.8-0.7,1.2-1c0.3-0.4,0.6-0.7,1-1.1c0.9-1.2,1.9-2.3,2.9-3.4c1-1.1,2.1-2.2,3.2-3.2
	c0.4-0.3,0.7-0.5,1.1-0.6c0.4-0.7,0.7-1.4,1.2-2c0.9-1.5,1.9-2.9,3.1-4.2s2.2-2.6,3.2-3.6c0.4-0.4,0.9-0.8,1.4-1s1-0.3,1.5-0.3
	c0.7,0,1.3,0.2,1.9,0.6s1.1,0.9,1.6,1.7c0.3,0.4,0.4,0.8,0.3,1.2c-0.1,0.4-0.1,0.8-0.3,1.2c-0.4,1.1-0.8,2.1-1.4,3.1
	c-0.6,1-1.1,2-1.6,2.9c-0.7,1.4-1.5,2.7-2.2,4c-0.7,1.3-1.4,2.7-1.9,4.1c-0.4,1.1-0.7,2.4-0.9,3.6c0,0.5,0.1,0.8,0.4,0.8
	c0,0,0.2,0,0.4-0.1c1.3-0.4,2.5-0.8,3.6-1.5c1.1-0.6,2.2-1.3,3.2-2.2c1.3-1.1,2.5-2.1,3.7-3.2c1.2-1.1,2.5-2.2,3.7-3.3
	c0.9-0.8,1.9-1.6,2.9-2.4c0.3-0.2,0.6-0.4,0.9-0.7c0.5-0.9,1.1-1.8,1.7-2.7c1.9-2.9,4.1-5.6,6.7-8.2c0.4-0.4,0.9-0.9,1.5-1.3
	c0.6-0.4,1.2-0.8,1.8-1.2c0.6-0.4,1.3-0.6,2-0.9c0.7-0.2,1.3-0.3,1.9-0.3c0.8,0,1.7,0.1,2.5,0.4c0.8,0.3,1.6,0.6,2.3,1.1
	c0.7,0.4,1.3,0.9,1.9,1.4c0.5,0.5,0.9,1,1.1,1.6c0.2,0.4,0.3,0.7,0.4,1.1s0.1,0.8,0,1.2c-0.2,1.3-0.7,2.5-1.3,3.5
	c-0.7,1-1.5,1.9-2.5,2.8c-0.5,0.4-1,0.5-1.5,0.5s-1.1-0.2-1.7-0.5c-0.6-0.3-1.1-0.8-1.5-1.4c-0.2-0.3-0.4-0.5-0.5-0.5
	c-0.1,0-0.3,0.1-0.5,0.4c-1.4,1.9-2.8,3.8-4,5.7s-2.4,4-3.4,6.1c-0.4,0.7-0.6,1.5-0.9,2.3c-0.2,0.8-0.4,1.6-0.6,2.4
	c-0.1,0.2-0.1,0.4-0.2,0.6c0,0.2,0,0.4,0.2,0.6c0.1,0.1,0.2,0.1,0.3,0.1c0.2,0,0.3,0,0.4-0.1s0.3-0.1,0.4-0.2c3.1-1.1,6-2.5,8.7-4.1
	s5.3-3.4,7.9-5.4c1.6-1.3,3.3-2.6,5-3.9c1.6-1.3,3.4-2.4,5.3-3.4c0.3-0.2,0.7-0.3,1-0.4c2.3-2.8,5.1-5,8.4-6.7
	c1.5-0.8,3-1.2,4.5-1.2c1.9,0,3.9,0.6,5.8,1.9c0.2,0.1,0.4,0.2,0.5,0.3s0.4,0.1,0.6,0.1h0.2c0.4,0,0.7,0,1,0.1c0.2,0,0.6,0.1,1,0.3
	c0.5,0.2,0.9,0.4,1.2,0.6c0.3,0.2,0.5,0.4,0.6,0.7c0.1,0.3,0.1,0.6,0,0.9c-0.1,0.4-0.2,0.8-0.4,1.3c-0.7,1.9-1.6,3.8-2.6,5.6
	s-2,3.6-2.9,5.4c-0.4,0.7-0.8,1.5-1.1,2.3c-0.3,0.8-0.6,1.6-0.8,2.4c-0.1,0.3-0.1,0.6-0.2,0.9c0,0.3,0,0.6,0,1
	c0.5-0.2,1-0.4,1.4-0.7c0.4-0.3,0.8-0.6,1.2-0.9c1.6-1.4,3.2-2.8,4.6-4.2c1.5-1.4,3-2.9,4.4-4.3c0.3-0.3,0.6-0.6,0.9-0.8
	s0.7-0.4,1.1-0.4c0.2,0,0.5,0.1,0.8,0.1c0.5,0.2,0.8,0.4,0.9,0.7s0.1,0.6-0.3,1.1c-1,1.5-1.9,2.9-2.9,4.4c-1,1.5-2,2.9-3.1,4.2
	c-0.5,0.6-1.1,1.2-1.7,1.8c-0.6,0.6-1.3,1.1-2,1.6s-1.5,0.9-2.3,1.1c-0.8,0.3-1.6,0.4-2.5,0.4c-1.5,0-2.8-0.5-4-1.4
	c-1.2-1-2.1-2.3-2.6-4.1c-0.3,0.1-0.5,0.2-0.6,0.5c-0.1,0.2-0.3,0.4-0.4,0.6c-0.5,0.6-1,1.1-1.5,1.7c-0.5,0.5-1,1.1-1.5,1.6
	c-0.6,0.6-1.3,1.2-2,1.5c-0.7,0.4-1.4,0.6-2.2,0.6c-0.7,0-1.5-0.2-2.3-0.5c-1.4-0.5-2.5-1.3-3.4-2.3s-1.3-2.2-1.4-3.8
	c-0.1-1.5,0-2.9,0.3-4.3c0.2-0.9,0.5-1.8,0.9-2.7c-2,1.7-3.9,3.4-5.9,5.1c-2,1.8-4,3.5-6.1,5.2s-4.2,3.3-6.4,4.8
	c-1.7,1.2-3.4,1.8-5.1,1.8c-1.4,0-2.8-0.4-4.3-1.3c-1.9-1-3.4-2.3-4.6-3.8c-1.2-1.5-1.9-3.4-1.9-5.7c0-0.4,0-0.8,0.1-1.2
	c-1.5,1.4-3,2.8-4.4,4.1c-0.5,0.5-1.1,1-1.9,1.6c-0.7,0.6-1.5,1.1-2.3,1.6s-1.6,0.9-2.5,1.2c-0.8,0.3-1.6,0.5-2.4,0.5
	c-1.5,0-3-0.5-4.4-1.6c-1.4-1-2.5-2.2-3.4-3.5c-0.6-0.9-1.1-2-1.2-3.3c-0.3,0.4-0.7,0.9-1,1.3c-0.8,1-1.6,1.9-2.4,2.6
	c-0.8,0.8-1.6,1.4-2.4,1.9s-1.5,0.8-2.1,0.8c-0.5,0-1-0.1-1.6-0.4c-1.1-0.5-2.1-1.2-2.8-2s-1.2-1.9-1.4-3.2c-0.1-0.7-0.1-1.5,0-2.2
	c0.1-0.7,0.2-1.5,0.4-2.2c0.3-0.9,0.6-1.8,0.9-2.6s0.7-1.7,1-2.6c0.1-0.2,0.1-0.3,0.3-0.5c0.1-0.2,0.1-0.4,0.1-0.6
	c-0.3,0-0.4,0.1-0.6,0.2s-0.2,0.3-0.4,0.4c-1.9,1.9-3.6,3.8-5.3,5.8s-3.3,4-5.1,6c-0.4,0.5-0.9,1-1.3,1.5c-0.4,0.5-0.9,1-1.3,1.5
	c-0.5,0.5-1.1,0.8-1.7,0.8c-0.2,0-0.3,0-0.5,0s-0.4-0.1-0.5-0.1c-1.2-0.4-2.1-1-2.8-1.9c-0.7-0.9-1.1-1.9-1.1-3.2
	c-0.1-0.9,0-1.8,0.1-2.7c-1.8,1.7-3.7,3.5-5.6,5.2c-0.5,0.5-1.1,1-1.9,1.6c-0.7,0.6-1.5,1.1-2.3,1.6s-1.6,0.9-2.5,1.2
	c-0.8,0.3-1.6,0.5-2.4,0.5C190.4,261.6,188.9,261.1,187.5,260z M198.2,226.1c0.7-0.4,1.5-0.7,2.3-0.9s1.6-0.3,2.4-0.4
	c0.9,0,1.8,0.2,2.7,0.5s1.6,0.8,2.2,1.4c0.7,0.7,0.6,1.2-0.4,1.6c-0.6,0.2-1.1,0.4-1.6,0.7c-0.5,0.3-1,0.6-1.5,0.9
	c-0.8,0.4-1.7,0.7-2.6,0.7c-1.5,0-2.8-0.6-3.8-1.8C196.8,227.8,196.9,226.8,198.2,226.1z M253.4,226.1c0.7-0.4,1.5-0.7,2.3-0.9
	s1.6-0.3,2.4-0.4c0.9,0,1.8,0.2,2.7,0.5c0.8,0.3,1.6,0.8,2.2,1.4c0.7,0.7,0.5,1.2-0.4,1.6c-0.6,0.2-1.1,0.4-1.6,0.7s-1,0.6-1.5,0.9
	c-0.8,0.4-1.7,0.7-2.6,0.7c-1.5,0-2.8-0.6-3.8-1.8C252,227.8,252.1,226.8,253.4,226.1z"/>
<linearGradient id="SVGID_1_" gradientUnits="userSpaceOnUse" x1="4.564661e-03" y1="154.2392" x2="179.29" y2="154.2392" gradientTransform="matrix(1 0 0 -1 0 290)">
	<stop  offset="0" style="stop-color:#68C5AF"/>
	<stop  offset="1" style="stop-color:#3E93D0"/>
</linearGradient>
<path class="st1" d="M179.3,87.8c-24-8.8-40.5-26.6-57.8-50.2C83.9-13.4,36.7-10.1,15,32.9c-33.9,67.2-2.9,115.5,20,156
	c19.2,33.9,38.2,60.1,62.9,82.6c-20.1-40-32-81.1-40-115c-6.1-25.6-13.9-54.7-5.3-87.7c5.6-21.7,21.3-36.3,46.3-14.3
	C128,80.1,153.2,83.5,179.3,87.8"/>
<linearGradient id="SVGID_00000130638275783580020860000003366344673195433652_" gradientUnits="userSpaceOnUse" x1="143.76" y1="157.6992" x2="310.4416" y2="157.6992" gradientTransform="matrix(1 0 0 -1 0 290)">
	<stop  offset="0" style="stop-color:#68C5AF"/>
	<stop  offset="1" style="stop-color:#3E93D0"/>
</linearGradient>
<path style="fill-rule:evenodd;clip-rule:evenodd;fill:url(#SVGID_00000130638275783580020860000003366344673195433652_);" d="
	M143.8,96.8c15.5,7.3,35,6.4,68.7-15.1c30.5-19.5,78-32.5,92.2-8c19.9,34.3-16.7,99.9-36.5,130.5c-2.2-12.3,8.4-44.5,12.6-62.6
	c4.5-19.6,9.5-37.1-6.2-51.9c-13.1-12.3-39.7-0.6-74.5,14.6C166,119.3,150.4,110.4,143.8,96.8"/>
</svg>
