<?xml version="1.0" encoding="utf-8"?>
<!-- Generator: Adobe Illustrator 27.0.0, SVG Export Plug-In . SVG Version: 6.00 Build 0)  -->
<svg version="1.1" id="Layer_1" xmlns="http://www.w3.org/2000/svg" xmlns:xlink="http://www.w3.org/1999/xlink" x="0px" y="0px"
	 viewBox="0 0 147 44" style="enable-background:new 0 0 147 44;" xml:space="preserve">
<style type="text/css">
	.st0{fill:#23497A;}
</style>
<path d="M2.9,32.1l3.8,8l3.6-8h1.8L6.9,43.9H5.6L0,32.1H2.9z"/>
<path d="M22.6,32.1l2.9,7.5l3-7.6l3,7.6l2.9-7.4h1.9l-4.6,11.8h-1.3l-2.4-6l-2.3,6h-1.3l-4.7-11.8H22.6z"/>
<path d="M49.9,32.1l5.3,11.6h-1.9L51.5,40h-4.9l-1.8,3.8h-1l5.5-11.6H49.9z M47,39.2h4.2l-2.1-4.5L47,39.2z"/>
<path d="M72.1,32.4v0.7H68v10.6h-1.9V33.1H62v-0.7H72.1z"/>
<path d="M83.2,38.1c0,0.8,0.1,1.5,0.4,2.1c0.2,0.6,0.6,1.2,1,1.6c0.4,0.4,0.9,0.8,1.5,1c0.6,0.2,1.2,0.3,1.9,0.3
	c0.4,0,0.8-0.1,1.2-0.2c0.4-0.2,0.7-0.4,1-0.6c0.3-0.2,0.6-0.5,0.8-0.8c0.2-0.3,0.5-0.6,0.6-0.9l0.8,0.5c-0.2,0.4-0.5,0.7-0.8,1.1
	c-0.3,0.4-0.7,0.7-1.1,0.9c-0.4,0.3-0.9,0.5-1.4,0.6c-0.5,0.2-1.1,0.2-1.8,0.2c-0.9,0-1.8-0.2-2.6-0.5c-0.8-0.3-1.4-0.7-2-1.3
	s-1-1.2-1.3-1.9c-0.3-0.7-0.4-1.5-0.4-2.3c0-0.8,0.2-1.6,0.5-2.3c0.3-0.7,0.7-1.4,1.3-1.9c0.6-0.5,1.2-1,2-1.3
	c0.8-0.3,1.6-0.5,2.6-0.5c0.6,0,1.2,0.1,1.7,0.2c0.5,0.2,1,0.4,1.4,0.6c0.4,0.3,0.8,0.6,1.1,0.9c0.3,0.4,0.6,0.7,0.8,1.1l-0.8,0.5
	c-0.5-0.9-1-1.6-1.6-2c-0.6-0.4-1.3-0.6-2-0.6c-0.7,0-1.3,0.1-1.8,0.4s-1.1,0.6-1.5,1c-0.4,0.4-0.8,1-1,1.6
	C83.3,36.6,83.2,37.3,83.2,38.1z"/>
<path d="M104.2,38.3v5.4h-1.9V32.4h1.9v5.2h5.7v-5.2h1.9v11.3h-1.9v-5.4H104.2z"/>
<path d="M130.2,32.4v0.7h-6v4.1h4v0.7h-4V43h6v0.7h-7.9V32.4L130.2,32.4L130.2,32.4z"/>
<path d="M143,43.3c0.3,0,0.6,0,0.8-0.1c0.3-0.1,0.5-0.2,0.7-0.3c0.2-0.1,0.4-0.3,0.5-0.6c0.1-0.2,0.2-0.5,0.2-0.8
	c0-0.3-0.1-0.7-0.3-0.9c-0.2-0.3-0.4-0.5-0.7-0.7c-0.3-0.2-0.6-0.4-1-0.6c-0.4-0.2-0.8-0.4-1.1-0.6c-0.4-0.2-0.8-0.4-1.1-0.6
	c-0.4-0.2-0.7-0.5-1-0.7c-0.3-0.3-0.5-0.6-0.7-0.9c-0.2-0.3-0.3-0.7-0.3-1.2c0-0.4,0.1-0.8,0.2-1.2c0.2-0.4,0.4-0.7,0.7-1
	c0.3-0.3,0.7-0.5,1.2-0.6c0.5-0.2,1-0.2,1.6-0.2c1.1,0,1.9,0.2,2.5,0.7c0.6,0.4,1.1,1.1,1.3,2l-1,0.4c-0.2-0.7-0.6-1.3-1.1-1.7
	c-0.5-0.4-1.1-0.6-1.9-0.6c-0.4,0-0.7,0.1-0.9,0.1c-0.3,0.1-0.5,0.2-0.7,0.4c-0.2,0.2-0.3,0.3-0.4,0.5c-0.1,0.2-0.1,0.4-0.1,0.6
	c0,0.3,0.1,0.6,0.3,0.8c0.2,0.2,0.4,0.5,0.7,0.7c0.3,0.2,0.6,0.4,1,0.6c0.4,0.2,0.8,0.4,1.2,0.6c0.4,0.2,0.8,0.4,1.2,0.7
	c0.4,0.2,0.7,0.5,1,0.8c0.3,0.3,0.5,0.6,0.7,0.9c0.2,0.3,0.3,0.7,0.3,1.1c0,0.4-0.1,0.9-0.3,1.3c-0.2,0.4-0.4,0.7-0.8,1
	c-0.3,0.3-0.8,0.5-1.3,0.7c-0.5,0.2-1.1,0.3-1.8,0.3c-1.1,0-1.9-0.2-2.6-0.7c-0.6-0.5-1.1-1.1-1.4-2l1-0.4c0.2,0.7,0.6,1.3,1.2,1.7
	C141.6,43.1,142.3,43.3,143,43.3z"/>
<path class="st0" d="M93.9,0.7c-0.5,0-0.9,0.3-1.1,0.7l-9.1,18.4l-5.8-7.9l5.9-10.2C84.2,0.9,83.6,0,82.8,0L70.4,0
	c-0.8,0-1.4,0.9-0.9,1.6l5.9,10.3l-5.7,7.9L60.6,1.3c-0.2-0.3-0.5-0.5-0.8-0.5l-0.9,0L69,24.4h0.6c0.3,0,0.7-0.1,0.9-0.4l5.2-5.6
	c0.5-0.5,1.3-0.5,1.8,0l5.2,5.6c0.2,0.3,0.6,0.4,0.9,0.4h0.6L94.6,0.7H93.9z M77,10c-0.2,0.3-0.6,0.3-0.7,0l-1.6-2.7
	c-0.2-0.3,0-0.6,0.4-0.6h3.1c0.3,0,0.5,0.4,0.4,0.6L77,10z"/>
</svg>
