<?xml version="1.0" encoding="utf-8"?>
<!-- Generator: Adobe Illustrator 23.0.2, SVG Export Plug-In . SVG Version: 6.00 Build 0)  -->
<svg version="1.1" id="Layer_1" xmlns="http://www.w3.org/2000/svg" xmlns:xlink="http://www.w3.org/1999/xlink" x="0px" y="0px"
	 viewBox="0 0 512 512" style="enable-background:new 0 0 512 512;" xml:space="preserve">
<style type="text/css">
	.st0{fill:#F2F2F2;}
	.st1{fill:#262626;}
	.st2{fill:#00B39A;}
</style>
<rect class="st0" width="512" height="512"/>
<path class="st1" d="M209.6,337.6H156l-69.8-78.2v78.2H41V164.8h45.2V239l67.8-74.3h52.8l-76.4,82.1L209.6,337.6L209.6,337.6z
	 M470,112v288H244v-47.1h16.8v30.4h192.5V128.7H260.7v157.7H244V112H470z"/>
<path class="st1" d="M321.6,336c-10.4-3.6-20-9.5-28-17l6.4-12c7.6,7,16.5,12.6,26.2,16.3c10.2,3.4,20.9,5,31.6,4.8
	c14.6,0,25.9-3,34-8.9c4-2.9,7.1-6.6,9.3-11c2.1-4.4,3.1-9.2,2.9-14.1c0.1-2.9-0.3-5.7-1.4-8.4c-1-2.7-2.6-5.1-4.5-7.2
	c-4.2-4.2-9.4-7.4-15-9.3c-8-2.7-16.1-5-24.3-6.7c-11.1-2.3-21.9-5.3-32.6-9.1c-8-2.9-15.2-7.8-21-14.1c-6-7.1-9.1-16.1-8.6-25.4
	c-0.2-9.2,2.5-18.2,7.6-25.7c5.4-7.6,12.9-13.6,21.5-17.2c10.3-4.3,21.4-6.4,32.6-6.1c11.2-0.1,22.3,1.8,32.8,5.8
	c9.8,3.7,18.7,9.4,26.2,16.8l-6.4,12c-7.3-6.8-15.7-12.2-24.8-16.1c-8.8-3.4-18.3-5.1-27.8-5c-14.6,0-26,3.1-34.2,9.3
	c-4,3-7.2,6.9-9.4,11.5c-2.1,4.5-3.1,9.5-2.9,14.5c-0.3,4.2,0.6,8.4,2.5,12.2c1.9,3.8,4.7,7,8.2,9.3c9.7,5.7,20.3,9.7,31.3,11.9
	l6.4,1.5c13.3,3.3,23.8,6.3,31.5,9.1c7.5,2.6,14.2,7,19.5,12.9c5.6,6.5,8.4,14.9,8,23.4c0.2,8.9-2.5,17.7-7.6,25
	c-5.5,7.5-12.9,13.3-21.5,16.8c-10.2,4.2-21.2,6.2-32.3,6C345.5,341.7,333.3,339.9,321.6,336L321.6,336z"/>
<path class="st2" d="M251.8,341.8c12.3,0,22.2-9.9,22.2-22.2c0-12.2-9.9-22.2-22.2-22.2c-12.3,0-22.2,9.9-22.2,22.2
	C229.6,331.9,239.5,341.8,251.8,341.8z"/>
</svg>
