<?xml version="1.0" encoding="utf-8"?>
<!-- Generator: Adobe Illustrator 23.0.2, SVG Export Plug-In . SVG Version: 6.00 Build 0)  -->
<svg version="1.1" id="Layer_1" xmlns="http://www.w3.org/2000/svg" xmlns:xlink="http://www.w3.org/1999/xlink" x="0px" y="0px"
	 viewBox="0 0 590 94" style="enable-background:new 0 0 590 94;" xml:space="preserve">
<style type="text/css">
	.st0{fill:#262626;}
	.st1{fill:#00B39A;}
</style>
<path class="st0" d="M521.7,87.7H299.5v-9.8h-5.4v15.2h232.9V77.2h-5.4V87.7z M294.1,0v56.4h5.4v-51h222.1v16h5.4V0H294.1z
	 M54.4,77.2H37.1L14.6,51.9v25.3H0V21.4h14.6v24l21.9-24h17L28.9,47.9C28.9,47.9,54.4,77.2,54.4,77.2z"/>
<path class="st0" d="M97.3,77.2l-5-11.6H67.6l-5,11.6H47.9L74,21.4h11.6l26.2,55.9H97.3z M72.2,54.7h15.4l-7.7-17.9L72.2,54.7z"/>
<path class="st0" d="M157.6,77.2l-5-11.6h-24.7l-5,11.6h-14.7l26.1-55.9h11.6l26.2,55.9H157.6z M132.6,54.7H148l-7.7-17.9
	L132.6,54.7L132.6,54.7z M175.4,21.4h27c6.2,0,11,1.6,14.4,4.7s5.2,7.5,5.2,13.1c0,5.5-1.7,9.9-5.2,13.1c-3.5,3.2-8.3,4.8-14.4,4.8
	H190v20.2h-14.6V21.4z M200.5,46.1c2.7,0,4.7-0.6,6-1.7c1.3-1.1,1.9-2.8,1.9-5.1c0.1-1-0.1-1.9-0.4-2.8c-0.3-0.9-0.9-1.7-1.5-2.4
	c-1.3-1.1-3.3-1.7-6-1.7H190v13.7L200.5,46.1L200.5,46.1z M240.9,74.4c-4.2-2.3-7.5-5.8-9.7-10c-2.2-4.7-3.4-9.9-3.4-15.2
	s1.2-10.4,3.4-15.2c2.2-4.2,5.6-7.7,9.7-9.9c4.6-2.3,9.7-3.5,14.9-3.5c5.2,0,10.2,1.2,14.9,3.5c4.1,2.3,7.5,5.7,9.7,9.9
	c2.2,4.7,3.4,9.9,3.4,15.2c0,5.2-1.2,10.4-3.4,15.2c-2.2,4.2-5.6,7.7-9.7,10c-4.6,2.3-9.7,3.5-14.8,3.5S245.5,76.7,240.9,74.4z
	 M265.7,62.3c2.4-3,3.6-7.3,3.6-13c0-5.7-1.2-10-3.6-13c-1.2-1.4-2.8-2.5-4.5-3.3c-1.7-0.8-3.5-1.2-5.4-1.2c-1.9,0-3.7,0.4-5.4,1.1
	c-1.7,0.8-3.2,1.9-4.5,3.3c-2.4,2.9-3.6,7.3-3.6,13c0,5.8,1.2,10.1,3.6,13.1c1.2,1.4,2.8,2.5,4.5,3.3c1.7,0.8,3.6,1.2,5.4,1.2
	c1.9,0,3.7-0.4,5.4-1.2S264.5,63.7,265.7,62.3L265.7,62.3z M319.2,76.1c-3.4-1.2-6.4-3.1-9-5.5l2.1-3.9c2.5,2.3,5.3,4.1,8.4,5.3
	c3.3,1.1,6.7,1.6,10.2,1.5c4.7,0,8.4-1,11-2.9c1.3-0.9,2.3-2.1,3-3.6c0.7-1.4,1-3,0.9-4.6c0-0.9-0.1-1.8-0.4-2.7
	c-0.3-0.9-0.8-1.7-1.5-2.3c-1.4-1.4-3-2.4-4.8-3c-2.6-0.9-5.2-1.6-7.9-2.2c-3.6-0.7-7.1-1.7-10.5-2.9c-2.6-1-4.9-2.5-6.8-4.6
	c-1.9-2.3-2.9-5.2-2.8-8.2c-0.1-3,0.8-5.9,2.5-8.3c1.7-2.5,4.2-4.4,6.9-5.5c3.3-1.4,6.9-2.1,10.5-2c3.6,0,7.2,0.6,10.6,1.9
	c3.2,1.2,6,3,8.4,5.4l-2.1,3.9c-2.3-2.2-5.1-3.9-8-5.2c-2.9-1.1-5.9-1.7-9-1.6c-4.7,0-8.4,1-11,3c-1.3,1-2.3,2.2-3,3.7
	c-0.7,1.5-1,3.1-0.9,4.7c-0.1,1.4,0.2,2.7,0.8,3.9s1.5,2.3,2.7,3c3.1,1.8,6.5,3.1,10.1,3.8l2.1,0.5c4.3,1.1,7.7,2,10.1,2.9
	c2.4,0.8,4.6,2.3,6.3,4.2c1.8,2.1,2.7,4.8,2.6,7.6c0.1,2.9-0.8,5.7-2.5,8.1c-1.8,2.4-4.2,4.3-6.9,5.4c-3.3,1.4-6.9,2-10.4,1.9
	C326.9,77.9,322.9,77.3,319.2,76.1L319.2,76.1z M374.2,77.2V25.6h-20.1v-4.3H399v4.3h-20v51.6L374.2,77.2L374.2,77.2z M412.3,72.2
	c-3.7-3.7-5.5-9.3-5.5-16.6V21.4h4.9v34.9c0,11.5,5.6,17.3,16.8,17.3c5.6,0,9.7-1.5,12.6-4.4s4.2-7.2,4.2-12.9V21.4h4.8v34.3
	c0,7.3-1.8,12.8-5.5,16.6c-3.7,3.8-9.1,5.6-16.1,5.6C421.4,77.8,416,76,412.3,72.2L412.3,72.2z M464.3,21.4h18
	c8.9,0,15.7,2.4,20.5,7.2s7.2,11.7,7.2,20.6c0,8.9-2.4,15.8-7.3,20.7s-11.7,7.3-20.5,7.3h-18V21.4z M482,72.9c7.6,0,13.3-2,17.1-5.9
	c3.8-4,5.7-9.9,5.8-17.7c0-15.7-7.6-23.6-22.8-23.6h-12.8v47.3L482,72.9z M551.1,74.4c-3.8-2.4-6.8-5.8-8.6-9.9
	c-4-9.7-4-20.7,0-30.4c1.8-4.1,4.8-7.5,8.6-9.9c4.1-2.3,8.6-3.4,13.3-3.4s9.2,1.2,13.3,3.4c3.8,2.4,6.8,5.8,8.6,9.9
	c4,9.8,4,20.7,0,30.5c-1.8,4.1-4.8,7.5-8.6,9.9c-4.1,2.3-8.6,3.4-13.3,3.4C559.7,77.8,555.2,76.7,551.1,74.4L551.1,74.4L551.1,74.4z
	 M579,67.2c3.5-4.2,5.2-10.2,5.2-17.9c0-7.7-1.7-13.7-5.2-17.9c-3.5-4.2-8.4-6.3-14.7-6.3c-6.3,0-11.2,2.1-14.6,6.3
	s-5.2,10.2-5.2,17.8c0,7.7,1.7,13.6,5.2,17.9s8.3,6.4,14.6,6.4C570.7,73.5,575.5,71.4,579,67.2z"/>
<path class="st1" d="M296.6,74.3c4,0,7.2-3.2,7.2-7.2c0-4-3.2-7.2-7.2-7.2c-4,0-7.2,3.2-7.2,7.2C289.5,71.1,292.7,74.3,296.6,74.3z"
	/>
</svg>
