<?xml version="1.0" encoding="utf-8"?>
<!-- Generator: Adobe Illustrator 23.0.2, SVG Export Plug-In . SVG Version: 6.00 Build 0)  -->
<svg version="1.1" id="Layer_1" xmlns="http://www.w3.org/2000/svg" xmlns:xlink="http://www.w3.org/1999/xlink" x="0px" y="0px"
	 viewBox="0 0 139 94" style="enable-background:new 0 0 139 94;" xml:space="preserve">
<style type="text/css">
	.st0{fill:#FFFFFF;}
	.st1{fill:#00B39A;}
</style>
<path class="st0" d="M54.3,72.9H37.1L14.6,47.6v25.3H0V17.1h14.6v24l21.9-24h17L28.8,43.6C28.8,43.6,54.3,72.9,54.3,72.9z M138.3,0
	v93.1H65.4V77.8h5.4v9.8h62.1V5.4H70.8v51h-5.4V0H138.3z"/>
<path class="st0" d="M90.5,72.4c-3.4-1.2-6.4-3.1-9-5.5l2.1-3.9c2.5,2.3,5.3,4.1,8.4,5.3c3.3,1.1,6.7,1.6,10.2,1.5
	c4.7,0,8.4-1,11-2.9c1.3-0.9,2.3-2.1,3-3.6c0.7-1.4,1-3,0.9-4.6c0-0.9-0.1-1.8-0.4-2.7s-0.8-1.7-1.5-2.3c-1.4-1.4-3-2.4-4.8-3
	c-2.6-0.9-5.2-1.6-7.8-2.2c-3.6-0.7-7.1-1.7-10.5-2.9c-2.6-1-4.9-2.5-6.8-4.6c-1.9-2.3-2.9-5.2-2.8-8.2c-0.1-3,0.8-5.9,2.5-8.3
	c1.7-2.5,4.1-4.4,6.9-5.5c3.3-1.4,6.9-2.1,10.5-2c3.6,0,7.2,0.6,10.6,1.9c3.2,1.2,6,3,8.4,5.4l-2.1,3.9c-2.3-2.2-5.1-3.9-8-5.2
	c-2.9-1.1-5.9-1.7-9-1.6c-4.7,0-8.4,1-11,3c-1.3,1-2.3,2.2-3,3.7s-1,3.1-0.9,4.7c-0.1,1.4,0.2,2.7,0.8,3.9c0.6,1.2,1.5,2.3,2.7,3
	c3.1,1.8,6.5,3.1,10.1,3.8l2.1,0.5c4.3,1.1,7.7,2,10.1,2.9c2.4,0.8,4.6,2.3,6.3,4.2c1.8,2.1,2.7,4.8,2.6,7.6
	c0.1,2.9-0.8,5.7-2.5,8.1c-1.8,2.4-4.2,4.3-6.9,5.4c-3.3,1.4-6.8,2-10.4,1.9C98.2,74.2,94.2,73.6,90.5,72.4L90.5,72.4z"/>
<path class="st1" d="M67.9,74.3c4,0,7.2-3.2,7.2-7.2s-3.2-7.2-7.2-7.2s-7.2,3.2-7.2,7.2C60.8,71.1,64,74.3,67.9,74.3z"/>
</svg>
