<?xml version="1.0" standalone="no"?>
<!DOCTYPE svg PUBLIC "-//W3C//DTD SVG 20010904//EN"
 "http://www.w3.org/TR/2001/REC-SVG-20010904/DTD/svg10.dtd">
<svg version="1.0" xmlns="http://www.w3.org/2000/svg"
 width="700.000000pt" height="700.000000pt" viewBox="0 0 700.000000 700.000000"
 preserveAspectRatio="xMidYMid meet">
<metadata>
Created by potrace 1.11, written by Peter Selinger 2001-2013
</metadata>
<g transform="translate(0.000000,700.000000) scale(0.100000,-0.100000)"
fill="#000000" stroke="none">
<path d="M3339 5468 c-1 -2 -2 -537 -3 -1190 -1 -784 2 -1189 9 -1191 6 -2 57
-3 115 -3 l105 1 0 1078 0 1077 1316 0 1316 0 0 -1740 0 -1740 -1316 2 -1315
3 0 203 c0 111 -3 203 -6 203 -3 1 -53 2 -112 3 -70 1 -108 -2 -109 -8 -4 -43
-3 -620 2 -627 3 -5 630 -8 1545 -7 l1539 3 0 1968 1 1967 -1543 0 c-849 0
-1543 -1 -1544 -2z"/>
<path d="M562 3567 l3 -1182 305 0 305 0 3 535 2 535 23 -26 c21 -25 142 -161
162 -183 6 -6 44 -49 85 -96 41 -47 81 -92 90 -101 13 -13 115 -128 160 -179
21 -24 143 -161 155 -174 6 -6 64 -72 130 -146 66 -74 126 -142 134 -150 12
-13 69 -15 378 -15 200 0 363 1 363 3 0 4 -144 171 -226 262 -36 40 -207 236
-309 355 -38 44 -72 82 -75 85 -3 3 -37 41 -75 86 -158 183 -180 207 -190 218
-5 6 -39 45 -75 86 -36 41 -77 88 -92 105 -16 16 -28 35 -28 40 0 6 26 37 56
70 31 33 107 114 168 179 61 66 141 152 178 191 37 39 75 80 85 92 10 11 66
72 125 134 58 63 120 130 138 149 18 19 77 82 130 140 54 58 111 119 126 135
l28 30 -360 3 -359 3 -24 -28 c-13 -16 -44 -50 -70 -78 -40 -44 -164 -179
-286 -314 -22 -24 -45 -49 -50 -55 -6 -6 -62 -67 -125 -136 -63 -69 -119 -130
-125 -136 -5 -6 -46 -51 -90 -100 -44 -49 -97 -107 -117 -129 l-37 -40 -2 500
c-1 275 -1 503 0 507 0 3 -139 7 -309 7 l-310 0 2 -1182z"/>
<path d="M4711 4733 c-197 -29 -358 -103 -475 -220 -121 -120 -174 -245 -180
-423 -5 -156 44 -286 147 -389 127 -128 298 -199 682 -285 372 -83 515 -149
596 -276 27 -42 40 -96 41 -167 1 -118 -29 -196 -111 -285 -104 -114 -296
-175 -541 -172 -145 2 -201 8 -325 41 -122 31 -252 96 -362 180 -59 44 -84 59
-90 50 -27 -36 -74 -140 -69 -152 10 -27 169 -136 260 -179 118 -56 267 -99
381 -112 28 -3 61 -7 75 -10 37 -7 269 -6 315 1 276 43 473 153 586 328 55 85
80 166 86 280 10 168 -32 286 -137 387 -122 118 -236 164 -708 281 -268 66
-427 131 -517 211 -56 48 -98 145 -101 231 -6 186 66 323 218 412 116 68 222
90 433 89 123 0 166 -4 239 -23 50 -13 97 -27 105 -31 9 -4 48 -23 86 -41 78
-36 134 -72 212 -136 28 -24 53 -43 56 -43 7 0 87 140 87 152 0 27 -151 138
-265 195 -198 100 -481 141 -724 106z"/>
<path d="M3349 2917 c-86 -26 -167 -106 -193 -191 -45 -144 15 -292 149 -365
155 -84 370 2 424 169 77 240 -140 461 -380 387z"/>
</g>
</svg>
